<svg width="1673" height="385" viewBox="0 0 1673 385" fill="none" xmlns="http://www.w3.org/2000/svg">
<g opacity="0.3">
<path d="M242.597 309.712H361.272V135.442H364.644V130.46H357.284V124.085H298.895V114.397H276.587L273.255 108.072H267.743V96.7693H266.513H265.285V108.072H255.059V114.397V121.688V124.085H246.587V130.46H239.225V135.442H242.597V309.712Z" fill="url(#paint0_linear_2687_521)"/>
<path d="M268.723 95.1977C268.723 94.3286 267.734 93.6248 266.513 93.6248C265.294 93.6248 264.305 94.3286 264.305 95.1977C264.305 96.0655 265.294 96.7694 266.513 96.7694C267.734 96.7694 268.723 96.0655 268.723 95.1977Z" fill="url(#paint1_linear_2687_521)"/>
<path d="M1344.01 319.915V85.6247L1197.9 64.0338L1213.91 319.915H785.152V175.16H777.26V88.539H756.886V65.3374H749.608V31.3072H709.507V6.29708H705.939V31.3072H698.084V0H694.515V31.3072H669.164V88.539H656.069V175.16H644.844V319.915H530.827V127.224H532.796V124.997H518.763V111.608H520.578V109.464H507.697V101.767H508.854V100.121H503.307V92.8494H498.014H497.19V66.8922H496.616H495.887H495.152V92.8494H492.678V78.3791H492.104H491.375H490.64V92.8494H484.521V100.121H478.121V101.767H480.131V109.464H467.252V111.608H469.065V124.997H455.032V127.224H457.002V319.915H76.74V346.195H1628.86V319.915H1344.01Z" fill="url(#paint2_linear_2687_521)"/>
</g>
<path d="M1600.96 343.571V319.914H1554.24L1536.56 226.796H1533.91V215.61H1524.62V226.796H1522.32V222.612H1515.82V226.796H1502.35V217.044H1498.63V210.267H1472.16V217.044H1468.45V226.796H1464.73V282.723H1441.2V140.82H1433.46V109.699H1430.99V140.82H1425.11V97.6503H1422.63V140.82H1417.52V117.452H1415.04V140.82H1369.38V241.545H1318.61V306.798H1271.19L1233.54 257.395C1239.89 254.792 1245.86 251.663 1251.33 248.036L1259.06 253.901C1257.4 254.933 1256.35 256.447 1256.35 258.137C1256.35 261.244 1259.89 263.763 1264.25 263.763C1268.62 263.763 1272.15 261.244 1272.15 258.137C1272.15 255.031 1268.62 252.512 1264.25 252.512C1262.58 252.512 1261.03 252.883 1259.75 253.515L1251.97 247.608C1252.63 247.164 1253.28 246.714 1253.93 246.256C1262.08 240.455 1268.6 233.808 1273.34 226.592L1281.94 229.418C1281.78 229.859 1281.7 230.32 1281.7 230.796C1281.7 233.903 1285.24 236.422 1289.61 236.422C1293.97 236.422 1297.51 233.903 1297.51 230.796C1297.51 227.689 1293.97 225.17 1289.61 225.17C1286.22 225.17 1283.33 226.686 1282.21 228.817L1273.71 226.025C1278.95 217.863 1281.92 208.992 1282.38 199.805L1291.64 200.02C1291.75 203.056 1295.24 205.493 1299.54 205.493C1303.9 205.493 1307.44 202.974 1307.44 199.867C1307.44 196.76 1303.9 194.242 1299.54 194.242C1295.4 194.242 1292 196.509 1291.66 199.395L1282.41 199.18C1282.43 198.535 1282.45 197.888 1282.45 197.24C1282.45 189.04 1280.46 181.058 1276.65 173.572L1284.38 171.545C1285.59 173.539 1288.38 174.935 1291.63 174.935C1296 174.935 1299.53 172.416 1299.53 169.31C1299.53 166.203 1296 163.684 1291.63 163.684C1287.27 163.684 1283.73 166.203 1283.73 169.31C1283.73 169.882 1283.85 170.436 1284.07 170.958L1276.35 172.984C1271.94 164.574 1265.22 156.803 1256.43 150.071L1262.48 146.035C1263.9 146.999 1265.82 147.592 1267.93 147.592C1272.3 147.592 1275.84 145.075 1275.84 141.967C1275.84 138.86 1272.3 136.341 1267.93 136.341C1263.57 136.341 1260.03 138.86 1260.03 141.967C1260.03 143.342 1260.72 144.601 1261.88 145.578L1255.83 149.614C1255.2 149.146 1254.57 148.681 1253.93 148.223C1244.77 141.701 1234.1 136.64 1222.49 133.202L1225.82 127.433C1226.57 127.603 1227.38 127.697 1228.21 127.697C1232.58 127.697 1236.11 125.178 1236.11 122.071C1236.11 118.964 1232.58 116.445 1228.21 116.445C1223.85 116.445 1220.31 118.964 1220.31 122.071C1220.31 124.364 1222.24 126.333 1225 127.21L1221.68 132.965C1211.29 129.967 1200.16 128.261 1188.68 127.966L1189.04 120.082C1189.12 120.083 1189.2 120.086 1189.29 120.086C1193.65 120.086 1197.19 117.567 1197.19 114.46C1197.19 111.353 1193.65 108.834 1189.29 108.834C1184.92 108.834 1181.39 111.353 1181.39 114.46C1181.39 117.295 1184.33 119.638 1188.16 120.027L1187.8 127.945C1186.89 127.927 1185.98 127.918 1185.07 127.918C1174.02 127.918 1163.25 129.22 1153.1 131.724L1149.92 125.289C1152.79 124.447 1154.82 122.435 1154.82 120.084C1154.82 116.977 1151.28 114.459 1146.91 114.459C1142.55 114.459 1139.01 116.977 1139.01 120.084C1139.01 123.191 1142.55 125.71 1146.91 125.71C1147.67 125.71 1148.4 125.633 1149.09 125.493L1152.28 131.93C1139.97 135.054 1128.61 139.953 1118.82 146.44L1113.04 142.053C1114.33 141.051 1115.12 139.716 1115.12 138.25C1115.12 135.143 1111.58 132.624 1107.22 132.624C1102.85 132.624 1099.32 135.141 1099.32 138.25C1099.32 141.357 1102.85 143.875 1107.22 143.875C1109.21 143.875 1111.02 143.352 1112.41 142.49L1118.18 146.869C1117.52 147.313 1116.87 147.764 1116.22 148.222C1108.07 154.022 1101.55 160.671 1096.81 167.886L1089.47 165.474C1089.74 164.911 1089.88 164.308 1089.88 163.683C1089.88 160.576 1086.34 158.057 1081.98 158.057C1077.61 158.057 1074.08 160.576 1074.08 163.683C1074.08 166.789 1077.61 169.308 1081.98 169.308C1085.15 169.308 1087.88 167.977 1089.14 166.056L1096.44 168.453C1091.2 176.615 1088.23 185.488 1087.77 194.674L1078.35 194.456C1078.23 191.421 1074.74 188.987 1070.45 188.987C1066.09 188.987 1062.55 191.505 1062.55 194.612C1062.55 197.719 1066.09 200.238 1070.45 200.238C1074.59 200.238 1077.99 197.969 1078.32 195.082L1087.74 195.299C1087.72 195.945 1087.7 196.591 1087.7 197.239C1087.7 205.438 1089.69 213.422 1093.5 220.907L1085.77 222.934C1084.56 220.939 1081.77 219.543 1078.52 219.543C1074.15 219.543 1070.61 222.062 1070.61 225.169C1070.61 228.276 1074.15 230.795 1078.52 230.795C1082.88 230.795 1086.42 228.276 1086.42 225.169C1086.42 224.596 1086.3 224.042 1086.07 223.522L1093.8 221.496C1098.21 229.906 1104.92 237.676 1113.72 244.409L1107.67 248.445C1106.25 247.481 1104.33 246.887 1102.22 246.887C1097.85 246.887 1094.31 249.405 1094.31 252.513C1094.31 255.62 1097.85 258.139 1102.22 258.139C1106.58 258.139 1110.12 255.62 1110.12 252.513C1110.12 251.138 1109.42 249.878 1108.27 248.901L1114.32 244.865C1114.95 245.334 1115.58 245.798 1116.22 246.256C1122.39 250.647 1129.24 254.377 1136.61 257.395L1098.96 306.798H1068.46V273.305H1056.03V209.707H1060.87V208.324H954.054V209.707H958.888V241.781H948.417L938.426 278.335V158.452H934.041V115.036H911.973V98.5064H900.166V84.6229H896.023V60.8215H894.952V84.6229H890.809V98.5077H879.002V115.038H857.104V158.454H852.551V237.275H818.596V306.798H705.943V172.371H714.997V170.255H705.943V166.468H694.467V160.248H600.612V166.468H589.136V170.255H580.082V172.371H589.136V256.053H573.784V240.351H479.078V259.524H458.43V295.228H424.995V178.533H413.851V170.598H405.027V149.606H403.168V170.598H398.988V144.316H397.131V170.598H391.994V178.533H389.236V295.228H320.044V226.796H323.296V222.169H301.934V209.607H291.718V222.169H282.43V209.607H273.142V222.169H255.076V209.607H199.77V222.169H186.856V226.796H194.198V252.582H173.765V310.765H145.718V295.228H114.495V329.112H76.7401V343.571H21.0525V385.008H1650.71V343.571H1600.96ZM1232.29 255.745L1219.25 238.633C1223.43 236.878 1227.32 234.811 1230.86 232.478L1249.54 246.667C1244.23 250.184 1238.44 253.219 1232.29 255.745ZM1183.48 200.846C1183.79 200.917 1184.13 200.968 1184.47 200.997L1182.49 244.288C1174.7 244.073 1167.24 242.894 1160.36 240.913L1183.48 200.846ZM1159.55 240.676C1157.32 240.01 1155.16 239.259 1153.06 238.43L1182.08 200.36C1182.26 200.451 1182.46 200.533 1182.66 200.608L1159.55 240.676ZM1185.35 201.017C1185.72 201.004 1186.08 200.964 1186.43 200.899L1206.65 241.752C1199.89 243.419 1192.63 244.325 1185.08 244.325C1184.51 244.325 1183.94 244.32 1183.37 244.31L1185.35 201.017ZM1187.25 200.691C1187.54 200.597 1187.82 200.487 1188.08 200.36L1217.09 238.43C1214.03 239.643 1210.82 240.686 1207.48 241.545L1187.25 200.691ZM1192.14 203.056L1229.96 231.794C1226.5 234.072 1222.7 236.091 1218.62 237.809L1192.14 203.056ZM1190.48 200.886L1189.39 199.451C1189.5 199.339 1189.6 199.222 1189.7 199.102L1244.94 217.255C1241.41 222.577 1236.53 227.359 1230.6 231.367L1190.48 200.886ZM1190.07 198.536C1190.21 198.263 1190.31 197.974 1190.36 197.675L1251.17 199.083C1250.83 205.34 1248.77 211.287 1245.31 216.691L1190.07 198.536ZM1190.39 197.051C1190.37 196.768 1190.3 196.494 1190.2 196.231L1247.3 181.265C1249.84 186.256 1251.22 191.636 1251.22 197.24C1251.22 197.648 1251.22 198.052 1251.2 198.458L1190.39 197.051ZM1189.9 195.644C1189.72 195.375 1189.5 195.122 1189.24 194.891L1233.62 165.289C1239.38 169.718 1243.95 174.931 1247 180.678L1189.9 195.644ZM1188.64 194.434C1188.3 194.213 1187.91 194.024 1187.5 193.871L1210.61 153.802C1219.13 156.35 1226.75 160.131 1233.02 164.831L1188.64 194.434ZM1186.68 193.634C1186.36 193.562 1186.03 193.512 1185.69 193.483L1187.67 150.193C1195.46 150.407 1202.92 151.587 1209.8 153.568L1186.68 193.634ZM1184.81 193.462C1184.44 193.475 1184.08 193.516 1183.73 193.579L1163.51 152.726C1170.27 151.06 1177.53 150.153 1185.08 150.153C1185.65 150.153 1186.22 150.158 1186.79 150.169L1184.81 193.462ZM1182.91 193.789C1182.5 193.918 1182.12 194.083 1181.78 194.277L1140.2 162.686C1146.64 158.443 1154.26 155.098 1162.68 152.936L1182.91 193.789ZM1181.14 194.702C1180.88 194.908 1180.65 195.134 1180.46 195.376L1125.22 177.223C1128.75 171.9 1133.63 167.119 1139.56 163.11L1181.14 194.702ZM1180.09 195.943C1179.95 196.218 1179.85 196.505 1179.8 196.805L1118.99 195.397C1119.33 189.14 1121.39 183.193 1124.84 177.789L1180.09 195.943ZM1179.77 197.43C1179.79 197.713 1179.86 197.986 1179.96 198.249L1122.86 213.215C1120.32 208.224 1118.94 202.845 1118.94 197.239C1118.94 196.832 1118.94 196.426 1118.96 196.021L1179.77 197.43ZM1180.26 198.836C1180.4 199.054 1180.57 199.26 1180.77 199.452L1180.41 199.927L1136.54 229.19C1130.78 224.762 1126.21 219.548 1123.16 213.802L1180.26 198.836ZM1179.08 201.668L1151.54 237.807C1146.22 235.569 1141.37 232.818 1137.14 229.647L1179.08 201.668ZM1152.43 239.254C1154.57 240.098 1156.78 240.865 1159.05 241.543L1148.66 259.54C1145.5 258.602 1142.41 257.54 1139.4 256.359L1152.43 239.254ZM1159.86 241.781C1166.88 243.804 1174.49 245.006 1182.45 245.225L1181.56 264.636C1170.4 264.349 1159.58 262.69 1149.48 259.777L1159.86 241.781ZM1183.33 245.248C1183.91 245.258 1184.49 245.265 1185.08 245.265C1192.78 245.265 1200.19 244.339 1207.09 242.637L1216.17 260.983C1206.31 263.416 1195.83 264.683 1185.08 264.683C1184.2 264.683 1183.32 264.674 1182.44 264.656L1183.33 245.248ZM1207.92 242.429C1211.32 241.554 1214.6 240.49 1217.72 239.254L1230.76 256.36C1226.34 258.094 1221.75 259.571 1217 260.776L1207.92 242.429ZM1252.07 244.928C1251.45 245.372 1250.82 245.807 1250.18 246.238L1231.51 232.051C1237.55 227.961 1242.54 223.081 1246.14 217.649L1270.96 225.805C1266.34 232.822 1259.99 239.288 1252.07 244.928ZM1271.32 225.238L1246.51 217.083C1250.04 211.568 1252.14 205.498 1252.48 199.111L1279.75 199.742C1279.3 208.675 1276.41 217.303 1271.32 225.238ZM1279.82 197.24C1279.82 197.868 1279.81 198.493 1279.78 199.119L1252.52 198.488C1252.53 198.073 1252.54 197.657 1252.54 197.24C1252.54 191.52 1251.13 186.032 1248.54 180.941L1274.18 174.221C1277.88 181.502 1279.82 189.265 1279.82 197.24ZM1254.51 151.354C1263.06 157.901 1269.59 165.456 1273.88 173.633L1248.23 180.355C1245.13 174.49 1240.45 169.169 1234.58 164.649L1254.51 151.354ZM1252.07 149.551C1252.69 149.994 1253.3 150.443 1253.91 150.897L1233.98 164.19C1227.58 159.393 1219.81 155.534 1211.11 152.936L1221.5 134.938C1232.79 138.285 1243.16 143.208 1252.07 149.551ZM1188.6 129.842C1199.76 130.13 1210.58 131.789 1220.68 134.702L1210.3 152.699C1203.27 150.676 1195.67 149.474 1187.71 149.255L1188.6 129.842ZM1185.08 129.798C1185.96 129.798 1186.84 129.807 1187.72 129.824L1186.83 149.232C1186.25 149.221 1185.67 149.216 1185.08 149.216C1177.38 149.216 1169.97 150.143 1163.07 151.843L1153.99 133.497C1163.85 131.064 1174.33 129.798 1185.08 129.798ZM1153.16 133.704L1162.24 152.051C1153.65 154.258 1145.87 157.67 1139.3 162.002L1120.62 147.812C1130.15 141.506 1141.19 136.743 1153.16 133.704ZM1118.09 149.551C1118.71 149.107 1119.35 148.671 1119.98 148.24L1138.66 162.427C1132.61 166.518 1127.62 171.398 1124.02 176.831L1099.21 168.675C1103.82 161.658 1110.17 155.192 1118.09 149.551ZM1098.84 169.242L1123.65 177.397C1120.12 182.912 1118.02 188.983 1117.68 195.368L1090.41 194.737C1090.86 185.806 1093.75 177.178 1098.84 169.242ZM1090.34 197.24C1090.34 196.613 1090.35 195.986 1090.38 195.362L1117.64 195.993C1117.63 196.407 1117.62 196.823 1117.62 197.24C1117.62 202.96 1119.03 208.448 1121.62 213.54L1095.98 220.261C1092.27 212.978 1090.34 205.215 1090.34 197.24ZM1115.65 243.126C1107.1 236.579 1100.56 229.024 1096.28 220.847L1121.93 214.124C1125.03 219.989 1129.7 225.311 1135.58 229.83L1115.65 243.126ZM1118.09 244.928C1117.47 244.484 1116.85 244.035 1116.25 243.581L1136.18 230.288C1140.51 233.533 1145.47 236.346 1150.91 238.633L1137.87 255.745C1130.73 252.812 1124.08 249.191 1118.09 244.928ZM1138.14 258.009C1141.24 259.224 1144.41 260.313 1147.66 261.277L1144.34 267.046C1143.58 266.875 1142.78 266.783 1141.94 266.783C1137.58 266.783 1134.04 269.302 1134.04 272.409C1134.04 275.516 1137.58 278.034 1141.94 278.034C1146.31 278.034 1149.85 275.516 1149.85 272.409C1149.85 270.116 1147.92 268.146 1145.16 267.27L1148.48 261.515C1158.87 264.513 1170 266.218 1181.48 266.514L1181.21 272.413C1176.93 272.482 1173.49 274.972 1173.49 278.034C1173.49 281.141 1177.03 283.66 1181.39 283.66C1185.75 283.66 1189.29 281.141 1189.29 278.034C1189.29 275.094 1186.12 272.683 1182.08 272.432L1182.35 266.532C1183.26 266.55 1184.17 266.559 1185.08 266.559C1196.13 266.559 1206.91 265.257 1217.05 262.754L1219.89 268.489C1217.2 269.386 1215.34 271.33 1215.34 273.584C1215.34 276.69 1218.88 279.209 1223.24 279.209C1227.6 279.209 1231.14 276.69 1231.14 273.584C1231.14 270.477 1227.6 267.958 1223.24 267.958C1222.35 267.958 1221.5 268.063 1220.71 268.256L1217.88 262.547C1222.75 261.308 1227.48 259.792 1232.02 258.01L1269.2 306.799H1100.96L1138.14 258.009Z" fill="url(#paint3_linear_2687_521)"/>
<path d="M1415.57 170.493C1415.57 169.626 1414.74 168.922 1413.72 168.922C1412.7 168.922 1411.87 169.626 1411.87 170.493C1411.87 171.362 1412.7 172.065 1413.72 172.065C1414.74 172.066 1415.57 171.362 1415.57 170.493Z" fill="url(#paint4_linear_2687_521)"/>
<path d="M1617.63 361.579L1606.13 306.798H1582.6V261.341H1585.51V257.228H1574.09V239.522H1572.69V257.228H1564.8V242.723H1563.41V257.228H1515.82V261.341H1519.07V353.573H1464.74V312.26H1433.8V210.738H1436.62V205.757H1430.45V199.381H1423.33V196.984V189.694V183.369H1414.75V172.066H1413.72H1412.69V183.369H1408.06L1405.26 189.694H1386.54V199.381H1337.53V205.757H1331.35V210.738H1334.18V276.792H1293.17V341.693L1247.67 327.34V264.346H1255.01V259.718H1242.09V247.155H1186.79V259.718H1168.72V247.155H1159.43V259.718H1150.15V247.155H1139.93V259.718H1118.57V264.346H1121.82V351.659H1101.08V350.743H1097.32V325.862H1101.08V323.866H1097.32V298.984H1101.08V296.989H1097.32V272.107H1101.08V270.112H1097.32V245.23H1101.08V243.234H1097.32V218.353H1101.08V216.357H1097.32V190.606H1103.76V188.604H1107.03V183.145H1045.94V177.074H1047.92V175.32H1014.66V177.074H1016.65V183.145H1001.51V188.604H1004.78V190.606H1011.22V216.357H1007.46V218.353H1011.22V243.234H1007.46V245.23H1011.22V270.112H1007.46V272.107H1011.22V296.989H1007.46V298.984H1011.22V323.866H1007.46V325.862H1011.22V350.743H1007.46V352.739H1011.22V373.072H990.367V294.502H906.468V351.659H892.847V173.606H882.767V178.189L864.171 181.427V178.451H854.092V183.183L835.496 186.42V183.007H825.418V188.175L806.82 191.413V188.598H796.743V193.168L778.147 196.406V193.98H768.069V368.832H753.891V275.614H701.376V332.937H647.539V284.054H640.907V268.001H644.844V266.389H627.423V261.341H625.564V266.389H619.992V240.478H618.599V266.389H611.342V268.001H615.611V284.054H580.08V321.344H545.49L527.424 368.832H491.177V213.781H443.186V208.226H445.912V206.278H409.563V208.226H412.421V213.781V222.714V328.904H389.792V288.782H397.835V285.15H340.895V260.911H330.034V255.931H305.789V260.911H286.059V347.46H221.338V283.27H166.84V333.97H119.547V366.409H85.4468V325.628H40.6025V360.397H0V385.009H40.6025H54.3243H76.74H85.4468H119.547H166.84H182.733H191.242H221.338H286.059H305.789H330.034H340.895H383.373H389.792H412.421H450.37H469.065H491.177H580.08H600.612H635.271H647.539H702.295H717.007H768.069H773.108H778.147H796.743H806.82H825.418H833.842H835.496H854.092H864.171H880.157H882.767H887.806H892.847H906.468H975.815H985.721H990.367H1011.22H1047.92H1081.53H1097.32H1121.82H1182.66H1247H1247.67H1293.17H1318.61H1334.18H1344.01H1420.16H1433.8H1450.1H1464.74H1519.07H1559.47H1567.74H1582.6H1673V361.579H1617.63Z" fill="url(#paint5_linear_2687_521)"/>
<defs>
<linearGradient id="paint0_linear_2687_521" x1="301.934" y1="96.7693" x2="301.934" y2="309.712" gradientUnits="userSpaceOnUse">
<stop stop-color="#900B40"/>
<stop offset="1" stop-color="#2A0313" stop-opacity="0"/>
</linearGradient>
<linearGradient id="paint1_linear_2687_521" x1="266.514" y1="93.6248" x2="266.514" y2="96.7694" gradientUnits="userSpaceOnUse">
<stop stop-color="#900B40"/>
<stop offset="1" stop-color="#2A0313" stop-opacity="0"/>
</linearGradient>
<linearGradient id="paint2_linear_2687_521" x1="852.801" y1="0" x2="852.801" y2="346.195" gradientUnits="userSpaceOnUse">
<stop stop-color="#900B40"/>
<stop offset="1" stop-color="#2A0313" stop-opacity="0"/>
</linearGradient>
<linearGradient id="paint3_linear_2687_521" x1="835.881" y1="60.8215" x2="835.881" y2="385.008" gradientUnits="userSpaceOnUse">
<stop stop-color="#900B40"/>
<stop offset="1" stop-color="#2A0313" stop-opacity="0"/>
</linearGradient>
<linearGradient id="paint4_linear_2687_521" x1="1413.72" y1="168.922" x2="1413.72" y2="172.065" gradientUnits="userSpaceOnUse">
<stop stop-color="#900B40"/>
<stop offset="1" stop-color="#2A0313" stop-opacity="0"/>
</linearGradient>
<linearGradient id="paint5_linear_2687_521" x1="836.5" y1="172.066" x2="836.5" y2="385.009" gradientUnits="userSpaceOnUse">
<stop stop-color="#900B40"/>
<stop offset="1" stop-color="#2A0313" stop-opacity="0"/>
</linearGradient>
</defs>
</svg>
