<svg width="87" height="86" viewBox="0 0 87 86" fill="none" xmlns="http://www.w3.org/2000/svg">
<g clip-path="url(#clip0_2579_659)">
<mask id="mask0_2579_659" style="mask-type:luminance" maskUnits="userSpaceOnUse" x="0" y="0" width="87" height="86">
<path d="M0.5 0H86.5V86H0.5V0Z" fill="white"/>
</mask>
<g mask="url(#mask0_2579_659)">
<path d="M55.6698 46.3018L51.688 46.1378C51.9769 39.1193 48.8337 37.2125 41.2393 32.6057C39.5627 31.5885 37.6623 30.4357 35.6104 29.0994C23.4678 21.1917 27.5335 9.82993 29.7176 3.72602C29.7927 3.51639 29.866 3.31135 29.9372 3.11112L33.6927 4.44465C33.6205 4.64785 33.5461 4.85599 33.47 5.06871C31.28 11.1886 28.2809 19.5702 37.7854 25.76C39.7838 27.0613 41.6552 28.1966 43.3063 29.1982C50.9837 33.8555 56.0557 36.9324 55.6698 46.3018Z" fill="white"/>
<path d="M50.615 76.6091L46.7671 75.5715C46.7739 75.5459 47.5541 72.5465 47.3338 68.5521C47.0462 63.3387 45.2731 58.9476 42.0639 55.5009C33.257 46.0419 33.2658 33.4254 34.0547 26.7467L38.0124 27.2143C37.3043 33.2086 37.268 44.5012 44.9807 52.7852C48.8199 56.9085 51.0122 62.3354 51.3207 68.4793C51.5515 73.0737 50.6534 76.4669 50.615 76.6091Z" fill="white"/>
<path d="M42.7483 13.1715C40.9412 13.1748 39.4737 14.6476 39.477 16.4547C39.4803 18.2617 40.9532 19.7292 42.7603 19.7259C44.5674 19.7226 46.0349 18.2497 46.0316 16.4427C46.0283 14.6357 44.5554 13.1681 42.7483 13.1715ZM42.7676 23.7112C38.763 23.7185 35.499 20.4666 35.4917 16.4619C35.4844 12.4574 38.7365 9.19351 42.7411 9.18618C46.7457 9.17887 50.0095 12.4308 50.0168 16.4354C50.0242 20.44 46.7722 23.7038 42.7676 23.7112Z" fill="white"/>
<path d="M37.27 41.3035L36.9141 37.3341L37.092 39.3188L36.9048 37.335C36.9519 37.3303 41.6513 36.8219 44.4859 32.9568L47.6996 35.3137C43.7766 40.6628 37.5338 41.2798 37.27 41.3035Z" fill="white"/>
<path d="M28.3045 51.7003C28.8949 51.6983 29.3048 51.3734 29.3171 50.8977C29.3297 50.4045 28.8945 50.0375 28.2986 50.0386C27.7051 50.0397 27.2692 50.4117 27.2843 50.9042C27.2988 51.3753 27.7177 51.7022 28.3045 51.7003ZM29.321 48.4694C29.3207 48.2794 29.3203 48.0785 29.3199 47.8776C29.3179 46.691 29.3177 45.5044 29.3128 44.3179C29.3112 43.9117 29.4174 43.5562 29.8142 43.3799C30.182 43.2165 30.5094 43.336 30.8149 43.5813C31.485 44.1192 32.1707 44.6377 32.8406 45.176C33.3379 45.5758 33.428 46.0132 33.1232 46.4199C32.8183 46.8267 32.3117 46.8429 31.8058 46.4592C31.5741 46.2835 31.3458 46.1033 31.0276 45.8566C31.0111 46.1026 30.9896 46.2742 30.9896 46.4458C30.989 47.8387 30.9871 49.2317 30.9959 50.6245C31.0116 53.1002 28.6695 53.7501 27.1284 53.1094C26.0899 52.6776 25.46 51.5892 25.6343 50.5443C25.8258 49.397 26.8816 48.4556 28.0768 48.4007C28.4664 48.3828 28.8595 48.4415 29.321 48.4694Z" fill="white"/>
<path d="M55.5128 32.9942C55.5008 32.5257 55.0359 32.1717 54.4487 32.1841C53.8869 32.1959 53.4466 32.5534 53.4402 33.0029C53.4336 33.4651 53.9073 33.8494 54.4818 33.8479C55.0578 33.8464 55.5247 33.4598 55.5128 32.9942ZM55.5131 30.5496C55.5108 29.2812 55.5154 27.9431 55.5018 26.6052C55.4974 26.1744 55.5125 25.758 55.947 25.5347C56.4012 25.3013 56.763 25.5289 57.1152 25.8145C57.7557 26.3339 58.4175 26.827 59.058 27.3464C59.5093 27.7123 59.5874 28.177 59.2943 28.5607C58.9907 28.9581 58.4978 28.9852 58.0197 28.6246C57.762 28.4303 57.511 28.227 57.1803 27.9676C57.1656 28.2127 57.1477 28.3717 57.1477 28.5308C57.1477 30.0092 57.1631 31.4878 57.1493 32.9661C57.1365 34.3413 56.1948 35.3175 54.77 35.4723C53.3953 35.6217 52.1685 34.8115 51.8607 33.551C51.5171 32.1441 52.5693 30.7205 54.0975 30.5591C54.5339 30.5131 54.9792 30.5506 55.5131 30.5496Z" fill="white"/>
<path d="M55.6318 13.1369C56.6605 12.7481 57.3398 12.0735 57.7314 11.0343C58.1713 12.0285 58.8197 12.7555 59.8845 13.117C58.8767 13.5466 58.1376 14.1834 57.7659 15.2534C57.355 14.2248 56.6762 13.5288 55.6318 13.1369Z" fill="white"/>
<path d="M19.019 7.10908C20.0477 6.72028 20.727 6.04563 21.1186 5.00643C21.5585 6.00063 22.2069 6.72767 23.2717 7.0892C22.2639 7.51877 21.5248 8.15555 21.1531 9.22559C20.7422 8.19696 20.0634 7.50101 19.019 7.10908Z" fill="white"/>
<path d="M37.7854 25.7598C36.4862 24.9136 35.4277 24.0255 34.5617 23.1087L34.5535 23.1087C34.3486 23.7261 33.9441 27.7923 33.9336 27.8974C34.4579 28.305 35.009 28.7075 35.6104 29.0994C36.3482 29.5798 37.0581 30.0288 37.7534 30.4641C37.7885 29.1022 38.1442 25.9926 38.1442 25.9926L38.1454 25.9909C38.0244 25.9126 37.9075 25.8393 37.7854 25.7598Z" fill="white"/>
<path d="M46.0084 30.8551C45.3251 32.1627 43.572 34.0303 43.572 34.0303L43.5718 34.0316C44.8508 34.8242 45.9713 35.5516 46.9346 36.2632L46.9386 36.2621C48.0832 34.8554 49.3085 33.1053 49.319 33.0905C48.3106 32.3373 47.2036 31.6048 46.0084 30.8551Z" fill="white"/>
<path d="M47.8444 82.8889L44.5151 80.6984C47.5475 76.0895 51.3422 60.9314 51.3296 54.0473L55.0106 54.1979C55.0234 61.2066 51.5563 77.2472 47.8444 82.8889Z" fill="white"/>
<path d="M41.5236 54.065L41.48 54.8469C41.6718 55.0659 41.8631 55.2851 42.064 55.5009C45.2732 58.9477 47.0462 63.3387 47.3339 68.5521C47.5542 72.5465 46.774 75.5458 46.7673 75.5715L50.6151 76.6091C50.6534 76.467 51.5515 73.0738 51.3207 68.4794C51.0122 62.3354 48.8199 56.9084 44.9808 52.7852C44.1759 51.9207 43.4599 51.022 42.8159 50.1015L41.5236 54.065Z" fill="white"/>
<path d="M36.0265 77.3069L32.8306 74.9261C39.4601 66.0268 39.6922 51.8115 39.6938 51.6689L43.6789 51.709C43.6727 52.3431 43.4422 67.3524 36.0265 77.3069Z" fill="white"/>
<path d="M43.6783 51.2674L43.6787 51.2657C42.0358 49.1874 40.8214 46.9633 39.9318 44.7093L39.9268 44.7062C39.9268 46.6716 39.6666 52.4155 39.6606 52.5455C40.3788 53.5563 41.1744 54.5454 42.0642 55.5011C42.4946 55.9633 42.897 56.4439 43.2756 56.9397L43.2777 56.9385C43.7376 52.7108 43.6783 51.2674 43.6783 51.2674Z" fill="white"/>
<path d="M50.9612 75.7395C52.3058 70.744 50.815 63.4342 50.3488 62.4381C50.3504 63.3488 50.3488 62.4366 50.3488 62.4366C49.0245 69.4415 46.4918 77.5153 44.4155 80.6711L47.8443 82.8889C48.9317 81.2362 49.9971 78.6881 50.9612 75.7395Z" fill="white"/>
<path d="M45.5643 72.1591C45.6513 71.1549 45.6964 69.9529 45.6235 68.6335C45.5658 67.5843 45.4276 66.5799 45.2405 65.604C44.665 65.6462 44.0858 65.6751 43.4998 65.6751C43.3824 65.6751 43.2668 65.6679 43.1499 65.6662C42.5583 67.7981 41.8051 69.9826 40.8447 72.1141C41.7204 72.191 42.6045 72.2378 43.4998 72.2378C44.1944 72.2378 44.8813 72.2056 45.5643 72.1591Z" fill="white"/>
<path d="M42.6826 14.8028H42.6794C41.7773 14.8044 41.0443 15.5398 41.0459 16.4422C41.0467 16.878 41.2181 17.2882 41.5282 17.5974C41.8382 17.9059 42.2476 18.0757 42.6826 18.0757H42.685C43.1208 18.0749 43.5318 17.9035 43.841 17.593C44.1502 17.2826 44.32 16.8716 44.3192 16.4358C44.3184 16.0004 44.147 15.5902 43.837 15.281C43.5269 14.9726 43.1176 14.8028 42.6826 14.8028Z" fill="white"/>
<path d="M32.7992 13.9322C32.6655 16.128 33.0554 18.2998 34.3959 20.3557C34.4791 20.3208 34.5644 20.2901 34.648 20.2561C34.0879 19.0816 33.7815 17.7931 33.7792 16.455C33.7773 15.3789 33.9771 14.3511 34.3267 13.3947C33.811 13.5599 33.3024 13.7404 32.7992 13.9322Z" fill="white"/>
<path d="M50.8335 12.8692C51.3124 13.9584 51.5833 15.159 51.5856 16.423C51.588 17.5772 51.3672 18.6972 50.9509 19.7388C60.3088 22.8652 67.0751 31.7047 67.0751 42.1003C67.0751 50.5977 62.5551 58.0576 55.7941 62.2067C55.3813 64.7815 54.8217 67.5618 54.1505 70.2881C65.5268 65.9753 73.6378 54.9696 73.6378 42.1003C73.6378 28.0115 63.9185 16.1533 50.8335 12.8692Z" fill="white"/>
<path d="M35.9302 64.4211C26.6345 61.2598 19.9255 52.4518 19.9255 42.1003C19.9255 34.9364 23.1416 28.5131 28.201 24.1857C26.86 22.0771 26.1167 19.8945 25.7868 17.7393C18.2642 23.2244 13.3628 32.0986 13.3628 42.1003C13.3628 55.2279 21.8027 66.4152 33.5388 70.5383C34.5484 68.5692 35.3268 66.4739 35.9302 64.4211Z" fill="white"/>
<path d="M47.8652 24.1979C48.8939 23.8091 49.5732 23.1345 49.9648 22.0953C50.4047 23.0895 51.0531 23.8165 52.1179 24.1781C51.1101 24.6076 50.371 25.2444 49.9993 26.3145C49.5884 25.2858 48.9096 24.5899 47.8652 24.1979Z" fill="white"/>
<path d="M54.4766 49.8862C55.5053 49.4974 56.1845 48.8227 56.5762 47.7835C57.0161 48.7777 57.6644 49.5048 58.7292 49.8663C57.7214 50.2958 56.9824 50.9326 56.6106 52.0027C56.1997 50.974 55.521 50.2781 54.4766 49.8862Z" fill="white"/>
<path d="M32.5215 59.4294C33.5502 59.0406 34.2294 58.3659 34.6211 57.3267C35.061 58.3209 35.7094 59.048 36.7741 59.4095C35.7663 59.8391 35.0273 60.4758 34.6556 61.5459C34.2446 60.5173 33.5659 59.8213 32.5215 59.4294Z" fill="white"/>
<path d="M21.9886 59.5165C22.0278 59.5101 22.0599 59.5093 22.0879 59.5158C22.1151 59.5222 22.1416 59.539 22.1656 59.5654C22.1864 59.5895 22.2024 59.6223 22.2113 59.6623C22.2209 59.7032 22.2313 59.7489 22.2433 59.8009C22.2553 59.8522 22.2746 59.9067 22.2986 59.9652C22.3226 60.0228 22.3603 60.0805 22.4116 60.1382C22.4989 60.2368 22.5846 60.2912 22.6703 60.3024C22.7536 60.3137 22.8321 60.2872 22.9042 60.2231C22.9507 60.1831 22.9755 60.135 22.9803 60.0797C22.9835 60.0236 22.9763 59.962 22.9555 59.8955C22.9355 59.829 22.9074 59.7577 22.8722 59.6808C22.8369 59.6031 22.8025 59.5237 22.768 59.4404C22.7344 59.3571 22.7056 59.2722 22.6823 59.1841C22.6591 59.0968 22.6487 59.0094 22.6535 58.9197C22.6583 58.8316 22.6815 58.7427 22.7224 58.6538C22.7632 58.5656 22.8313 58.4791 22.9267 58.3958C23.0316 58.3029 23.1454 58.234 23.2687 58.1891C23.3929 58.145 23.5195 58.1266 23.6477 58.1362C23.7775 58.145 23.9072 58.1827 24.0354 58.2492C24.1652 58.3157 24.2853 58.4134 24.3999 58.5424C24.4616 58.6129 24.5193 58.6914 24.569 58.7771C24.6194 58.8636 24.6611 58.9526 24.6955 59.0447C24.7308 59.1376 24.7564 59.2289 24.7732 59.3219C24.7901 59.4148 24.7956 59.5021 24.7909 59.587L24.4071 59.6487C24.3783 59.6519 24.3486 59.6487 24.319 59.6391C24.2886 59.6295 24.2629 59.6127 24.2421 59.5895C24.2148 59.5582 24.1964 59.5181 24.1884 59.4685C24.1804 59.4196 24.17 59.3643 24.158 59.3026C24.1476 59.2418 24.1275 59.1761 24.1019 59.1072C24.0755 59.0375 24.0306 58.9678 23.9689 58.8973C23.884 58.8012 23.7967 58.7459 23.7077 58.7307C23.6188 58.7146 23.5283 58.7467 23.437 58.8276C23.3849 58.8749 23.3545 58.9277 23.3464 58.987C23.3392 59.0447 23.3456 59.1072 23.3649 59.1745C23.3857 59.241 23.4137 59.3115 23.4506 59.3868C23.4874 59.4613 23.5243 59.5398 23.5596 59.6207C23.5956 59.7024 23.6252 59.7857 23.6493 59.8722C23.6733 59.9588 23.6813 60.0477 23.6749 60.1374C23.6685 60.2271 23.6421 60.3185 23.5964 60.4122C23.5499 60.5051 23.473 60.5989 23.3673 60.6926C23.2824 60.7671 23.1838 60.8248 23.0725 60.8616C22.9619 60.8993 22.8442 60.9129 22.7224 60.9033C22.5998 60.8928 22.4772 60.856 22.3531 60.7927C22.2297 60.7294 22.1127 60.6357 22.0022 60.5115C21.9413 60.4418 21.886 60.3689 21.8388 60.2936C21.7915 60.2175 21.7514 60.1406 21.721 60.0629C21.6889 59.9844 21.6657 59.9067 21.6497 59.829C21.6337 59.7513 21.6265 59.676 21.6289 59.6023L21.9886 59.5165Z" fill="black"/>
<path d="M21.8451 59.7617C21.8467 59.7697 21.8483 59.7785 21.8507 59.7873C21.8644 59.853 21.8836 59.9187 21.9108 59.9852C21.9381 60.0549 21.9725 60.1206 22.0126 60.1855C22.0542 60.2512 22.1031 60.3153 22.1568 60.3769C22.2481 60.4795 22.3466 60.5588 22.4468 60.6101C22.5477 60.6613 22.6438 60.691 22.74 60.699C22.8353 60.707 22.9234 60.6958 23.0059 60.6677C23.0909 60.6397 23.1662 60.5965 23.2319 60.5388C23.3176 60.4627 23.3785 60.389 23.4129 60.3209C23.4466 60.252 23.4658 60.1847 23.4706 60.123C23.4754 60.0549 23.469 59.9892 23.4514 59.9275C23.4305 59.8498 23.4041 59.7761 23.372 59.7032C23.3376 59.6247 23.3024 59.5494 23.2671 59.4773C23.2246 59.3916 23.1926 59.3115 23.1694 59.2362C23.1405 59.1368 23.1325 59.0463 23.1429 58.9614C23.1573 58.8516 23.2102 58.7563 23.2992 58.6754C23.4754 58.5192 23.6388 58.5112 23.7438 58.5288C23.8783 58.552 24.0065 58.6305 24.1227 58.7619C24.2028 58.8532 24.2589 58.9422 24.2933 59.0343C24.3246 59.1176 24.3478 59.1961 24.3598 59.2682C24.3718 59.3275 24.3822 59.3844 24.3911 59.4356L24.5793 59.4092C24.5769 59.3924 24.5745 59.3756 24.5713 59.3587C24.5569 59.2778 24.5345 59.1985 24.504 59.1176C24.4728 59.0351 24.4359 58.9566 24.3919 58.8805C24.3486 58.806 24.2989 58.7387 24.2453 58.6778C24.1467 58.5664 24.0474 58.4855 23.9416 58.4319C23.8383 58.3782 23.735 58.3477 23.634 58.3405C23.5323 58.3365 23.4353 58.3469 23.3376 58.3822C23.2391 58.4182 23.1493 58.4727 23.0628 58.5496C22.9891 58.6137 22.9371 58.6778 22.9082 58.7403C22.8786 58.8052 22.8617 58.8693 22.8585 58.9309C22.8545 58.9966 22.8617 59.0615 22.8802 59.1312C22.9018 59.2113 22.9274 59.2882 22.9579 59.3635C22.9907 59.4428 23.0244 59.5206 23.0588 59.5959C23.0981 59.6816 23.1293 59.7617 23.1518 59.8362C23.1782 59.9211 23.1902 60.0076 23.1854 60.0918C23.175 60.2071 23.1245 60.3041 23.038 60.3786C22.9226 60.4803 22.7832 60.5195 22.643 60.5059C22.5085 60.4883 22.3787 60.4098 22.2577 60.2744C22.192 60.1999 22.1416 60.1222 22.1095 60.0437C22.0807 59.974 22.0582 59.9083 22.0438 59.8474L22.0142 59.7208L21.8451 59.7617ZM22.7976 61.1116C22.7672 61.1116 22.7368 61.11 22.7063 61.1076C22.5573 61.0947 22.4075 61.0507 22.2601 60.9754C22.1143 60.9009 21.9757 60.7903 21.8491 60.6477C21.7795 60.5684 21.7178 60.4867 21.6649 60.4026C21.6104 60.3145 21.5648 60.2263 21.5303 60.1374C21.4943 60.0501 21.467 59.9604 21.4486 59.8707C21.4294 59.7761 21.4213 59.684 21.4238 59.5959L21.4294 59.4389L21.9557 59.3139C22.0238 59.3043 22.0815 59.3035 22.1335 59.3155C22.2024 59.3323 22.2657 59.3708 22.317 59.4276C22.3643 59.4813 22.3955 59.5462 22.4115 59.6183L22.4332 59.7104C22.4524 59.7961 22.4684 59.8394 22.4884 59.8875C22.5028 59.9227 22.5293 59.962 22.5645 60.002C22.6374 60.0837 22.6815 60.0974 22.6967 60.099C22.7095 60.1022 22.7304 60.1038 22.768 60.0701C22.7776 60.0341 22.772 59.9964 22.76 59.9572C22.7416 59.8963 22.7167 59.8338 22.6855 59.7665C22.6494 59.6856 22.6142 59.6047 22.5782 59.519C22.5413 59.426 22.5092 59.3331 22.4836 59.2362C22.4548 59.1248 22.4428 59.0183 22.4484 58.9085C22.4548 58.7955 22.4844 58.681 22.5357 58.568C22.5894 58.4527 22.6751 58.3429 22.792 58.2412C22.9146 58.1322 23.0516 58.0497 23.199 57.9961C23.3528 57.9416 23.5074 57.9175 23.6629 57.932C23.8199 57.9424 23.9769 57.988 24.1299 58.0673C24.2805 58.1442 24.4191 58.2556 24.5529 58.4062C24.6242 58.4871 24.6899 58.5769 24.746 58.6746C24.8028 58.7707 24.8493 58.8701 24.8877 58.9726C24.927 59.0767 24.9558 59.1801 24.9751 59.285C24.9943 59.394 25.0015 59.4965 24.9959 59.5983L24.9863 59.7633L24.4399 59.8514C24.3742 59.8594 24.3134 59.853 24.2557 59.8346C24.1916 59.8138 24.1355 59.7777 24.089 59.7264C24.0338 59.6632 24.0001 59.5878 23.9857 59.5013L23.9569 59.3419C23.9473 59.2874 23.9304 59.2346 23.9096 59.1785C23.8928 59.1352 23.8607 59.0856 23.8143 59.0327C23.7638 58.9742 23.7141 58.9397 23.6733 58.9325C23.6332 58.9285 23.5948 58.9606 23.5731 58.9814C23.5459 59.0415 23.5507 59.0775 23.5619 59.1184C23.5787 59.1705 23.6028 59.2314 23.6348 59.2962C23.6725 59.3731 23.7109 59.4549 23.7478 59.539C23.787 59.6287 23.8199 59.7216 23.8471 59.817C23.8768 59.9243 23.888 60.0373 23.8792 60.1518C23.8711 60.2664 23.8383 60.3842 23.7806 60.5019C23.7221 60.6197 23.6292 60.735 23.5034 60.8464C23.3953 60.9409 23.2719 61.0114 23.1365 61.0563C23.03 61.0931 22.9154 61.1116 22.7976 61.1116Z" fill="black"/>
<path d="M18.8825 52.9074C18.7479 52.9739 18.6357 53.0516 18.5452 53.1397C18.4555 53.227 18.3882 53.3232 18.3457 53.4249C18.3041 53.5267 18.2864 53.6356 18.2936 53.7494C18.3 53.8631 18.3337 53.9809 18.3938 54.1019C18.4539 54.2236 18.5276 54.323 18.6141 54.3983C18.7006 54.4736 18.7975 54.5256 18.9049 54.5537C19.0114 54.5825 19.1276 54.5873 19.2526 54.5681C19.3775 54.5505 19.5073 54.508 19.6411 54.4415C19.7773 54.3742 19.8895 54.2965 19.98 54.2092C20.0705 54.1211 20.137 54.0257 20.1786 53.9232C20.2219 53.8207 20.2387 53.7125 20.2315 53.5988C20.2227 53.4834 20.1891 53.3656 20.129 53.2431C20.0681 53.1229 19.996 53.0252 19.9103 52.9499C19.8238 52.8745 19.7276 52.8225 19.6211 52.7944C19.5137 52.7656 19.3976 52.7608 19.2734 52.7792C19.1476 52.7976 19.0178 52.8401 18.8825 52.9074ZM18.5636 52.2617C18.7591 52.1648 18.9586 52.1087 19.162 52.0919C19.3647 52.0766 19.5586 52.0983 19.7453 52.16C19.9303 52.2217 20.1017 52.321 20.2588 52.4596C20.4158 52.5982 20.5456 52.7736 20.6513 52.9851C20.7555 53.1966 20.8163 53.4065 20.8308 53.6164C20.846 53.8247 20.822 54.0225 20.7587 54.2076C20.6946 54.3935 20.5944 54.5625 20.459 54.7139C20.3236 54.8653 20.1578 54.9895 19.9607 55.0872C19.7645 55.1842 19.5642 55.241 19.3615 55.2571C19.1588 55.2731 18.965 55.2498 18.7799 55.1874C18.5941 55.1249 18.4218 55.0247 18.2656 54.8853C18.1078 54.746 17.978 54.5713 17.8731 54.3598C17.7681 54.1483 17.7088 53.9384 17.6944 53.7293C17.68 53.5203 17.7048 53.3232 17.7681 53.1389C17.8314 52.9539 17.9307 52.7856 18.0661 52.6342C18.2015 52.482 18.3681 52.3586 18.5636 52.2617Z" fill="black"/>
<path d="M19.4164 52.9729C19.3803 52.9729 19.3427 52.9762 19.3042 52.9818C19.2001 52.997 19.0887 53.0338 18.9742 53.0907L18.9734 53.0915C18.8604 53.1476 18.7643 53.2133 18.689 53.2862C18.6185 53.3543 18.5672 53.428 18.5351 53.5041C18.5063 53.5754 18.4935 53.6539 18.4983 53.7364C18.5039 53.8229 18.5303 53.9143 18.5776 54.0104C18.6257 54.1081 18.6833 54.1866 18.7491 54.2435C18.8123 54.2988 18.8804 54.3348 18.9573 54.3549C19.0366 54.3757 19.1256 54.3805 19.2217 54.3653C19.3267 54.3509 19.4364 54.3148 19.5502 54.2579C19.6647 54.201 19.7617 54.1354 19.8377 54.0617C19.9075 53.9936 19.9587 53.9215 19.9892 53.8462C20.0204 53.7717 20.0324 53.6955 20.0276 53.6114C20.0204 53.5241 19.994 53.432 19.9451 53.3334C19.8962 53.2365 19.8402 53.1612 19.7753 53.1035C19.7128 53.0491 19.6447 53.0122 19.5694 52.993C19.5213 52.9794 19.4701 52.9729 19.4164 52.9729ZM19.108 54.7843C19.019 54.7843 18.9333 54.7739 18.8516 54.7514C18.7162 54.7162 18.5904 54.6489 18.4799 54.5527C18.3733 54.4598 18.282 54.3388 18.2099 54.1922C18.1378 54.0472 18.0969 53.9014 18.0889 53.7604C18.0801 53.6178 18.1025 53.4776 18.1562 53.3471C18.2099 53.2181 18.2924 53.0995 18.4022 52.993C18.5087 52.8888 18.6393 52.7991 18.7915 52.7238C18.9453 52.6469 19.0975 52.598 19.2441 52.5764C19.3955 52.5532 19.5413 52.5596 19.6743 52.5964C19.8097 52.6317 19.9347 52.699 20.0452 52.7951C20.151 52.888 20.2383 53.0042 20.312 53.15C20.3841 53.2966 20.4258 53.4416 20.4362 53.5826C20.4458 53.7324 20.4226 53.8726 20.3681 54.0032C20.3168 54.1281 20.2343 54.2483 20.1237 54.3557C20.0156 54.4598 19.885 54.5503 19.732 54.6256C19.579 54.7017 19.4276 54.7506 19.2818 54.7706C19.2225 54.7803 19.1648 54.7843 19.108 54.7843ZM19.2866 52.292C19.2513 52.292 19.2145 52.2936 19.1776 52.296C19.0014 52.3104 18.8251 52.3609 18.6553 52.445C18.4815 52.5315 18.3349 52.6405 18.2195 52.7703C18.1033 52.9008 18.0168 53.0474 17.9623 53.2053C17.9079 53.3631 17.8871 53.5345 17.8991 53.7148C17.9119 53.8966 17.9648 54.0825 18.0569 54.2683C18.1514 54.4582 18.2644 54.6096 18.4014 54.7314C18.5359 54.8508 18.685 54.9389 18.846 54.9925C19.0038 55.0454 19.1736 55.063 19.3459 55.0526C19.5213 55.0382 19.6976 54.9886 19.8706 54.9028C20.0428 54.8179 20.1894 54.7081 20.3064 54.5768C20.4234 54.4462 20.5107 54.2996 20.5652 54.141C20.6188 53.9831 20.6397 53.8117 20.6268 53.6315C20.614 53.4512 20.5612 53.2646 20.4674 53.0755C20.3721 52.8848 20.2599 52.7334 20.1237 52.6133C19.9892 52.4947 19.8402 52.4074 19.6807 52.3545C19.555 52.3128 19.4252 52.292 19.2866 52.292ZM19.2401 55.4668C19.0591 55.4668 18.8828 55.438 18.7146 55.3819C18.5015 55.3098 18.3044 55.1944 18.1298 55.0382C17.9543 54.8836 17.8061 54.6857 17.69 54.451C17.5738 54.2171 17.5065 53.9784 17.4905 53.7436C17.4737 53.5081 17.5025 53.2822 17.5746 53.0723C17.6467 52.8624 17.7605 52.6685 17.9135 52.4971C18.0633 52.3289 18.2524 52.1871 18.4727 52.0781C18.6898 51.9708 18.9157 51.9067 19.1456 51.8874C19.3771 51.8706 19.6014 51.8962 19.8097 51.9652C20.022 52.0357 20.2191 52.1502 20.3945 52.3056C20.5692 52.4594 20.7166 52.6573 20.8351 52.8936C20.9521 53.1316 21.0194 53.3695 21.0354 53.6018C21.053 53.8374 21.025 54.0633 20.9529 54.274C20.88 54.4855 20.7654 54.6793 20.6124 54.8508C20.4602 55.0206 20.272 55.1616 20.0524 55.2705C19.833 55.3795 19.6062 55.4436 19.3779 55.4612C19.3314 55.4652 19.2858 55.4668 19.2401 55.4668Z" fill="black"/>
<path d="M17.4881 45.6902C17.4857 45.6734 17.4857 45.6565 17.4889 45.6397C17.4913 45.6213 17.4985 45.6037 17.5113 45.586L17.7484 45.2568C17.9263 45.3473 18.0745 45.4747 18.1882 45.6405C18.3028 45.8056 18.3829 46.0122 18.4294 46.259C18.4726 46.4849 18.4726 46.6948 18.4302 46.8895C18.3861 47.0833 18.3092 47.2556 18.1978 47.4062C18.0857 47.5568 17.9431 47.6833 17.7693 47.7851C17.5962 47.8868 17.4007 47.9589 17.1828 48.0006C16.9601 48.0431 16.7494 48.0462 16.5492 48.0094C16.3497 47.9725 16.1694 47.9013 16.0092 47.7955C15.8498 47.6906 15.7152 47.5544 15.6046 47.3853C15.4957 47.2171 15.4196 47.0232 15.3779 46.8037C15.3563 46.6924 15.3467 46.585 15.3467 46.4817C15.3483 46.3791 15.3579 46.2814 15.3763 46.1893C15.3948 46.0972 15.422 46.0098 15.4572 45.9281C15.4917 45.8464 15.5333 45.7727 15.5798 45.7062L15.9379 45.8793C15.9587 45.8905 15.9796 45.9049 15.9996 45.9225C16.0196 45.9401 16.0324 45.9674 16.0389 46.0034C16.0445 46.0283 16.0436 46.0531 16.0356 46.0763C16.03 46.1004 16.0204 46.126 16.01 46.1532C15.9988 46.1813 15.9868 46.2109 15.9731 46.2446C15.9611 46.2766 15.9507 46.3151 15.9427 46.3583C15.9347 46.4016 15.9299 46.4512 15.9291 46.5073C15.9291 46.5634 15.9363 46.6275 15.9491 46.6996C15.9716 46.8134 16.0124 46.9143 16.0725 47.0008C16.1326 47.0873 16.2103 47.1578 16.304 47.2115C16.3985 47.2652 16.5083 47.2988 16.6333 47.314C16.7582 47.3293 16.8968 47.3229 17.0483 47.2932C17.2005 47.2644 17.3318 47.2171 17.4432 47.153C17.5537 47.0889 17.6419 47.0136 17.71 46.9271C17.7781 46.8398 17.8237 46.7444 17.8478 46.6403C17.8718 46.5378 17.8734 46.4312 17.8534 46.3215C17.8406 46.259 17.8269 46.2029 17.8109 46.1516C17.7949 46.1012 17.7757 46.0547 17.7524 46.0122C17.73 45.9706 17.702 45.9313 17.6707 45.8969C17.6395 45.8616 17.601 45.8272 17.5561 45.7935C17.5401 45.7799 17.5257 45.7639 17.5129 45.7463C17.5009 45.7295 17.4921 45.7102 17.4881 45.6902Z" fill="black"/>
<path d="M15.6607 45.9752C15.6559 45.9857 15.6511 45.9969 15.6463 46.0073C15.6158 46.0786 15.5926 46.1523 15.5774 46.2292C15.5614 46.3101 15.5534 46.395 15.5518 46.4848C15.5518 46.5721 15.5606 46.6666 15.579 46.7643C15.6158 46.9566 15.6823 47.1272 15.7769 47.2738C15.8714 47.4188 15.9852 47.5334 16.1222 47.6239C16.2584 47.7145 16.4146 47.7761 16.5868 47.8074C16.7598 47.8386 16.9473 47.8362 17.1444 47.7994C17.3374 47.7617 17.5129 47.6976 17.6651 47.6079C17.8141 47.5214 17.9375 47.4116 18.0336 47.2835C18.1273 47.1561 18.1922 47.0127 18.2299 46.8437C18.2659 46.6786 18.2659 46.4944 18.2283 46.2973C18.1866 46.0786 18.1169 45.8967 18.02 45.7573C17.9599 45.67 17.887 45.5939 17.8037 45.5314L17.714 45.6548C17.7556 45.69 17.7925 45.7253 17.8245 45.7605C17.8654 45.8062 17.903 45.8591 17.9327 45.9152C17.9615 45.9672 17.9864 46.0257 18.0064 46.0898C18.0248 46.1475 18.04 46.21 18.0544 46.2805C18.0801 46.4223 18.0777 46.5577 18.0472 46.6866C18.0168 46.8196 17.9575 46.943 17.8718 47.0527C17.7869 47.1609 17.6771 47.2546 17.5457 47.3299C17.4135 47.4068 17.2589 47.4621 17.0867 47.495C16.9169 47.527 16.7583 47.535 16.6084 47.5174C16.4562 47.4989 16.3192 47.4557 16.2031 47.39C16.0813 47.3203 15.9812 47.229 15.9042 47.1176C15.8282 47.0087 15.7761 46.8813 15.748 46.7395C15.732 46.6498 15.724 46.5737 15.724 46.5072C15.7248 46.4351 15.7312 46.3742 15.7408 46.3205C15.7513 46.2644 15.7657 46.214 15.7809 46.1723L15.8193 46.077C15.8217 46.0706 15.8241 46.0642 15.8265 46.0578L15.6607 45.9752ZM16.8335 48.24C16.7238 48.24 16.6164 48.2304 16.5123 48.2111C16.2856 48.1695 16.0789 48.087 15.8963 47.9668C15.7144 47.8466 15.5582 47.6888 15.4332 47.4974C15.309 47.3059 15.2225 47.0856 15.176 46.842C15.1536 46.7235 15.1416 46.6017 15.1416 46.4815C15.1432 46.363 15.1544 46.2524 15.1752 46.1491C15.1961 46.0441 15.2281 45.9424 15.269 45.8471C15.3066 45.7573 15.3547 45.67 15.4116 45.5883L15.5117 45.4457L16.0268 45.6949C16.0701 45.7173 16.1037 45.7413 16.135 45.7686C16.1903 45.8174 16.2263 45.8839 16.2407 45.9672C16.2527 46.0201 16.2495 46.0842 16.2295 46.1427C16.2279 46.1547 16.2159 46.1899 16.2015 46.226L16.1678 46.3101C16.1566 46.339 16.1502 46.3654 16.1446 46.3958C16.1382 46.4287 16.135 46.4671 16.1342 46.5104C16.1342 46.5528 16.1406 46.6049 16.151 46.6634C16.167 46.7467 16.1983 46.822 16.2407 46.8837C16.2832 46.9446 16.3385 46.9951 16.4058 47.0335C16.4746 47.072 16.5596 47.0984 16.6581 47.1104C16.7638 47.1224 16.8816 47.1168 17.009 47.092C17.1372 47.0672 17.2485 47.0287 17.3406 46.975C17.4272 46.9246 17.4961 46.8677 17.5489 46.8004C17.5978 46.7371 17.6307 46.6698 17.6483 46.5937C17.6651 46.5192 17.6667 46.4399 17.6515 46.3582C17.6411 46.3077 17.629 46.258 17.6154 46.2124C17.6034 46.1763 17.5898 46.1419 17.5722 46.1106C17.5578 46.0834 17.5393 46.057 17.5185 46.0345C17.4961 46.0089 17.4672 45.9833 17.4328 45.9576C17.3951 45.9264 17.3695 45.8983 17.347 45.8671C17.3166 45.8246 17.2966 45.7782 17.287 45.7301L17.2806 45.6853L17.2878 45.6011C17.2926 45.5603 17.3126 45.5106 17.3455 45.4649L17.6851 44.9939L17.8413 45.074C18.052 45.1813 18.2259 45.3328 18.3572 45.5242C18.487 45.7109 18.5792 45.9456 18.6312 46.2212C18.6793 46.4719 18.6785 46.7115 18.6304 46.9334C18.58 47.1569 18.4894 47.3564 18.3629 47.5278C18.2339 47.7016 18.0688 47.8474 17.8726 47.962C17.6803 48.075 17.4608 48.1559 17.2213 48.2015C17.0891 48.2272 16.9593 48.24 16.8335 48.24Z" fill="black"/>
<path d="M18.0285 40.3244L17.9989 41.0317L14.9683 40.906L14.9971 40.1978L18.0285 40.3244Z" fill="black"/>
<path d="M15.1816 40.7097L17.8028 40.8187L17.8156 40.5207L15.1936 40.4109L15.1816 40.7097ZM18.1953 41.2449L14.7554 41.1023L14.801 39.9847L18.2418 40.1281L18.1953 41.2449Z" fill="black"/>
<path d="M17.9614 34.074L17.085 34.1173C17.0289 34.1221 16.9632 34.1261 16.8879 34.1293C16.8118 34.1325 16.7309 34.1341 16.6444 34.1341C16.7205 34.1774 16.7902 34.2198 16.8527 34.2631C16.9159 34.3047 16.9696 34.3432 17.0145 34.3784L17.7323 34.8735L17.9614 34.074ZM19.3826 33.3178L19.2336 33.8425C19.2167 33.9018 19.1895 33.945 19.1519 33.9731C19.1142 34.0019 19.0709 34.0179 19.0229 34.0251L18.4653 34.0516L18.1489 35.1611L18.6079 35.4784C18.6407 35.504 18.6664 35.5392 18.6864 35.5865C18.7056 35.633 18.7072 35.6842 18.6904 35.7403L18.5398 36.269L15.9458 34.3063L16.1437 33.6142L19.3826 33.3178Z" fill="black"/>
<path d="M17.2806 34.3127L17.6139 34.5426L17.6852 34.2927L17.2806 34.3127ZM16.1815 34.2278L18.4246 35.9246L18.4935 35.6842L17.9111 35.246L18.3084 33.8537L19.0134 33.82L19.0967 33.5501L16.3025 33.8056L16.2672 33.929H16.6445C16.7279 33.929 16.8064 33.9274 16.8793 33.9242C16.9514 33.921 17.0138 33.9178 17.0675 33.913L18.2379 33.8553L17.851 35.2044L16.8985 34.5474C16.8472 34.5074 16.7976 34.4721 16.7399 34.4345C16.6782 34.3912 16.6133 34.3528 16.5428 34.3127L16.2111 34.1237L16.1815 34.2278ZM18.6553 36.6135L15.7104 34.3848L15.9852 33.4227L19.6615 33.0862L19.4308 33.8985C19.402 34.0019 19.3491 34.082 19.2746 34.1373C19.2137 34.1845 19.1384 34.215 19.0535 34.2278L18.6225 34.2494L18.3869 35.0762L18.725 35.3093C18.7947 35.3638 18.842 35.4279 18.8756 35.5064C18.9133 35.5985 18.9173 35.6987 18.8868 35.7996L18.6553 36.6135Z" fill="black"/>
<path d="M21.5256 27.7485L22.0095 28.0345L21.0802 29.6086L18.4678 28.0673L18.8259 27.4609L20.9536 28.7162L21.5256 27.7485Z" fill="black"/>
<path d="M18.7489 27.9953L21.008 29.3275L21.7282 28.1066L21.5976 28.0297L21.0257 28.9967L18.8979 27.7421L18.7489 27.9953ZM21.1522 29.8899L18.1865 28.1395L18.7537 27.1797L20.8815 28.4359L21.4534 27.4673L22.2906 27.9624L21.1522 29.8899Z" fill="black"/>
<path d="M55.8718 18.4923L56.0047 17.6191C56.0104 17.563 56.0184 17.4973 56.0312 17.422C56.0424 17.3467 56.0568 17.2674 56.0752 17.1817C56.016 17.2474 55.9615 17.3083 55.907 17.3611C55.8509 17.4148 55.8029 17.4605 55.7604 17.4973L55.1291 18.1078L55.8718 18.4923ZM56.3356 20.0457L55.8477 19.7933C55.7932 19.7645 55.7556 19.7292 55.7356 19.686C55.7155 19.6443 55.7067 19.5978 55.7099 19.5498L55.794 18.9938L54.763 18.4611L54.3577 18.8512C54.3264 18.8792 54.2856 18.8977 54.2367 18.9073C54.1862 18.9169 54.135 18.9081 54.0837 18.8816L53.5918 18.6269L56.0432 16.4575L56.6873 16.7907L56.3356 20.0457Z" fill="black"/>
<path d="M55.4766 18.0567L55.7122 18.1793L55.7747 17.7691L55.4766 18.0567ZM54.7268 18.2113L56.019 18.8794L55.9124 19.5804L56.1648 19.7182L56.4684 16.9087L56.3522 16.8486L56.2753 17.2251C56.2585 17.306 56.2441 17.3813 56.2337 17.4526C56.2217 17.5263 56.2137 17.5872 56.2088 17.6393L56.031 18.8057L54.7813 18.1592L55.6176 17.3501C55.6665 17.3076 55.7114 17.2644 55.765 17.2131C55.8123 17.1674 55.8604 17.1138 55.9117 17.0569L56.18 16.7597L56.0735 16.7044L53.9513 18.5822L54.178 18.7L54.7268 18.2113ZM56.5069 20.3655L55.753 19.9753C55.6561 19.9241 55.588 19.856 55.5495 19.7727C55.5151 19.7014 55.4999 19.6188 55.5055 19.5363L55.5696 19.1085L54.7989 18.7112L54.5001 18.9988C54.436 19.0565 54.3623 19.0917 54.2758 19.1085C54.1812 19.1254 54.0803 19.1117 53.9898 19.0645L53.2319 18.6719L56.0126 16.2109L56.9058 16.6732L56.5069 20.3655Z" fill="black"/>
<path d="M59.4795 20.2645C59.5572 20.3221 59.6301 20.3622 59.6982 20.383C59.7671 20.4047 59.832 20.4111 59.8929 20.4023C59.9538 20.3942 60.0091 20.3726 60.0595 20.3382C60.11 20.3037 60.1556 20.2597 60.1965 20.206C60.2766 20.0994 60.3055 19.9889 60.2806 19.8759C60.2566 19.763 60.1717 19.6516 60.0243 19.5419L59.7967 19.3704L59.252 20.093L59.4795 20.2645ZM59.707 22.4619L59.1959 22.0758C59.1006 22.0045 59.0597 21.9171 59.0726 21.8146L59.2007 20.802C59.2039 20.7572 59.1999 20.7195 59.1871 20.6875C59.1743 20.6562 59.1471 20.6242 59.103 20.5913L58.9588 20.4824L58.2787 21.3844L57.7139 20.9582L59.5508 18.5212L60.3447 19.1189C60.5194 19.2511 60.6572 19.3832 60.7549 19.513C60.851 19.6428 60.9143 19.7702 60.9439 19.8935C60.9736 20.0177 60.9744 20.1371 60.9431 20.2524C60.9119 20.367 60.8574 20.4768 60.7789 20.5801C60.7204 20.6594 60.6523 20.7259 60.5786 20.7804C60.5049 20.8349 60.424 20.8765 60.3383 20.9045C60.2518 20.9334 60.1613 20.9478 60.0651 20.9494C59.969 20.9502 59.8697 20.9358 59.7671 20.9062C59.7903 20.9534 59.8064 21.0031 59.8176 21.0552C59.8288 21.1088 59.832 21.1633 59.8288 21.2226L59.707 22.4619Z" fill="black"/>
<path d="M59.6031 20.1002C59.6623 20.1443 59.7144 20.1731 59.7585 20.1867C59.7985 20.2004 59.837 20.2028 59.8634 20.1995C59.8947 20.1955 59.9195 20.1859 59.9443 20.1691C59.9764 20.1467 60.006 20.1178 60.0333 20.0818C60.0909 20.0057 60.0877 19.9528 60.0805 19.92C60.0669 19.8575 60.0036 19.7822 59.9019 19.7061L59.837 19.6572L59.5398 20.053L59.6031 20.1002ZM59.8394 20.6113C59.7745 20.6113 59.7064 20.6001 59.6367 20.5785C59.5478 20.5512 59.4565 20.5024 59.3571 20.4295L59.3563 20.4279L58.9646 20.1331L59.7569 19.0836L60.1478 19.3784C60.3345 19.517 60.4466 19.67 60.4811 19.8334C60.5187 20.0025 60.4771 20.1747 60.3609 20.3293C60.3056 20.4014 60.244 20.4607 60.1751 20.5072C60.0974 20.5609 60.0116 20.5937 59.9195 20.6057C59.8939 20.6097 59.8666 20.6113 59.8394 20.6113ZM58.9189 20.1948L59.2265 20.4279C59.2994 20.4823 59.3491 20.5416 59.3771 20.6097C59.402 20.6722 59.4108 20.7387 59.4052 20.8164L59.2762 21.8402C59.2746 21.8563 59.2714 21.8763 59.3187 21.9115L59.539 22.0774L59.6247 21.2025C59.6263 21.1681 59.6239 21.132 59.6167 21.0968C59.6087 21.0591 59.5975 21.0263 59.5831 20.9967L59.3788 20.5801L59.8242 20.7091C59.9051 20.7323 59.9836 20.7443 60.0581 20.7443H60.0637C60.139 20.7427 60.2079 20.7315 60.2736 20.7099C60.3401 20.6882 60.401 20.657 60.457 20.6153C60.5171 20.5713 60.57 20.5184 60.6141 20.4583C60.6774 20.375 60.7206 20.2885 60.7454 20.1988C60.7671 20.1186 60.7671 20.0345 60.7447 19.9408C60.7214 19.8455 60.6693 19.7421 60.59 19.6348C60.5051 19.5226 60.3809 19.4033 60.2215 19.2823L59.591 18.808L58.0008 20.9181L58.2388 21.0968L58.9189 20.1948ZM59.8755 22.8464L59.0727 22.2392C58.9197 22.1254 58.8476 21.9652 58.8693 21.789L58.9974 20.7764L58.9958 20.7748L58.3189 21.672L57.4272 20.9983L59.5109 18.2344L60.4683 18.9546C60.6589 19.0988 60.8103 19.2454 60.9185 19.3896C61.0323 19.5426 61.1076 19.6957 61.1436 19.8455C61.1813 20.0049 61.1805 20.1603 61.1412 20.3061C61.1028 20.4471 61.0363 20.5809 60.9425 20.7043C60.876 20.7948 60.7935 20.8765 60.7006 20.9454C60.6101 21.0127 60.5091 21.0648 60.4026 21.0992C60.2976 21.1345 60.1879 21.1521 60.0685 21.1545C60.0573 21.1553 60.0461 21.1545 60.0349 21.1545C60.0357 21.1801 60.0349 21.2066 60.0341 21.2338L59.8755 22.8464Z" fill="black"/>
<path d="M61.4415 24.1243L60.936 23.6228L63.0886 21.4582L63.5941 21.9605L61.4415 24.1243Z" fill="black"/>
<path d="M61.226 23.622L61.4407 23.8343L63.3041 21.9613L63.0894 21.7482L61.226 23.622ZM61.4423 24.4143L60.646 23.6236L63.0878 21.1682L63.8841 21.9597L61.4423 24.4143Z" fill="black"/>
<path d="M65.7478 25.4356C65.7078 25.4396 65.6749 25.438 65.6477 25.43C65.6196 25.422 65.5956 25.4036 65.5732 25.3755C65.5523 25.3499 65.5395 25.3163 65.5331 25.2746C65.5267 25.2329 65.5187 25.1857 65.5099 25.1336C65.5011 25.0815 65.485 25.0247 65.465 24.9654C65.4434 24.9061 65.4097 24.8452 65.3625 24.7843C65.2808 24.6802 65.1975 24.6193 65.1133 24.6033C65.0292 24.5864 64.9483 24.6081 64.873 24.6674C64.8249 24.705 64.7953 24.7523 64.7881 24.8075C64.7801 24.8636 64.7849 24.9253 64.8001 24.9942C64.8169 25.0615 64.8394 25.1352 64.8698 25.2153C64.9018 25.2938 64.9307 25.3771 64.9603 25.4621C64.9884 25.5486 65.0116 25.6351 65.03 25.7248C65.0484 25.8145 65.0524 25.9035 65.042 25.9924C65.0316 26.0813 65.002 26.1678 64.9547 26.2544C64.9082 26.3409 64.8345 26.4234 64.7352 26.5011C64.6231 26.5876 64.5045 26.6501 64.3763 26.6869C64.2497 26.7238 64.1223 26.7334 63.9934 26.7166C63.8636 26.6998 63.7354 26.6541 63.612 26.578C63.4855 26.5035 63.3701 26.397 63.2644 26.2608C63.2051 26.1855 63.1538 26.1037 63.1082 26.0132C63.0633 25.9235 63.0264 25.8322 62.9992 25.7376C62.9696 25.6423 62.9495 25.5486 62.9391 25.4541C62.9279 25.3603 62.9271 25.2714 62.9375 25.1865L63.3268 25.1488C63.3557 25.148 63.3861 25.1528 63.415 25.164C63.4454 25.1753 63.4695 25.1945 63.4879 25.2201C63.5143 25.2522 63.5303 25.2938 63.5351 25.3443C63.5408 25.394 63.5464 25.4501 63.5544 25.5117C63.5624 25.5742 63.5776 25.6407 63.5992 25.712C63.6217 25.7841 63.6609 25.857 63.7194 25.9323C63.7987 26.0333 63.8828 26.0949 63.9709 26.1158C64.0591 26.1374 64.152 26.111 64.2489 26.0349C64.305 25.9908 64.3395 25.9395 64.3499 25.8818C64.3611 25.8234 64.3587 25.7601 64.3427 25.692C64.3274 25.6239 64.3026 25.551 64.2706 25.4733C64.2385 25.3956 64.2065 25.3155 64.176 25.2305C64.1456 25.1472 64.1208 25.0615 64.1031 24.9726C64.0847 24.8837 64.0815 24.7947 64.0927 24.705C64.1055 24.6145 64.1376 24.5248 64.1896 24.4342C64.2425 24.3437 64.3258 24.2548 64.438 24.1675C64.5277 24.097 64.6295 24.0457 64.7448 24.0153C64.8586 23.9848 64.9771 23.9784 65.0989 23.9968C65.2215 24.0153 65.3425 24.0601 65.4626 24.1306C65.5828 24.2011 65.6949 24.3037 65.7967 24.435C65.8536 24.5087 65.9048 24.5856 65.9473 24.6642C65.9898 24.7435 66.025 24.8236 66.0522 24.9037C66.0779 24.9838 66.0963 25.0639 66.1075 25.1424C66.1195 25.2217 66.1211 25.2986 66.1147 25.3723L65.7478 25.4356Z" fill="black"/>
<path d="M63.1369 25.3699C63.1385 25.3891 63.1401 25.4092 63.1425 25.43C63.1521 25.5133 63.1689 25.5942 63.1946 25.6768C63.2202 25.7633 63.2522 25.8434 63.2915 25.9219C63.3307 25.9988 63.374 26.0693 63.4253 26.1342C63.5174 26.2519 63.6143 26.3417 63.7161 26.401C63.8162 26.4626 63.9172 26.5003 64.0197 26.5131C64.1198 26.5259 64.2192 26.5195 64.3185 26.4899C64.421 26.461 64.5156 26.4114 64.6101 26.3385C64.6854 26.2792 64.7415 26.2183 64.7735 26.1574C64.8104 26.0909 64.8312 26.0292 64.8384 25.9684C64.8464 25.9011 64.8432 25.8346 64.8288 25.7657C64.812 25.684 64.7912 25.6046 64.7647 25.5254C64.7351 25.4404 64.7087 25.3643 64.6798 25.293C64.6446 25.1993 64.6197 25.1184 64.6013 25.0439C64.5789 24.9421 64.5741 24.8572 64.5853 24.7787C64.5989 24.673 64.655 24.5776 64.7463 24.5055C64.8689 24.4102 65.0091 24.3742 65.1533 24.4022C65.2855 24.427 65.4104 24.5135 65.5234 24.6577C65.5835 24.7338 65.6275 24.814 65.6572 24.8949C65.6828 24.9702 65.7012 25.0375 65.7117 25.0992L65.7333 25.2297L65.9079 25.2001C65.9071 25.1913 65.9063 25.1817 65.9047 25.1729C65.8951 25.104 65.8791 25.0351 65.8566 24.9662C65.8342 24.8997 65.8038 24.83 65.7661 24.7611C65.7293 24.693 65.6844 24.6249 65.6339 24.56C65.5482 24.4494 65.4553 24.3645 65.3584 24.3077C65.2614 24.25 65.1637 24.2139 65.0683 24.1995C64.9754 24.1867 64.8849 24.1899 64.7976 24.2131C64.7103 24.2364 64.6342 24.274 64.5645 24.3285C64.4723 24.4006 64.4058 24.4711 64.3666 24.5376C64.3281 24.6041 64.3049 24.6689 64.2953 24.7338C64.2873 24.7987 64.2897 24.8644 64.3041 24.9309C64.3201 25.011 64.3418 25.0863 64.3682 25.16C64.3986 25.2434 64.4291 25.3203 64.4603 25.3948C64.4972 25.4845 64.5252 25.5686 64.5428 25.6471C64.5645 25.7408 64.5677 25.8338 64.5508 25.9203C64.5324 26.0244 64.4715 26.1206 64.3754 26.1959C64.1911 26.3401 64.0277 26.3393 63.922 26.3152C63.7898 26.284 63.6672 26.1975 63.5583 26.0589C63.4838 25.9635 63.4333 25.8706 63.4036 25.7729C63.378 25.688 63.3604 25.6111 63.3508 25.5382L63.3275 25.3475L63.1369 25.3699ZM64.115 26.9297C64.0654 26.9297 64.0165 26.9265 63.9668 26.9201C63.8066 26.8992 63.6504 26.8432 63.5046 26.7526C63.3612 26.6685 63.225 26.5444 63.1024 26.3865C63.0359 26.3016 62.9767 26.2087 62.9246 26.1054C62.8741 26.0036 62.8325 25.9011 62.802 25.7945C62.77 25.6904 62.7467 25.5838 62.7355 25.4765C62.7219 25.3675 62.7219 25.261 62.7339 25.1616L62.7539 24.9982L63.3067 24.9445C63.3836 24.9445 63.4365 24.9518 63.4894 24.9726C63.5535 24.9966 63.6119 25.0407 63.6544 25.1007C63.6993 25.1536 63.7305 25.2329 63.7393 25.3251L63.7577 25.4853C63.7641 25.5373 63.777 25.5934 63.7954 25.6527C63.8098 25.7 63.8395 25.752 63.8811 25.8065C63.9292 25.8674 63.978 25.9067 64.0181 25.9163C64.0549 25.9211 64.0966 25.8922 64.1222 25.8738C64.1543 25.8138 64.1519 25.7785 64.1431 25.7392C64.1294 25.6792 64.1078 25.6175 64.0806 25.5518C64.0477 25.4709 64.0141 25.3876 63.9829 25.2994C63.9492 25.2081 63.9212 25.112 63.9019 25.0126C63.8795 24.9045 63.8747 24.7915 63.8891 24.6794C63.906 24.56 63.9468 24.4446 64.0117 24.3317C64.0782 24.2187 64.1783 24.1098 64.3121 24.0056C64.4243 23.9175 64.5524 23.8542 64.6926 23.8166C64.8336 23.7797 64.9818 23.7709 65.1292 23.7941C65.2766 23.8158 65.4232 23.8702 65.5666 23.9536C65.7084 24.0369 65.8406 24.157 65.9584 24.3093C66.0225 24.3926 66.0802 24.4783 66.1274 24.5664C66.1755 24.6569 66.2155 24.7475 66.246 24.838C66.2764 24.9325 66.2973 25.0238 66.3101 25.1136C66.3237 25.2033 66.3269 25.297 66.3189 25.3899L66.3053 25.5478L65.7677 25.6399C65.702 25.6447 65.6419 25.6423 65.5899 25.6271C65.5226 25.6078 65.4625 25.5662 65.4128 25.5037C65.3704 25.4516 65.3423 25.3844 65.3303 25.3058L65.3079 25.1704C65.3007 25.1256 65.2871 25.0791 65.2702 25.0311C65.2574 24.9942 65.2334 24.9518 65.2005 24.9101C65.1308 24.8212 65.0868 24.8067 65.0748 24.8043C65.0627 24.8019 65.0395 24.7979 64.9995 24.8284C64.9866 24.8652 64.9899 24.9037 65.0003 24.9501C65.0139 25.0046 65.0339 25.0711 65.0611 25.1424C65.0916 25.2161 65.1204 25.2986 65.1493 25.3827C65.1853 25.4925 65.211 25.5862 65.231 25.684C65.2534 25.7945 65.2582 25.9059 65.2454 26.0164C65.2326 26.1302 65.1957 26.2407 65.1348 26.3529C65.0756 26.4626 64.9834 26.5668 64.8617 26.6629C64.7263 26.7671 64.5829 26.8408 64.4331 26.884C64.3289 26.9145 64.2224 26.9297 64.115 26.9297Z" fill="black"/>
<path d="M66.7472 29.413L67.3417 28.7593C67.3777 28.7161 67.4218 28.6664 67.473 28.6103C67.5243 28.5543 67.582 28.4966 67.6429 28.4349C67.5588 28.4581 67.4787 28.4766 67.4042 28.491C67.328 28.5054 67.2632 28.5166 67.2055 28.5238L66.3435 28.6816L66.7472 29.413ZM66.2722 30.9624L66.0062 30.4817C65.9766 30.428 65.9654 30.3784 65.9718 30.3311C65.9782 30.2847 65.9958 30.2414 66.0262 30.2029L66.4044 29.7872L65.8412 28.7722L65.2892 28.8723C65.2476 28.8779 65.2027 28.8707 65.1562 28.8515C65.1098 28.8314 65.0721 28.7962 65.0433 28.7449L64.7749 28.2611L68.0178 27.8156L68.3687 28.4493L66.2722 30.9624Z" fill="black"/>
<path d="M66.6609 28.8323L66.7883 29.063L67.0663 28.7578L66.6609 28.8323ZM65.9496 28.5439L66.6553 29.816L66.1779 30.3408L66.3117 30.5955L68.1214 28.4261L68.0565 28.3083L67.7889 28.5791C67.7144 28.6544 67.6671 28.7025 67.6247 28.749C67.5758 28.8018 67.5341 28.8491 67.4997 28.8907L66.7066 29.7632L66.0265 28.5311L67.1688 28.322C67.2345 28.3139 67.2946 28.3027 67.3659 28.2891C67.4348 28.2763 67.5101 28.2587 67.5886 28.237L67.9603 28.1345L67.9067 28.0376L65.0996 28.4237L65.2229 28.6456L65.9496 28.5439ZM66.238 31.3237L65.827 30.5811C65.7757 30.4882 65.7565 30.3952 65.7685 30.3039C65.7805 30.219 65.8134 30.1421 65.8654 30.0756L66.1538 29.7584L65.7333 29.0005L65.3263 29.0742C65.2382 29.0862 65.1589 29.0742 65.0779 29.0414C64.9866 29.0013 64.9161 28.9364 64.8649 28.8459L64.4507 28.0985L68.1294 27.5938L68.6165 28.4726L66.238 31.3237Z" fill="black"/>
<path d="M70.6722 34.0026L67.7842 34.9912L67.6656 34.6419C67.648 34.5907 67.6416 34.5442 67.6456 34.5033C67.6496 34.4633 67.6672 34.4184 67.6961 34.3704L68.9522 32.4188C68.9033 32.4421 68.8545 32.4621 68.8064 32.4813C68.7599 32.4997 68.7135 32.5158 68.6718 32.5302L67.1241 33.0605L66.9214 32.4693L69.8094 31.4807L69.9311 31.834C69.94 31.8629 69.9472 31.8885 69.952 31.9085C69.9552 31.9294 69.9568 31.9494 69.9552 31.9678C69.9536 31.9854 69.9488 32.0047 69.94 32.0239C69.932 32.0423 69.9183 32.0648 69.9039 32.0912L68.639 34.0587C68.6918 34.0331 68.7447 34.0098 68.796 33.989C68.8465 33.969 68.8961 33.9506 68.941 33.9346L70.4695 33.4122L70.6722 34.0026Z" fill="black"/>
<path d="M69.5147 31.9247L67.8684 34.4818C67.8524 34.5091 67.85 34.5243 67.85 34.5243C67.8492 34.5275 67.8492 34.5443 67.8596 34.5756L67.9125 34.731L70.4119 33.8754L70.3422 33.6727L69.0076 34.1285C68.9675 34.143 68.9203 34.1606 68.8714 34.1798C68.8257 34.1983 68.7777 34.2199 68.7288 34.2431L68.0719 34.5619L69.7318 31.9808L69.735 31.8942L69.6821 31.7412L67.1818 32.5968L67.2515 32.8003L68.6054 32.3365C68.6463 32.322 68.6887 32.3076 68.7312 32.2908C68.7745 32.2732 68.8193 32.2548 68.8642 32.2339L69.5147 31.9247ZM67.6561 35.2517L67.4719 34.7078C67.4446 34.63 67.435 34.5547 67.4414 34.4834C67.4486 34.413 67.4742 34.3417 67.5199 34.2647L68.4476 32.8235L66.9968 33.321L66.6611 32.3421L69.9369 31.2205L70.1251 31.7677C70.1379 31.8077 70.146 31.8374 70.1516 31.8606C70.1612 31.9175 70.1628 31.9527 70.1596 31.9856C70.1556 32.0288 70.1443 32.0697 70.1267 32.1097L70.0955 32.169L69.1462 33.6479L70.597 33.152L70.9326 34.1302L67.6561 35.2517Z" fill="black"/>
<path d="M71.8039 41.8008L68.7564 41.9602L68.7372 41.5917C68.734 41.5372 68.7404 41.4908 68.7564 41.4531C68.7725 41.4155 68.7997 41.377 68.8414 41.3385L70.5846 39.806C70.5317 39.8148 70.4788 39.8212 70.4276 39.8261C70.3763 39.8308 70.329 39.8349 70.285 39.8365L68.6507 39.9222L68.6187 39.2981L71.6661 39.1395L71.6861 39.512C71.6877 39.5424 71.6869 39.5689 71.6853 39.5905C71.6837 39.6106 71.6805 39.6298 71.6725 39.6466C71.6661 39.6642 71.6557 39.6802 71.6437 39.6971C71.6292 39.7131 71.6124 39.7315 71.5892 39.7523L69.8331 41.2969C69.8924 41.2873 69.9485 41.2793 70.0038 41.2745C70.0591 41.268 70.1103 41.264 70.1584 41.2616L71.7718 41.1783L71.8039 41.8008Z" fill="black"/>
<path d="M71.2601 39.4857L68.9769 41.4924C68.9569 41.5109 68.9481 41.5261 68.9457 41.5333L68.9537 41.7448L71.5885 41.607L71.5773 41.3939L70.169 41.4668C70.1249 41.4684 70.0784 41.4724 70.0272 41.478C69.9711 41.4836 69.9198 41.4908 69.8662 41.4996L69.1628 41.6134L71.454 39.5986C71.4692 39.585 71.4812 39.5714 71.4916 39.5602H71.4908C71.482 39.5602 71.4828 39.5425 71.4812 39.5225L71.4724 39.3551L68.8343 39.4921L68.8455 39.7068L70.2747 39.6314C70.318 39.6299 70.3612 39.6267 70.4085 39.6218C70.455 39.6178 70.503 39.6114 70.5511 39.6034L71.2601 39.4857ZM68.5627 42.1758L68.5323 41.6022C68.5275 41.5173 68.5395 41.4396 68.5676 41.3731C68.5964 41.3066 68.6413 41.2441 68.7021 41.188L69.9879 40.0576L68.4562 40.1378L68.4033 39.1043L71.8601 38.9241L71.8914 39.5009C71.893 39.5417 71.8922 39.577 71.8898 39.6058C71.8874 39.6379 71.8817 39.6851 71.8577 39.7348C71.8505 39.758 71.8297 39.7901 71.8104 39.8165C71.7776 39.855 71.756 39.8782 71.7263 39.9054L70.4334 41.0422L71.9659 40.9629L72.0195 41.9947L68.5627 42.1758Z" fill="black"/>
<path d="M69.6378 45.5379L68.4858 45.3953L68.5732 44.6927L69.7243 44.8345L71.7383 43.9693L71.6614 44.5878C71.6542 44.6495 71.6342 44.6951 71.6014 44.728C71.5685 44.7592 71.5285 44.7849 71.4804 44.8025L70.5463 45.1221C70.4734 45.1502 70.4045 45.1742 70.3396 45.1958C70.2771 45.2175 70.2138 45.2359 70.1529 45.2503C70.2098 45.2783 70.2667 45.3104 70.3236 45.344C70.3805 45.3793 70.4414 45.4185 70.5046 45.4626L71.3338 45.9961C71.3506 46.0074 71.3682 46.0218 71.3843 46.0378C71.4003 46.0538 71.4147 46.0722 71.4267 46.0939C71.4387 46.1131 71.4483 46.1363 71.4531 46.1612C71.4604 46.1868 71.4612 46.2148 71.458 46.2429L71.3811 46.8669L69.6378 45.5379Z" fill="black"/>
<path d="M68.7151 45.2166L69.7181 45.3408L71.2209 46.4871L71.2546 46.218L71.3339 45.9961L71.2225 46.1683L70.3934 45.6347C70.3277 45.5891 70.27 45.5514 70.2156 45.5186C70.1667 45.4898 70.1146 45.4601 70.0625 45.4345L69.5506 45.1821L70.1058 45.0507C70.1603 45.0379 70.2171 45.0211 70.2724 45.0019C70.3373 44.9802 70.403 44.9578 70.4727 44.9306L71.414 44.6085C71.43 44.6029 71.4461 44.5925 71.4605 44.5797L71.4933 44.2977L69.7541 45.0451L68.7519 44.921L68.7151 45.2166ZM71.5414 47.2466L69.5578 45.7349L68.2568 45.5739L68.3946 44.4643L69.6948 44.6238L71.986 43.64L71.865 44.6133C71.853 44.7191 71.813 44.8064 71.7465 44.8729C71.688 44.9282 71.6239 44.9682 71.551 44.9947L70.6409 45.3063L71.4452 45.8238C71.4749 45.8438 71.5037 45.8671 71.5294 45.8927C71.5598 45.9231 71.5854 45.9568 71.6063 45.9944C71.6263 46.0265 71.6455 46.0738 71.6543 46.1218C71.6648 46.1547 71.668 46.2091 71.6616 46.266L71.5414 47.2466Z" fill="black"/>
<path d="M68.8576 50.5385C69.0018 50.5817 69.138 50.6017 69.2646 50.5993C69.3912 50.5961 69.5057 50.5713 69.6067 50.5248C69.7084 50.4792 69.7949 50.4119 69.8686 50.323C69.9423 50.234 69.9984 50.1251 70.0368 49.9953C70.0769 49.8639 70.0897 49.7405 70.0769 49.6252C70.0649 49.5098 70.0304 49.4057 69.9704 49.3111C69.9119 49.2166 69.8294 49.1333 69.726 49.0612C69.6203 48.9891 69.4961 48.9314 69.3519 48.8882C69.2061 48.8449 69.0691 48.8241 68.9425 48.8273C68.8152 48.8297 68.7014 48.8545 68.5997 48.9002C68.4987 48.9466 68.4114 49.0147 68.3385 49.1045C68.2656 49.1942 68.2103 49.3047 68.1711 49.4353C68.1318 49.5651 68.1174 49.6877 68.1294 49.8014C68.1406 49.916 68.1767 50.0201 68.2359 50.1147C68.2952 50.2084 68.377 50.2917 68.4819 50.3638C68.5868 50.4367 68.7118 50.4944 68.8576 50.5385ZM68.6485 51.2322C68.4378 51.1689 68.2512 51.0736 68.0918 50.9462C67.9307 50.8188 67.8042 50.6682 67.7096 50.496C67.6143 50.323 67.5566 50.1315 67.5358 49.9224C67.5166 49.7133 67.5398 49.4946 67.6087 49.2671C67.6768 49.0396 67.7769 48.8433 67.9091 48.6791C68.0421 48.5149 68.1943 48.3867 68.3689 48.2937C68.5436 48.2 68.7326 48.1447 68.9361 48.1263C69.1396 48.1079 69.3479 48.1303 69.5594 48.1944C69.7709 48.2569 69.9567 48.353 70.117 48.4804C70.2772 48.6078 70.4038 48.7576 70.4983 48.9314C70.5912 49.1045 70.6489 49.2959 70.6689 49.5058C70.689 49.7165 70.6649 49.9344 70.5968 50.1627C70.5287 50.3894 70.4286 50.5857 70.2948 50.7492C70.1626 50.9126 70.0088 51.0408 69.8366 51.1329C69.6619 51.2258 69.4737 51.2803 69.2694 51.2995C69.0659 51.3171 68.8592 51.2955 68.6485 51.2322Z" fill="black"/>
<path d="M68.9168 50.3422C69.0394 50.3791 69.1595 50.4007 69.2605 50.3943C69.3582 50.3919 69.4455 50.3735 69.5209 50.3382C69.5946 50.3054 69.6562 50.2581 69.7107 50.1924C69.766 50.1251 69.81 50.0394 69.8405 49.9369C69.8717 49.8327 69.883 49.7358 69.8733 49.6477C69.8637 49.5612 69.8389 49.4875 69.7972 49.421C69.7532 49.3505 69.6899 49.2864 69.609 49.2295C69.5224 49.1702 69.4151 49.1213 69.2925 49.0845C69.1667 49.0476 69.0482 49.0308 68.9473 49.0324C68.8479 49.034 68.7614 49.0525 68.6837 49.0877C68.6124 49.1206 68.5507 49.1686 68.4978 49.2335C68.4426 49.3008 68.3993 49.3889 68.3672 49.4947C68.336 49.5988 68.324 49.6949 68.3336 49.7799C68.3416 49.8632 68.3665 49.9369 68.4097 50.0058C68.4538 50.0755 68.5171 50.1396 68.598 50.1948C68.6845 50.2549 68.7918 50.3046 68.9168 50.3422ZM69.2453 50.8045C69.1027 50.8045 68.9529 50.7813 68.7982 50.7348C68.6292 50.6835 68.4874 50.6178 68.3648 50.5321C68.2391 50.4456 68.1373 50.3422 68.0628 50.2245C67.9851 50.1011 67.9395 49.9657 67.925 49.8215C67.9106 49.6837 67.9274 49.5331 67.9747 49.3761C68.022 49.2191 68.0909 49.0845 68.179 48.9756C68.2719 48.8618 68.3841 48.7737 68.5139 48.7136C68.6436 48.6559 68.7854 48.6255 68.9384 48.6223C69.0794 48.6207 69.2429 48.6423 69.4103 48.6919C69.5737 48.7408 69.7187 48.8081 69.8413 48.8914C69.9711 48.982 70.0728 49.0869 70.1449 49.2031C70.2194 49.3208 70.2651 49.4562 70.2811 49.6036C70.2963 49.7462 70.2803 49.8992 70.233 50.0555C70.1874 50.2093 70.1177 50.3438 70.0263 50.4536C69.9326 50.5673 69.8197 50.6539 69.6907 50.7124C69.5665 50.7692 69.4239 50.8005 69.2693 50.8045H69.2453ZM69.073 48.3251C69.033 48.3251 68.9937 48.3275 68.9545 48.3307C68.7782 48.3467 68.614 48.3948 68.4658 48.4749C68.3152 48.555 68.1854 48.6639 68.0684 48.8081C67.9539 48.9499 67.8649 49.1245 67.8049 49.3256C67.7448 49.5251 67.7231 49.719 67.74 49.904C67.7576 50.0835 67.8081 50.2501 67.889 50.3967C67.9715 50.5465 68.082 50.6771 68.219 50.7853C68.3568 50.8958 68.5211 50.9799 68.7077 51.036C68.8904 51.0905 69.0714 51.1097 69.2517 51.0953C69.4303 51.0785 69.5905 51.0312 69.7403 50.9519C69.8886 50.8726 70.0215 50.7612 70.1353 50.6202C70.2507 50.4792 70.3396 50.3054 70.4005 50.1035C70.4613 49.9 70.4822 49.7102 70.4646 49.5251C70.4477 49.3457 70.3981 49.1782 70.3171 49.0284C70.2362 48.8786 70.1289 48.752 69.9895 48.6407C69.8493 48.5293 69.6851 48.4452 69.5008 48.3916C69.3566 48.3475 69.2132 48.3251 69.073 48.3251ZM69.1339 51.5103C68.9529 51.5103 68.7702 51.483 68.5891 51.4286C68.3528 51.3573 68.1421 51.2491 67.9635 51.1065C67.7848 50.9647 67.6382 50.7925 67.5301 50.5946C67.4219 50.3991 67.3554 50.1796 67.3314 49.9425C67.3098 49.7038 67.337 49.457 67.4123 49.2079C67.4876 48.9563 67.6014 48.7344 67.7496 48.5502C67.9002 48.3643 68.0756 48.2177 68.2727 48.1128C68.469 48.007 68.6861 47.9429 68.9176 47.9221C69.1451 47.9004 69.3831 47.9269 69.6186 47.9982C69.8517 48.0671 70.0624 48.1752 70.2442 48.3202C70.4253 48.4636 70.5711 48.6367 70.6785 48.8338C70.785 49.0324 70.8507 49.2519 70.8731 49.4867C70.8956 49.7214 70.8683 49.9689 70.793 50.2213C70.7169 50.476 70.6023 50.6971 70.4533 50.879C70.3059 51.0616 70.1305 51.2082 69.9334 51.314C69.7371 51.4181 69.5201 51.4822 69.2885 51.5038C69.2373 51.5079 69.1852 51.5103 69.1339 51.5103Z" fill="black"/>
<path d="M67.7808 53.9145L67.7295 54.0146C67.6815 54.1083 67.6766 54.1901 67.7135 54.2605L68.2919 55.3244C68.3215 55.3853 68.3335 55.4406 68.3303 55.4919C68.3279 55.5423 68.3103 55.6 68.2791 55.6617L68.0003 56.2104L67.3097 54.8446C67.2625 54.7492 67.2392 54.6595 67.2384 54.5762C67.1976 54.6146 67.1511 54.6459 67.0998 54.6683C67.0502 54.6915 66.9909 54.7068 66.9244 54.7148L65.2437 54.895L65.5313 54.331C65.5489 54.2958 65.5665 54.2653 65.5849 54.2421C65.6034 54.2197 65.6218 54.2013 65.641 54.1876C65.661 54.174 65.6811 54.1644 65.7019 54.158C65.7235 54.1516 65.7468 54.1468 65.7716 54.1436L67.0317 54.009C67.0774 54.0034 67.1175 53.9882 67.1495 53.9609C67.1808 53.9337 67.212 53.8904 67.2408 53.8327L67.3193 53.6797L66.1609 53.0909L66.4822 52.4596L69.2036 53.8424L68.8823 54.4736L67.7808 53.9145Z" fill="black"/>
<path d="M67.4386 54.1059L67.4434 54.5745C67.4442 54.6274 67.461 54.6875 67.4931 54.7532L68.001 55.757L68.0963 55.5687C68.1219 55.5182 68.1252 55.4894 68.1252 55.4822C68.1268 55.463 68.1204 55.4405 68.1075 55.4141L67.5332 54.3582C67.4835 54.2637 67.4474 54.1147 67.5468 53.9208L67.691 53.6388L68.7925 54.198L68.9279 53.932L66.5718 52.7352L66.4364 53.0011L67.5956 53.59L67.4234 53.9264C67.3833 54.0057 67.3369 54.0698 67.284 54.1155C67.2207 54.17 67.1446 54.202 67.0565 54.2124L65.7931 54.3478L65.5848 54.2421L65.7459 54.3694C65.7411 54.3751 65.7315 54.3895 65.7146 54.4223L65.5985 54.6506L66.9027 54.5104C66.9451 54.5056 66.9844 54.496 67.0132 54.4824C67.0461 54.468 67.0733 54.4496 67.0981 54.4271L67.4386 54.1059ZM67.9994 56.6638L67.127 54.9374C67.1182 54.9198 67.1102 54.903 67.1029 54.8862C67.0565 54.9006 67.0044 54.9118 66.9491 54.9182L64.8887 55.1393L65.3485 54.2381C65.3741 54.1868 65.3982 54.1475 65.4238 54.1147C65.4575 54.0738 65.4887 54.0442 65.5224 54.0202C65.5616 53.9929 65.6009 53.9745 65.6417 53.9617C65.6754 53.9521 65.709 53.9449 65.7451 53.94L67.01 53.8047C67.0148 53.8047 67.0261 53.7958 67.0421 53.7686L65.8853 53.1806L66.3924 52.184L69.4791 53.7526L68.9719 54.7492L67.9233 54.2164L68.4721 55.2266C68.5209 55.326 68.5401 55.4165 68.5345 55.5046C68.5313 55.5807 68.5065 55.6656 68.4616 55.7546L67.9994 56.6638Z" fill="black"/>
<path d="M66.4816 58.5127L65.4979 57.827C65.3921 57.7533 65.2928 57.6747 65.1983 57.5898C65.1021 57.5049 65.0076 57.4152 64.9146 57.319L65.1662 56.9577C65.288 57.0114 65.4065 57.0691 65.5187 57.1292C65.6309 57.1885 65.7398 57.2549 65.8456 57.3286L66.8285 58.0128L66.4816 58.5127ZM64.6343 56.3978C64.6759 56.4266 64.7096 56.4619 64.7336 56.5019C64.7584 56.542 64.7745 56.5852 64.7825 56.6301C64.7897 56.6758 64.7881 56.7214 64.7785 56.7695C64.7681 56.8168 64.748 56.8624 64.7176 56.9057C64.6887 56.9481 64.6535 56.9826 64.6118 57.0082C64.571 57.0338 64.5285 57.0515 64.4821 57.0611C64.4356 57.0699 64.3907 57.0699 64.3435 57.0603C64.2986 57.0515 64.2545 57.0322 64.2129 57.0034C64.1712 56.9746 64.1392 56.9401 64.1135 56.8992C64.0879 56.8592 64.0719 56.8159 64.0647 56.7695C64.0575 56.7246 64.0583 56.6773 64.0703 56.6301C64.0807 56.5836 64.0999 56.5388 64.1296 56.4955C64.1608 56.4522 64.1953 56.4178 64.2353 56.3914C64.2762 56.3649 64.3186 56.3481 64.3635 56.3385C64.4092 56.3305 64.4548 56.3313 64.5021 56.3409C64.5493 56.3505 64.5934 56.3697 64.6343 56.3978Z" fill="black"/>
<path d="M64.4256 56.5381C64.4168 56.5381 64.408 56.5389 64.3984 56.5405C64.384 56.5437 64.3647 56.5517 64.3463 56.5637C64.3295 56.575 64.3126 56.5918 64.2958 56.6158C64.2846 56.6318 64.275 56.6527 64.2702 56.6751C64.2646 56.6983 64.2638 56.7175 64.267 56.7368C64.2702 56.7568 64.2758 56.7736 64.2862 56.7889C64.2982 56.8089 64.3118 56.8225 64.3295 56.8353C64.3479 56.8473 64.3655 56.8562 64.3823 56.8594C64.4056 56.8634 64.4232 56.8649 64.4432 56.8594C64.4617 56.8562 64.4817 56.8473 64.5025 56.8345C64.5201 56.8233 64.5346 56.8097 64.5474 56.7904C64.5634 56.7672 64.573 56.7472 64.5778 56.7256C64.5818 56.7047 64.5826 56.6831 64.5794 56.6623C64.5762 56.6462 64.5698 56.627 64.5586 56.6102C64.5482 56.5926 64.5354 56.579 64.5177 56.5669C64.4993 56.5541 64.4801 56.5461 64.4609 56.5421C64.4488 56.5397 64.4368 56.5381 64.4256 56.5381ZM65.181 57.2952C65.2315 57.344 65.282 57.3905 65.3333 57.4362C65.423 57.5171 65.5159 57.59 65.6144 57.6589L66.43 58.2268L66.5429 58.0642L65.7282 57.497C65.6289 57.4281 65.5271 57.3657 65.4222 57.3104C65.3621 57.2783 65.2996 57.2463 65.2363 57.2158L65.181 57.2952ZM66.5325 58.7988L65.3805 57.9953C65.2676 57.9168 65.1618 57.8327 65.0609 57.7422C64.9623 57.6549 64.8638 57.5619 64.7669 57.4618L64.6499 57.3408L64.8045 57.1173C64.7789 57.1421 64.7501 57.1638 64.7188 57.183C64.6579 57.2215 64.593 57.2479 64.5233 57.2623C64.4464 57.2783 64.3743 57.2759 64.3022 57.2615C64.2309 57.2471 64.1612 57.2174 64.0955 57.1718C64.0323 57.1277 63.981 57.0749 63.9393 57.0084C63.9001 56.9467 63.8736 56.8762 63.8616 56.8009C63.8496 56.7264 63.8528 56.6519 63.8712 56.5797C63.8864 56.5125 63.9161 56.4436 63.9601 56.3795C64.0098 56.3106 64.0619 56.2601 64.122 56.2201C64.1837 56.1808 64.2494 56.1536 64.3199 56.1384C64.3984 56.1247 64.4721 56.1247 64.5426 56.1399C64.6163 56.1552 64.686 56.1848 64.7501 56.2289L64.7508 56.2297C64.8165 56.2753 64.8702 56.3314 64.9095 56.3963C64.9455 56.4548 64.9712 56.5229 64.984 56.5942C64.996 56.6679 64.9936 56.7368 64.9792 56.8097C64.9712 56.8465 64.9599 56.8818 64.9455 56.9154L65.0937 56.7023L65.2483 56.7704C65.3749 56.8257 65.4983 56.8858 65.6153 56.9483C65.7338 57.0116 65.85 57.0821 65.9621 57.1606L67.1133 57.9617L66.5325 58.7988Z" fill="black"/>
</g>
</g>
<defs>
<clipPath id="clip0_2579_659">
<rect width="86" height="86" fill="white" transform="translate(0.5)"/>
</clipPath>
</defs>
</svg>
