<svg width="523" height="523" viewBox="0 0 523 523" fill="none" xmlns="http://www.w3.org/2000/svg">
<g clip-path="url(#clip0_2579_596)">
<mask id="mask0_2579_596" style="mask-type:luminance" maskUnits="userSpaceOnUse" x="0" y="0" width="523" height="523">
<path d="M0 -1.90735e-06H523V523H0V-1.90735e-06Z" fill="white"/>
</mask>
<g mask="url(#mask0_2579_596)">
<path d="M335.508 281.579L311.293 280.582C313.051 237.9 293.935 226.304 247.751 198.288C237.555 192.102 225.998 185.091 213.52 176.965C139.676 128.875 164.401 59.7795 177.683 22.6592C178.14 21.3844 178.585 20.1374 179.018 18.9197L201.857 27.0295C201.418 28.2652 200.966 29.531 200.503 30.8247C187.184 68.0421 168.945 119.014 226.746 156.656C238.899 164.57 250.28 171.474 260.321 177.566C307.011 205.889 337.855 224.6 335.508 281.579Z" fill="#43B877"/>
<path d="M304.769 465.891L281.369 459.581C281.41 459.425 286.155 441.185 284.815 416.893C283.066 385.188 272.283 358.484 252.767 337.523C199.209 279.999 199.262 203.274 204.06 162.658L228.128 165.502C223.822 201.955 223.601 270.63 270.505 321.008C293.852 346.084 307.185 379.087 309.061 416.45C310.464 444.391 305.003 465.026 304.769 465.891Z" fill="#F26F23"/>
<path d="M256.928 80.1004C245.938 80.1206 237.014 89.0776 237.034 100.067C237.054 111.056 246.011 119.981 257.001 119.96C267.991 119.94 276.915 110.983 276.895 99.9941C276.875 89.0048 267.918 80.0803 256.928 80.1004ZM257.046 144.197C232.692 144.241 212.843 124.465 212.798 100.111C212.753 75.7577 232.531 55.9089 256.884 55.8644C281.238 55.8199 301.086 75.5962 301.131 99.9497C301.176 124.303 281.399 144.152 257.046 144.197Z" fill="#EE5A9F"/>
<path d="M223.611 251.182L221.446 227.043L222.528 239.113L221.39 227.048C221.676 227.02 250.255 223.928 267.494 200.423L287.037 214.756C263.18 247.286 225.215 251.038 223.611 251.182Z" fill="#F26F23"/>
<path d="M169.088 314.41C172.679 314.398 175.172 312.422 175.246 309.529C175.323 306.53 172.676 304.298 169.052 304.305C165.443 304.311 162.792 306.574 162.884 309.569C162.972 312.434 165.52 314.422 169.088 314.41ZM175.27 294.762C175.268 293.606 175.266 292.384 175.263 291.162C175.251 283.946 175.25 276.73 175.22 269.515C175.21 267.044 175.856 264.883 178.269 263.81C180.506 262.816 182.497 263.543 184.355 265.035C188.43 268.306 192.6 271.46 196.674 274.733C199.698 277.164 200.247 279.824 198.393 282.298C196.538 284.772 193.458 284.87 190.381 282.537C188.972 281.468 187.584 280.372 185.649 278.872C185.548 280.368 185.418 281.412 185.417 282.455C185.414 290.926 185.402 299.397 185.456 307.868C185.551 322.924 171.308 326.876 161.936 322.979C155.62 320.353 151.79 313.734 152.85 307.38C154.014 300.403 160.435 294.678 167.704 294.344C170.073 294.235 172.463 294.592 175.27 294.762Z" fill="#43B877"/>
<path d="M334.553 200.652C334.481 197.802 331.653 195.649 328.082 195.725C324.666 195.797 321.988 197.971 321.949 200.704C321.909 203.515 324.79 205.852 328.283 205.843C331.786 205.834 334.626 203.483 334.553 200.652ZM334.555 185.785C334.541 178.071 334.569 169.934 334.486 161.797C334.46 159.178 334.552 156.645 337.194 155.287C339.956 153.868 342.156 155.252 344.298 156.989C348.194 160.148 352.218 163.147 356.113 166.305C358.858 168.53 359.333 171.356 357.55 173.689C355.704 176.106 352.707 176.271 349.799 174.078C348.231 172.896 346.705 171.66 344.694 170.082C344.605 171.573 344.496 172.54 344.496 173.508C344.496 182.499 344.59 191.49 344.506 200.481C344.428 208.843 338.701 214.78 330.036 215.722C321.676 216.63 314.216 211.703 312.343 204.038C310.254 195.482 316.653 186.824 325.946 185.843C328.601 185.563 331.308 185.791 334.555 185.785Z" fill="#F26F23"/>
<path d="M335.276 79.8915C341.532 77.527 345.662 73.4242 348.044 67.1044C350.72 73.1506 354.663 77.572 361.138 79.7706C355.009 82.383 350.515 86.2555 348.254 92.7628C345.755 86.5073 341.627 82.275 335.276 79.8915Z" fill="#F9BD47"/>
<path d="M112.62 43.2331C118.875 40.8686 123.006 36.7658 125.388 30.446C128.063 36.4921 132.006 40.9136 138.482 43.1121C132.353 45.7245 127.858 49.5971 125.598 56.1044C123.099 49.8489 118.971 45.6165 112.62 43.2331Z" fill="#B43A91"/>
<path d="M226.746 156.656C218.845 151.51 212.408 146.109 207.142 140.533L207.092 140.533C205.845 144.288 203.386 169.016 203.322 169.655C206.511 172.134 209.862 174.582 213.519 176.965C218.006 179.887 222.323 182.617 226.551 185.265C226.765 176.982 228.928 158.072 228.928 158.072L228.935 158.061C228.199 157.585 227.489 157.139 226.746 156.656Z" fill="#305729"/>
<path d="M276.754 187.643C272.598 195.595 261.937 206.952 261.937 206.952L261.936 206.96C269.714 211.78 276.528 216.204 282.386 220.531L282.411 220.525C289.372 211.97 296.823 201.327 296.887 201.237C290.754 196.656 284.022 192.202 276.754 187.643Z" fill="#305729"/>
<path d="M287.919 504.08L267.672 490.758C286.113 462.73 309.19 370.547 309.114 328.683L331.499 329.598C331.577 372.221 310.492 469.77 287.919 504.08Z" fill="#18B3E4"/>
<path d="M249.48 328.792L249.215 333.546C250.381 334.878 251.545 336.211 252.767 337.523C272.283 358.485 283.065 385.188 284.815 416.893C286.154 441.185 281.41 459.425 281.369 459.581L304.769 465.891C305.002 465.027 310.464 444.391 309.06 416.451C307.184 379.087 293.852 346.083 270.505 321.008C265.61 315.751 261.256 310.286 257.339 304.688L249.48 328.792Z" fill="#B43A91"/>
<path d="M216.05 470.134L196.615 455.655C236.932 401.535 238.343 315.086 238.353 314.219L262.588 314.463C262.55 318.32 261.148 409.597 216.05 470.134Z" fill="#F9BD48"/>
<path d="M262.583 311.777L262.585 311.766C252.594 299.128 245.209 285.602 239.799 271.895L239.769 271.876C239.768 283.828 238.186 318.758 238.15 319.549C242.517 325.697 247.355 331.712 252.767 337.523C255.384 340.334 257.831 343.257 260.134 346.272L260.147 346.265C262.943 320.554 262.583 311.777 262.583 311.777Z" fill="#EF4926"/>
<path d="M306.874 460.602C315.051 430.222 305.985 385.768 303.149 379.711C303.159 385.249 303.149 379.701 303.149 379.701C295.096 422.301 279.694 471.401 267.067 490.593L287.919 504.08C294.531 494.029 301.011 478.533 306.874 460.602Z" fill="#204196"/>
<path d="M274.053 438.828C274.582 432.721 274.856 425.411 274.413 417.387C274.062 411.007 273.222 404.899 272.084 398.964C268.584 399.221 265.062 399.396 261.498 399.396C260.784 399.396 260.081 399.352 259.37 399.342C255.772 412.307 251.192 425.591 245.351 438.554C250.677 439.022 256.053 439.306 261.498 439.306C265.722 439.306 269.899 439.111 274.053 438.828Z" fill="#6E8BC7"/>
<path d="M256.528 90.0217H256.509C251.023 90.0314 246.565 94.5038 246.575 99.9919C246.58 102.642 247.623 105.137 249.508 107.017C251.393 108.893 253.883 109.926 256.528 109.926H256.543C259.193 109.921 261.693 108.878 263.573 106.99C265.454 105.103 266.486 102.603 266.482 99.953C266.477 97.3051 265.434 94.8107 263.549 92.9302C261.663 91.0545 259.174 90.0217 256.528 90.0217Z" fill="#6E8BC7"/>
<path d="M196.422 84.7278C195.609 98.0816 197.981 111.289 206.132 123.792C206.638 123.579 207.157 123.393 207.665 123.186C204.259 116.044 202.396 108.208 202.382 100.07C202.37 93.5259 203.585 87.2752 205.712 81.4593C202.576 82.4639 199.483 83.5613 196.422 84.7278Z" fill="#6E8BC7"/>
<path d="M306.096 78.2626C309.008 84.8865 310.656 92.188 310.669 99.8752C310.684 106.894 309.341 113.706 306.81 120.04C363.719 139.053 404.867 192.809 404.867 256.029C404.867 307.705 377.379 353.072 336.263 378.304C333.752 393.962 330.349 410.87 326.267 427.45C395.452 401.222 444.778 334.292 444.778 256.029C444.778 170.349 385.671 98.2345 306.096 78.2626Z" fill="#6E8BC7"/>
<path d="M215.464 391.771C158.933 372.545 118.133 318.98 118.133 256.029C118.133 212.462 137.691 173.4 168.46 147.083C160.304 134.26 155.784 120.987 153.778 107.88C108.03 141.237 78.2227 195.205 78.2227 256.029C78.2227 335.863 129.549 403.898 200.921 428.972C207.061 416.997 211.795 404.254 215.464 391.771Z" fill="#6E8BC7"/>
<path d="M288.045 147.158C294.301 144.793 298.431 140.691 300.813 134.371C303.489 140.417 307.432 144.838 313.907 147.037C307.778 149.649 303.284 153.522 301.023 160.029C298.524 153.774 294.396 149.541 288.045 147.158Z" fill="#18B3E4"/>
<path d="M328.252 303.377C334.508 301.013 338.638 296.91 341.02 290.591C343.695 296.637 347.638 301.058 354.114 303.257C347.985 305.869 343.49 309.741 341.23 316.249C338.731 309.993 334.603 305.761 328.252 303.377Z" fill="#F26F23"/>
<path d="M194.735 361.414C200.99 359.05 205.121 354.947 207.503 348.627C210.178 354.673 214.121 359.095 220.597 361.293C214.468 363.906 209.973 367.778 207.713 374.286C205.214 368.03 201.086 363.798 194.735 361.414Z" fill="#43B877"/>
<path d="M130.679 361.943C130.918 361.904 131.113 361.9 131.283 361.939C131.449 361.978 131.61 362.08 131.756 362.241C131.883 362.387 131.98 362.586 132.034 362.83C132.092 363.079 132.155 363.356 132.228 363.673C132.302 363.985 132.418 364.316 132.565 364.672C132.711 365.022 132.94 365.373 133.252 365.724C133.783 366.323 134.304 366.654 134.825 366.723C135.332 366.791 135.809 366.63 136.248 366.24C136.53 365.997 136.681 365.705 136.711 365.368C136.73 365.027 136.686 364.652 136.56 364.248C136.438 363.843 136.267 363.41 136.053 362.942C135.838 362.47 135.629 361.987 135.42 361.481C135.215 360.974 135.04 360.457 134.898 359.922C134.757 359.391 134.694 358.86 134.723 358.314C134.752 357.778 134.893 357.237 135.142 356.696C135.39 356.16 135.804 355.634 136.384 355.128C137.022 354.563 137.714 354.144 138.464 353.871C139.22 353.603 139.989 353.491 140.769 353.549C141.558 353.603 142.347 353.832 143.127 354.236C143.916 354.641 144.647 355.235 145.343 356.019C145.719 356.448 146.069 356.925 146.372 357.447C146.678 357.973 146.932 358.514 147.141 359.074C147.356 359.639 147.512 360.194 147.614 360.76C147.716 361.325 147.75 361.856 147.721 362.372L145.387 362.747C145.212 362.767 145.032 362.747 144.851 362.689C144.666 362.63 144.51 362.528 144.384 362.387C144.218 362.197 144.106 361.953 144.057 361.651C144.009 361.354 143.945 361.018 143.872 360.643C143.809 360.272 143.687 359.873 143.531 359.454C143.37 359.03 143.098 358.606 142.722 358.177C142.206 357.593 141.675 357.257 141.134 357.164C140.593 357.067 140.043 357.262 139.488 357.754C139.171 358.041 138.986 358.363 138.937 358.723C138.893 359.074 138.932 359.454 139.049 359.863C139.176 360.267 139.346 360.696 139.57 361.154C139.794 361.607 140.019 362.085 140.233 362.577C140.452 363.074 140.632 363.58 140.779 364.107C140.925 364.633 140.973 365.173 140.934 365.719C140.896 366.265 140.735 366.82 140.457 367.39C140.175 367.955 139.707 368.525 139.064 369.095C138.547 369.548 137.948 369.899 137.271 370.123C136.599 370.352 135.882 370.435 135.142 370.377C134.396 370.313 133.651 370.089 132.896 369.704C132.146 369.319 131.434 368.749 130.762 367.994C130.392 367.57 130.056 367.127 129.768 366.669C129.481 366.206 129.237 365.739 129.052 365.266C128.857 364.789 128.716 364.316 128.618 363.843C128.521 363.371 128.477 362.913 128.492 362.465L130.679 361.943Z" fill="white"/>
<path d="M129.807 363.434C129.817 363.483 129.827 363.537 129.841 363.59C129.924 363.99 130.041 364.389 130.207 364.794C130.372 365.217 130.582 365.617 130.826 366.012C131.079 366.411 131.376 366.801 131.703 367.176C132.258 367.8 132.857 368.282 133.466 368.594C134.08 368.905 134.665 369.086 135.249 369.134C135.829 369.183 136.365 369.115 136.867 368.944C137.383 368.774 137.841 368.511 138.241 368.16C138.762 367.697 139.132 367.249 139.342 366.835C139.546 366.416 139.663 366.007 139.692 365.632C139.722 365.217 139.683 364.818 139.575 364.443C139.449 363.97 139.288 363.522 139.093 363.079C138.884 362.601 138.669 362.143 138.455 361.705C138.197 361.183 138.002 360.696 137.86 360.238C137.685 359.634 137.636 359.084 137.7 358.567C137.787 357.9 138.109 357.32 138.65 356.828C139.722 355.878 140.715 355.829 141.354 355.936C142.172 356.078 142.952 356.555 143.658 357.354C144.145 357.91 144.486 358.45 144.696 359.011C144.886 359.517 145.027 359.995 145.1 360.433C145.173 360.794 145.236 361.14 145.29 361.451L146.435 361.291C146.42 361.188 146.406 361.086 146.386 360.984C146.299 360.492 146.162 360.009 145.977 359.517C145.787 359.015 145.563 358.538 145.295 358.075C145.032 357.622 144.73 357.213 144.403 356.843C143.804 356.166 143.2 355.673 142.557 355.347C141.928 355.021 141.3 354.835 140.686 354.792C140.068 354.767 139.478 354.831 138.884 355.045C138.284 355.264 137.739 355.595 137.213 356.063C136.764 356.453 136.448 356.843 136.272 357.223C136.092 357.617 135.99 358.007 135.97 358.382C135.946 358.782 135.99 359.176 136.102 359.6C136.233 360.087 136.389 360.555 136.574 361.013C136.774 361.495 136.979 361.968 137.188 362.426C137.427 362.947 137.617 363.434 137.753 363.887C137.914 364.404 137.987 364.93 137.958 365.442C137.895 366.143 137.588 366.733 137.062 367.186C136.36 367.804 135.512 368.043 134.66 367.96C133.841 367.853 133.052 367.376 132.316 366.552C131.917 366.099 131.61 365.627 131.415 365.149C131.24 364.725 131.103 364.326 131.016 363.956L130.835 363.186L129.807 363.434ZM135.6 371.643C135.415 371.643 135.23 371.634 135.045 371.619C134.138 371.541 133.227 371.273 132.331 370.815C131.444 370.362 130.601 369.69 129.832 368.823C129.408 368.34 129.033 367.843 128.711 367.332C128.38 366.796 128.102 366.26 127.893 365.719C127.673 365.188 127.508 364.643 127.396 364.097C127.279 363.522 127.23 362.962 127.245 362.426L127.279 361.471L130.48 360.711C130.894 360.652 131.244 360.648 131.561 360.721C131.98 360.823 132.365 361.057 132.677 361.403C132.964 361.729 133.154 362.124 133.252 362.562L133.383 363.122C133.5 363.644 133.598 363.907 133.719 364.199C133.807 364.414 133.968 364.652 134.182 364.896C134.626 365.393 134.894 365.476 134.986 365.485C135.064 365.505 135.191 365.515 135.42 365.31C135.478 365.091 135.444 364.862 135.371 364.623C135.259 364.253 135.108 363.873 134.918 363.464C134.699 362.971 134.484 362.479 134.265 361.958C134.041 361.393 133.846 360.828 133.69 360.238C133.515 359.561 133.442 358.913 133.476 358.246C133.515 357.559 133.695 356.862 134.007 356.175C134.333 355.474 134.854 354.806 135.566 354.188C136.311 353.525 137.144 353.023 138.041 352.697C138.976 352.365 139.916 352.219 140.862 352.307C141.816 352.37 142.771 352.648 143.702 353.13C144.618 353.598 145.461 354.275 146.274 355.191C146.708 355.683 147.107 356.229 147.448 356.823C147.794 357.408 148.077 358.012 148.311 358.636C148.549 359.269 148.725 359.897 148.842 360.536C148.959 361.198 149.002 361.822 148.968 362.44L148.91 363.444L145.587 363.98C145.188 364.029 144.818 363.99 144.467 363.878C144.077 363.751 143.736 363.532 143.453 363.22C143.117 362.835 142.913 362.377 142.825 361.851L142.65 360.881C142.591 360.55 142.489 360.229 142.362 359.888C142.26 359.625 142.065 359.322 141.782 359.001C141.475 358.645 141.173 358.436 140.925 358.392C140.681 358.368 140.447 358.562 140.316 358.689C140.15 359.054 140.18 359.274 140.248 359.522C140.35 359.839 140.496 360.209 140.691 360.604C140.92 361.071 141.154 361.568 141.378 362.08C141.617 362.626 141.816 363.191 141.982 363.77C142.162 364.423 142.231 365.11 142.177 365.807C142.128 366.504 141.928 367.22 141.578 367.936C141.222 368.652 140.657 369.354 139.892 370.031C139.234 370.606 138.484 371.034 137.661 371.307C137.013 371.531 136.316 371.643 135.6 371.643Z" fill="white"/>
<path d="M111.791 321.751C110.972 322.155 110.29 322.628 109.74 323.163C109.194 323.694 108.785 324.279 108.527 324.898C108.274 325.517 108.166 326.179 108.21 326.871C108.249 327.563 108.454 328.279 108.819 329.015C109.184 329.755 109.633 330.359 110.159 330.817C110.685 331.275 111.274 331.592 111.927 331.762C112.575 331.938 113.282 331.967 114.042 331.85C114.802 331.743 115.591 331.485 116.405 331.08C117.233 330.671 117.915 330.198 118.465 329.667C119.016 329.131 119.42 328.552 119.674 327.928C119.937 327.305 120.039 326.647 119.995 325.955C119.942 325.253 119.737 324.537 119.372 323.792C119.001 323.061 118.563 322.467 118.042 322.009C117.515 321.551 116.931 321.234 116.283 321.064C115.63 320.888 114.924 320.859 114.168 320.971C113.403 321.083 112.614 321.341 111.791 321.751ZM109.852 317.824C111.041 317.234 112.254 316.893 113.491 316.791C114.724 316.698 115.903 316.83 117.038 317.205C118.163 317.58 119.206 318.184 120.161 319.027C121.116 319.87 121.905 320.937 122.548 322.223C123.181 323.509 123.552 324.786 123.639 326.062C123.732 327.329 123.586 328.532 123.201 329.658C122.811 330.788 122.202 331.816 121.379 332.737C120.555 333.657 119.547 334.413 118.348 335.007C117.155 335.596 115.937 335.942 114.704 336.04C113.472 336.137 112.293 335.996 111.167 335.616C110.037 335.236 108.99 334.627 108.04 333.779C107.08 332.932 106.291 331.869 105.652 330.583C105.014 329.297 104.654 328.021 104.566 326.749C104.478 325.478 104.629 324.279 105.014 323.158C105.399 322.033 106.003 321.01 106.826 320.089C107.65 319.164 108.663 318.413 109.852 317.824Z" fill="white"/>
<path d="M115.036 322.15C114.816 322.15 114.588 322.17 114.354 322.204C113.72 322.296 113.043 322.52 112.346 322.866L112.342 322.871C111.655 323.212 111.07 323.612 110.612 324.055C110.183 324.469 109.871 324.917 109.677 325.38C109.501 325.814 109.423 326.291 109.453 326.793C109.487 327.319 109.647 327.875 109.935 328.459C110.227 329.054 110.578 329.531 110.978 329.877C111.362 330.213 111.776 330.432 112.244 330.554C112.726 330.681 113.267 330.71 113.852 330.617C114.49 330.53 115.158 330.31 115.849 329.965C116.546 329.619 117.136 329.219 117.598 328.771C118.022 328.357 118.334 327.918 118.519 327.46C118.709 327.007 118.782 326.544 118.753 326.033C118.709 325.502 118.548 324.942 118.251 324.342C117.954 323.753 117.613 323.295 117.218 322.944C116.838 322.613 116.424 322.389 115.966 322.272C115.674 322.189 115.362 322.15 115.036 322.15ZM113.16 333.165C112.619 333.165 112.098 333.102 111.601 332.966C110.778 332.751 110.013 332.342 109.341 331.757C108.693 331.192 108.137 330.457 107.699 329.565C107.26 328.683 107.012 327.797 106.963 326.939C106.909 326.072 107.046 325.219 107.372 324.425C107.699 323.641 108.201 322.92 108.868 322.272C109.516 321.639 110.31 321.093 111.236 320.635C112.171 320.167 113.097 319.87 113.988 319.739C114.909 319.597 115.796 319.636 116.604 319.86C117.428 320.075 118.188 320.484 118.86 321.069C119.503 321.634 120.034 322.34 120.483 323.227C120.921 324.118 121.174 325 121.238 325.858C121.296 326.769 121.155 327.621 120.824 328.415C120.512 329.175 120.01 329.906 119.338 330.559C118.68 331.192 117.886 331.743 116.955 332.201C116.025 332.664 115.104 332.961 114.217 333.083C113.857 333.141 113.506 333.165 113.16 333.165ZM114.247 318.009C114.032 318.009 113.808 318.019 113.584 318.033C112.512 318.121 111.44 318.428 110.407 318.94C109.35 319.466 108.459 320.128 107.757 320.917C107.051 321.712 106.525 322.603 106.193 323.563C105.862 324.523 105.735 325.565 105.808 326.661C105.886 327.767 106.208 328.898 106.768 330.028C107.343 331.183 108.03 332.103 108.863 332.844C109.682 333.57 110.588 334.106 111.567 334.432C112.527 334.754 113.56 334.861 114.607 334.797C115.674 334.71 116.746 334.408 117.798 333.886C118.846 333.37 119.737 332.703 120.448 331.904C121.16 331.109 121.691 330.218 122.022 329.253C122.348 328.293 122.475 327.251 122.397 326.155C122.319 325.059 121.998 323.923 121.428 322.774C120.848 321.614 120.166 320.693 119.338 319.963C118.519 319.242 117.613 318.711 116.643 318.389C115.879 318.136 115.089 318.009 114.247 318.009ZM113.964 337.316C112.863 337.316 111.791 337.141 110.768 336.8C109.472 336.361 108.274 335.66 107.212 334.71C106.145 333.769 105.243 332.566 104.537 331.139C103.83 329.716 103.421 328.264 103.324 326.837C103.221 325.404 103.397 324.031 103.835 322.754C104.274 321.478 104.966 320.299 105.896 319.256C106.807 318.233 107.957 317.371 109.297 316.708C110.617 316.055 111.991 315.666 113.389 315.549C114.797 315.446 116.161 315.602 117.428 316.021C118.719 316.45 119.917 317.147 120.984 318.092C122.046 319.027 122.943 320.231 123.664 321.668C124.375 323.115 124.784 324.562 124.882 325.975C124.989 327.407 124.818 328.781 124.38 330.062C123.937 331.348 123.24 332.527 122.309 333.57C121.384 334.603 120.239 335.46 118.904 336.123C117.569 336.785 116.19 337.175 114.802 337.282C114.519 337.306 114.242 337.316 113.964 337.316Z" fill="white"/>
<path d="M103.309 277.86C103.295 277.758 103.295 277.655 103.314 277.553C103.329 277.441 103.372 277.334 103.451 277.226L104.893 275.224C105.974 275.775 106.875 276.549 107.567 277.558C108.264 278.561 108.751 279.818 109.034 281.319C109.297 282.693 109.297 283.969 109.039 285.153C108.771 286.332 108.303 287.379 107.626 288.295C106.944 289.211 106.076 289.981 105.019 290.6C103.967 291.219 102.778 291.657 101.453 291.91C100.099 292.169 98.8173 292.188 97.5993 291.964C96.3862 291.74 95.29 291.306 94.3157 290.663C93.3462 290.025 92.5277 289.197 91.8554 288.169C91.1928 287.146 90.73 285.967 90.4767 284.632C90.3452 283.955 90.2866 283.302 90.2866 282.673C90.2964 282.05 90.3549 281.455 90.4669 280.895C90.579 280.335 90.7446 279.804 90.9589 279.307C91.1685 278.81 91.4218 278.362 91.7043 277.957L93.8821 279.01C94.0088 279.078 94.1355 279.166 94.2572 279.273C94.3791 279.38 94.457 279.545 94.496 279.765C94.5301 279.916 94.5251 280.067 94.4765 280.208C94.4424 280.354 94.3839 280.51 94.3205 280.676C94.2524 280.846 94.1793 281.027 94.0964 281.231C94.0235 281.426 93.96 281.66 93.9114 281.923C93.8626 282.186 93.8333 282.488 93.8285 282.829C93.8285 283.17 93.8724 283.56 93.9504 283.998C94.0867 284.69 94.3352 285.304 94.7006 285.83C95.0659 286.356 95.5386 286.785 96.1085 287.112C96.6834 287.438 97.3509 287.643 98.1108 287.735C98.8709 287.828 99.7137 287.789 100.635 287.608C101.56 287.433 102.359 287.146 103.036 286.756C103.709 286.366 104.245 285.908 104.659 285.382C105.073 284.851 105.35 284.271 105.497 283.638C105.643 283.014 105.652 282.366 105.531 281.699C105.453 281.319 105.37 280.978 105.273 280.666C105.175 280.359 105.058 280.077 104.917 279.818C104.781 279.565 104.61 279.326 104.42 279.117C104.23 278.902 103.996 278.693 103.723 278.488C103.626 278.405 103.538 278.308 103.46 278.201C103.387 278.099 103.334 277.982 103.309 277.86Z" fill="white"/>
<path d="M92.1963 279.594C92.167 279.658 92.1378 279.726 92.1085 279.789C91.9234 280.223 91.7822 280.671 91.6896 281.139C91.5922 281.631 91.5434 282.147 91.5336 282.693C91.5336 283.224 91.5872 283.799 91.6993 284.393C91.9234 285.562 92.3278 286.6 92.9027 287.492C93.4776 288.373 94.1694 289.07 95.0024 289.621C95.8307 290.171 96.7808 290.546 97.8282 290.736C98.8805 290.926 100.02 290.912 101.219 290.687C102.393 290.459 103.46 290.069 104.386 289.523C105.292 288.997 106.042 288.33 106.627 287.55C107.197 286.775 107.591 285.903 107.82 284.875C108.04 283.872 108.04 282.751 107.811 281.553C107.557 280.223 107.133 279.117 106.544 278.269C106.179 277.738 105.735 277.275 105.229 276.895L104.683 277.646C104.936 277.86 105.16 278.074 105.355 278.289C105.604 278.566 105.833 278.888 106.013 279.229C106.188 279.545 106.339 279.901 106.461 280.291C106.573 280.642 106.666 281.022 106.753 281.45C106.909 282.313 106.895 283.136 106.71 283.921C106.525 284.729 106.164 285.479 105.643 286.147C105.126 286.805 104.459 287.375 103.66 287.833C102.856 288.3 101.916 288.636 100.868 288.836C99.8353 289.031 98.8708 289.08 97.9597 288.973C97.034 288.861 96.201 288.597 95.4946 288.198C94.754 287.774 94.145 287.219 93.6773 286.542C93.2145 285.879 92.8979 285.104 92.7272 284.242C92.6298 283.696 92.5812 283.234 92.5812 282.829C92.586 282.391 92.625 282.02 92.6834 281.694C92.7469 281.353 92.8345 281.046 92.927 280.793L93.1609 280.213C93.1755 280.174 93.1901 280.135 93.2047 280.096L92.1963 279.594ZM99.3287 293.367C98.6612 293.367 98.0084 293.309 97.375 293.192C95.9964 292.938 94.7394 292.437 93.6286 291.706C92.5227 290.975 91.5727 290.015 90.8127 288.851C90.0575 287.687 89.5313 286.347 89.2488 284.866C89.1124 284.145 89.0393 283.404 89.0393 282.673C89.049 281.952 89.1172 281.28 89.2439 280.651C89.3706 280.013 89.5654 279.394 89.8139 278.815C90.0429 278.269 90.3352 277.738 90.6811 277.241L91.29 276.374L94.4227 277.889C94.6857 278.026 94.8904 278.172 95.0805 278.337C95.4166 278.635 95.6358 279.039 95.7235 279.545C95.7966 279.867 95.7771 280.257 95.6553 280.613C95.6456 280.685 95.5725 280.9 95.4848 281.119L95.2801 281.631C95.212 281.806 95.1729 281.967 95.1389 282.152C95.1 282.352 95.0805 282.586 95.0755 282.849C95.0755 283.107 95.1145 283.424 95.1779 283.779C95.2753 284.286 95.4653 284.744 95.7235 285.119C95.9817 285.489 96.3179 285.796 96.7271 286.03C97.1461 286.264 97.6625 286.425 98.2618 286.498C98.9048 286.571 99.621 286.537 100.396 286.386C101.175 286.235 101.852 286.001 102.413 285.674C102.939 285.367 103.358 285.022 103.679 284.612C103.976 284.227 104.176 283.818 104.283 283.355C104.386 282.902 104.396 282.42 104.303 281.923C104.24 281.616 104.166 281.314 104.084 281.036C104.011 280.817 103.928 280.608 103.821 280.418C103.733 280.252 103.621 280.091 103.494 279.955C103.358 279.799 103.182 279.643 102.973 279.487C102.744 279.297 102.588 279.127 102.452 278.937C102.266 278.678 102.145 278.396 102.086 278.103L102.047 277.831L102.091 277.319C102.12 277.071 102.242 276.769 102.442 276.491L104.508 273.626L105.457 274.113C106.739 274.766 107.796 275.687 108.595 276.851C109.384 277.987 109.945 279.414 110.261 281.09C110.553 282.615 110.549 284.072 110.256 285.421C109.949 286.78 109.399 287.993 108.629 289.036C107.845 290.093 106.841 290.98 105.648 291.676C104.478 292.363 103.143 292.855 101.687 293.133C100.883 293.289 100.094 293.367 99.3287 293.367Z" fill="white"/>
<path d="M106.598 245.228L106.417 249.53L87.9871 248.765L88.1625 244.458L106.598 245.228Z" fill="white"/>
<path d="M89.283 247.571L105.224 248.234L105.302 246.422L89.3561 245.754L89.283 247.571ZM107.611 250.826L86.6912 249.959L86.9689 243.162L107.894 244.034L107.611 250.826Z" fill="white"/>
<path d="M106.188 207.218L100.858 207.481C100.517 207.51 100.118 207.534 99.66 207.554C99.1971 207.573 98.7051 207.583 98.179 207.583C98.6418 207.846 99.0656 208.104 99.4457 208.368C99.8305 208.621 100.157 208.855 100.43 209.069L104.795 212.08L106.188 207.218ZM114.831 202.619L113.925 205.81C113.823 206.17 113.657 206.433 113.428 206.604C113.199 206.779 112.936 206.877 112.644 206.921L109.253 207.081L107.328 213.829L110.12 215.758C110.32 215.914 110.476 216.128 110.597 216.416C110.714 216.698 110.724 217.01 110.622 217.351L109.706 220.567L93.9307 208.631L95.1341 204.421L114.831 202.619Z" fill="white"/>
<path d="M102.047 208.67L104.074 210.068L104.508 208.548L102.047 208.67ZM95.3631 208.153L109.004 218.472L109.423 217.01L105.881 214.345L108.298 205.878L112.585 205.673L113.092 204.032L96.0987 205.586L95.8844 206.336H98.1791C98.6858 206.336 99.1633 206.326 99.6065 206.307C100.045 206.287 100.425 206.268 100.751 206.239L107.869 205.888L105.516 214.092L99.7235 210.097C99.4117 209.853 99.1096 209.639 98.7588 209.41C98.3837 209.147 97.9891 208.913 97.5604 208.67L95.5434 207.52L95.3631 208.153ZM110.407 222.662L92.4985 209.108L94.1695 203.257L116.527 201.211L115.123 206.151C114.948 206.779 114.627 207.266 114.173 207.603C113.803 207.89 113.345 208.075 112.829 208.153L110.208 208.285L108.775 213.312L110.831 214.73C111.255 215.061 111.543 215.451 111.747 215.929C111.976 216.489 112.001 217.098 111.815 217.712L110.407 222.662Z" fill="white"/>
<path d="M127.863 168.749L130.806 170.489L125.155 180.062L109.267 170.688L111.445 167L124.385 174.635L127.863 168.749Z" fill="white"/>
<path d="M110.977 170.25L124.716 178.352L129.096 170.927L128.302 170.459L124.823 176.34L111.884 168.71L110.977 170.25ZM125.593 181.772L107.557 171.127L111.007 165.29L123.946 172.929L127.425 167.039L132.516 170.05L125.593 181.772Z" fill="white"/>
<path d="M336.735 112.46L337.544 107.149C337.578 106.808 337.627 106.409 337.705 105.951C337.773 105.493 337.86 105.011 337.972 104.489C337.612 104.889 337.281 105.259 336.949 105.581C336.608 105.907 336.316 106.185 336.058 106.409L332.219 110.121L336.735 112.46ZM339.556 121.906L336.589 120.372C336.258 120.196 336.029 119.982 335.907 119.719C335.785 119.466 335.731 119.183 335.751 118.891L336.262 115.51L329.992 112.27L327.527 114.642C327.337 114.813 327.089 114.925 326.791 114.983C326.485 115.042 326.173 114.988 325.861 114.828L322.87 113.278L337.778 100.085L341.695 102.112L339.556 121.906Z" fill="white"/>
<path d="M334.333 109.81L335.766 110.555L336.146 108.06L334.333 109.81ZM329.773 110.75L337.632 114.813L336.984 119.076L338.518 119.914L340.365 102.828L339.658 102.463L339.191 104.752C339.088 105.244 339.001 105.703 338.937 106.136C338.864 106.584 338.815 106.955 338.786 107.271L337.705 114.365L330.104 110.433L335.191 105.513C335.488 105.254 335.761 104.991 336.087 104.679C336.375 104.402 336.667 104.075 336.979 103.729L338.611 101.922L337.963 101.586L325.057 113.005L326.436 113.722L329.773 110.75ZM340.598 123.85L336.014 121.478C335.425 121.166 335.01 120.752 334.777 120.245C334.567 119.811 334.475 119.31 334.509 118.808L334.898 116.206L330.212 113.79L328.395 115.539C328.005 115.89 327.557 116.104 327.03 116.206C326.456 116.309 325.842 116.226 325.291 115.938L320.682 113.551L337.593 98.5847L343.025 101.396L340.598 123.85Z" fill="white"/>
<path d="M358.678 123.236C359.151 123.587 359.594 123.831 360.008 123.957C360.427 124.089 360.822 124.128 361.192 124.074C361.562 124.026 361.898 123.894 362.205 123.685C362.512 123.475 362.79 123.207 363.038 122.881C363.526 122.233 363.701 121.56 363.55 120.873C363.404 120.187 362.887 119.509 361.991 118.842L360.607 117.799L357.294 122.194L358.678 123.236ZM360.062 136.6L356.953 134.252C356.374 133.818 356.125 133.287 356.203 132.663L356.983 126.505C357.002 126.233 356.978 126.004 356.9 125.809C356.822 125.619 356.656 125.424 356.388 125.224L355.511 124.562L351.375 130.047L347.94 127.455L359.112 112.635L363.94 116.27C365.002 117.074 365.84 117.877 366.434 118.667C367.019 119.456 367.404 120.23 367.584 120.981C367.764 121.736 367.769 122.462 367.579 123.163C367.389 123.86 367.058 124.527 366.58 125.156C366.225 125.638 365.81 126.043 365.362 126.374C364.914 126.705 364.422 126.959 363.901 127.129C363.375 127.304 362.824 127.392 362.239 127.402C361.655 127.407 361.051 127.319 360.427 127.139C360.568 127.426 360.666 127.728 360.734 128.045C360.802 128.371 360.822 128.703 360.802 129.063L360.062 136.6Z" fill="white"/>
<path d="M359.428 122.238C359.789 122.506 360.105 122.681 360.374 122.764C360.617 122.847 360.851 122.861 361.012 122.842C361.202 122.817 361.353 122.759 361.504 122.657C361.699 122.52 361.879 122.345 362.044 122.126C362.395 121.663 362.376 121.341 362.332 121.141C362.249 120.761 361.864 120.304 361.245 119.841L360.851 119.544L359.043 121.95L359.428 122.238ZM360.866 125.346C360.471 125.346 360.057 125.278 359.633 125.146C359.092 124.981 358.537 124.683 357.933 124.24L357.928 124.23L355.545 122.437L360.364 116.055L362.741 117.848C363.876 118.691 364.558 119.621 364.768 120.615C364.997 121.643 364.744 122.691 364.037 123.631C363.701 124.069 363.326 124.43 362.907 124.712C362.434 125.039 361.913 125.239 361.353 125.312C361.197 125.336 361.031 125.346 360.866 125.346ZM355.268 122.813L357.138 124.23C357.582 124.561 357.884 124.922 358.054 125.336C358.205 125.716 358.259 126.121 358.225 126.593L357.441 132.819C357.431 132.917 357.411 133.039 357.699 133.253L359.039 134.261L359.56 128.941C359.57 128.732 359.555 128.513 359.511 128.298C359.462 128.069 359.394 127.87 359.307 127.689L358.064 125.156L360.773 125.94C361.265 126.082 361.742 126.155 362.196 126.155H362.23C362.688 126.145 363.107 126.077 363.506 125.945C363.91 125.814 364.281 125.624 364.622 125.37C364.987 125.102 365.309 124.781 365.577 124.415C365.962 123.909 366.225 123.382 366.376 122.837C366.507 122.35 366.507 121.838 366.371 121.268C366.229 120.688 365.913 120.06 365.431 119.407C364.914 118.725 364.159 117.999 363.189 117.264L359.355 114.379L349.685 127.212L351.132 128.298L355.268 122.813ZM361.085 138.938L356.203 135.246C355.273 134.554 354.834 133.579 354.966 132.508L355.745 126.349L355.735 126.34L351.619 131.796L346.196 127.699L358.868 110.891L364.69 115.271C365.849 116.148 366.77 117.039 367.428 117.916C368.12 118.847 368.578 119.777 368.797 120.688C369.026 121.658 369.021 122.603 368.782 123.49C368.549 124.347 368.144 125.161 367.574 125.911C367.17 126.462 366.668 126.959 366.103 127.377C365.552 127.787 364.938 128.103 364.291 128.313C363.652 128.527 362.985 128.634 362.259 128.649C362.191 128.654 362.122 128.649 362.054 128.649C362.059 128.805 362.054 128.966 362.049 129.131L361.085 138.938Z" fill="white"/>
<path d="M370.609 146.709L367.535 143.659L380.626 130.496L383.7 133.55L370.609 146.709Z" fill="white"/>
<path d="M369.299 143.654L370.604 144.945L381.936 133.555L380.631 132.259L369.299 143.654ZM370.614 148.473L365.771 143.664L380.621 128.732L385.464 133.545L370.614 148.473Z" fill="white"/>
<path d="M396.796 154.684C396.552 154.709 396.352 154.699 396.187 154.65C396.016 154.601 395.87 154.49 395.733 154.319C395.607 154.163 395.529 153.958 395.49 153.705C395.451 153.452 395.402 153.164 395.349 152.848C395.295 152.531 395.198 152.185 395.076 151.825C394.944 151.464 394.74 151.094 394.452 150.724C393.955 150.09 393.449 149.72 392.937 149.623C392.426 149.52 391.933 149.652 391.475 150.012C391.183 150.241 391.003 150.529 390.959 150.865C390.91 151.206 390.94 151.581 391.032 152C391.134 152.409 391.271 152.857 391.456 153.345C391.651 153.822 391.826 154.329 392.006 154.845C392.177 155.371 392.318 155.897 392.43 156.443C392.542 156.989 392.567 157.53 392.503 158.07C392.44 158.611 392.26 159.137 391.972 159.663C391.69 160.19 391.242 160.691 390.638 161.164C389.956 161.69 389.234 162.07 388.455 162.294C387.685 162.518 386.91 162.577 386.126 162.474C385.337 162.372 384.557 162.095 383.807 161.632C383.037 161.179 382.336 160.531 381.693 159.702C381.332 159.244 381.02 158.747 380.743 158.197C380.47 157.651 380.246 157.096 380.08 156.521C379.9 155.941 379.778 155.371 379.715 154.796C379.647 154.226 379.642 153.686 379.705 153.169L382.073 152.94C382.248 152.935 382.433 152.965 382.609 153.033C382.794 153.101 382.94 153.218 383.052 153.374C383.213 153.569 383.31 153.822 383.339 154.129C383.374 154.431 383.408 154.772 383.456 155.147C383.505 155.527 383.598 155.932 383.729 156.365C383.866 156.804 384.104 157.247 384.46 157.705C384.942 158.319 385.454 158.694 385.99 158.821C386.526 158.952 387.091 158.791 387.68 158.329C388.021 158.061 388.231 157.749 388.294 157.398C388.362 157.042 388.348 156.658 388.25 156.243C388.158 155.829 388.007 155.386 387.812 154.913C387.617 154.441 387.422 153.954 387.237 153.437C387.052 152.931 386.901 152.409 386.794 151.868C386.682 151.328 386.662 150.787 386.73 150.241C386.808 149.691 387.003 149.145 387.32 148.595C387.641 148.044 388.148 147.503 388.83 146.972C389.376 146.544 389.994 146.232 390.696 146.047C391.388 145.861 392.109 145.822 392.849 145.934C393.595 146.047 394.33 146.319 395.061 146.748C395.792 147.177 396.474 147.8 397.093 148.599C397.439 149.048 397.75 149.515 398.009 149.993C398.267 150.475 398.481 150.962 398.647 151.45C398.803 151.937 398.915 152.424 398.983 152.901C399.056 153.384 399.066 153.851 399.027 154.299L396.796 154.684Z" fill="white"/>
<path d="M380.918 154.285C380.928 154.402 380.937 154.524 380.952 154.65C381.011 155.157 381.113 155.649 381.269 156.151C381.425 156.677 381.62 157.164 381.858 157.642C382.097 158.109 382.36 158.538 382.672 158.933C383.232 159.649 383.822 160.195 384.44 160.555C385.049 160.93 385.663 161.159 386.287 161.237C386.896 161.315 387.5 161.276 388.104 161.096C388.728 160.92 389.302 160.618 389.877 160.175C390.335 159.814 390.676 159.444 390.871 159.074C391.095 158.67 391.222 158.294 391.266 157.924C391.315 157.515 391.295 157.111 391.207 156.692C391.105 156.195 390.978 155.712 390.818 155.23C390.637 154.714 390.477 154.251 390.301 153.817C390.087 153.247 389.936 152.755 389.824 152.302C389.687 151.683 389.658 151.167 389.726 150.689C389.809 150.046 390.15 149.467 390.706 149.028C391.451 148.448 392.304 148.229 393.181 148.4C393.984 148.551 394.744 149.077 395.431 149.954C395.797 150.417 396.065 150.904 396.245 151.396C396.401 151.854 396.513 152.263 396.576 152.638L396.708 153.432L397.77 153.252C397.765 153.198 397.76 153.14 397.75 153.086C397.692 152.667 397.594 152.248 397.458 151.829C397.322 151.425 397.136 151.001 396.908 150.582C396.683 150.168 396.411 149.754 396.104 149.359C395.582 148.687 395.017 148.171 394.428 147.825C393.838 147.474 393.244 147.255 392.664 147.167C392.099 147.089 391.548 147.109 391.017 147.25C390.486 147.391 390.024 147.62 389.6 147.951C389.039 148.39 388.635 148.819 388.396 149.223C388.162 149.627 388.021 150.022 387.963 150.417C387.914 150.811 387.929 151.211 388.016 151.615C388.114 152.102 388.245 152.56 388.406 153.008C388.591 153.515 388.776 153.983 388.966 154.436C389.19 154.982 389.361 155.493 389.468 155.97C389.6 156.541 389.619 157.106 389.517 157.632C389.405 158.265 389.035 158.85 388.45 159.308C387.329 160.185 386.335 160.18 385.692 160.034C384.889 159.844 384.143 159.317 383.481 158.475C383.028 157.895 382.721 157.33 382.54 156.735C382.384 156.219 382.277 155.751 382.219 155.308L382.077 154.148L380.918 154.285ZM386.867 163.77C386.565 163.77 386.267 163.751 385.965 163.712C384.991 163.585 384.041 163.244 383.154 162.694C382.282 162.182 381.454 161.427 380.709 160.467C380.304 159.951 379.944 159.386 379.627 158.757C379.32 158.138 379.067 157.515 378.882 156.867C378.687 156.234 378.545 155.586 378.477 154.933C378.394 154.27 378.394 153.622 378.467 153.018L378.589 152.024L381.951 151.698C382.418 151.698 382.74 151.742 383.062 151.868C383.451 152.015 383.807 152.283 384.065 152.648C384.338 152.969 384.528 153.452 384.582 154.012L384.694 154.986C384.733 155.303 384.811 155.644 384.923 156.005C385.01 156.292 385.191 156.609 385.444 156.94C385.736 157.31 386.033 157.549 386.277 157.607C386.501 157.637 386.755 157.461 386.91 157.349C387.105 156.984 387.091 156.77 387.037 156.531C386.954 156.165 386.823 155.79 386.657 155.391C386.457 154.899 386.253 154.392 386.063 153.856C385.858 153.301 385.688 152.716 385.571 152.112C385.434 151.454 385.405 150.767 385.493 150.085C385.595 149.359 385.843 148.658 386.238 147.971C386.642 147.284 387.251 146.621 388.065 145.988C388.747 145.452 389.527 145.067 390.379 144.838C391.237 144.614 392.138 144.561 393.034 144.702C393.931 144.833 394.822 145.165 395.694 145.671C396.557 146.178 397.361 146.909 398.077 147.835C398.466 148.341 398.817 148.863 399.105 149.398C399.397 149.949 399.641 150.499 399.826 151.05C400.011 151.625 400.138 152.18 400.216 152.726C400.298 153.272 400.318 153.841 400.269 154.407L400.186 155.366L396.917 155.927C396.518 155.956 396.152 155.941 395.836 155.849C395.426 155.732 395.061 155.478 394.759 155.098C394.501 154.782 394.33 154.373 394.257 153.895L394.121 153.072C394.077 152.799 393.994 152.516 393.892 152.224C393.814 152 393.668 151.742 393.468 151.488C393.044 150.948 392.776 150.86 392.703 150.845C392.63 150.831 392.489 150.806 392.245 150.992C392.167 151.216 392.187 151.449 392.25 151.732C392.333 152.063 392.455 152.468 392.62 152.901C392.805 153.349 392.981 153.851 393.156 154.363C393.375 155.03 393.531 155.6 393.653 156.195C393.79 156.867 393.819 157.544 393.741 158.217C393.663 158.908 393.439 159.581 393.068 160.263C392.708 160.93 392.148 161.563 391.407 162.148C390.584 162.781 389.712 163.23 388.801 163.493C388.167 163.678 387.519 163.77 386.867 163.77Z" fill="white"/>
<path d="M402.876 178.873L406.491 174.898C406.71 174.635 406.978 174.333 407.29 173.991C407.601 173.65 407.952 173.3 408.323 172.925C407.811 173.066 407.324 173.178 406.871 173.266C406.408 173.353 406.013 173.422 405.662 173.465L400.42 174.425L402.876 178.873ZM399.987 188.295L398.369 185.372C398.189 185.046 398.121 184.744 398.16 184.456C398.199 184.174 398.306 183.911 398.491 183.677L400.791 181.148L397.366 174.976L394.009 175.585C393.756 175.619 393.483 175.575 393.2 175.458C392.918 175.336 392.689 175.122 392.513 174.81L390.881 171.867L410.603 169.159L412.736 173.012L399.987 188.295Z" fill="white"/>
<path d="M402.349 175.341L403.124 176.744L404.815 174.888L402.349 175.341ZM398.023 173.587L402.315 181.324L399.412 184.515L400.225 186.064L411.231 172.871L410.836 172.155L409.209 173.802C408.756 174.26 408.469 174.552 408.21 174.834C407.913 175.156 407.66 175.443 407.45 175.697L402.627 181.002L398.491 173.509L405.438 172.238C405.838 172.189 406.203 172.121 406.637 172.038C407.056 171.96 407.514 171.853 407.991 171.721L410.252 171.098L409.925 170.508L392.854 172.856L393.604 174.206L398.023 173.587ZM399.777 190.493L397.278 185.976C396.966 185.411 396.849 184.846 396.922 184.291C396.995 183.774 397.195 183.307 397.512 182.902L399.266 180.973L396.708 176.364L394.233 176.812C393.697 176.886 393.215 176.812 392.723 176.613C392.167 176.369 391.738 175.974 391.427 175.424L388.908 170.878L411.28 167.809L414.242 173.154L399.777 190.493Z" fill="white"/>
<path d="M426.743 206.784L409.18 212.796L408.459 210.672C408.352 210.36 408.313 210.077 408.337 209.829C408.361 209.585 408.469 209.313 408.644 209.02L416.283 197.152C415.986 197.294 415.689 197.416 415.396 197.532C415.114 197.644 414.831 197.742 414.578 197.83L405.165 201.055L403.933 197.459L421.496 191.447L422.236 193.596C422.29 193.771 422.334 193.927 422.363 194.049C422.383 194.176 422.392 194.298 422.383 194.41C422.373 194.517 422.344 194.634 422.29 194.751C422.241 194.863 422.158 194.999 422.071 195.16L414.378 207.125C414.7 206.969 415.021 206.828 415.333 206.701C415.64 206.58 415.942 206.467 416.215 206.37L425.51 203.194L426.743 206.784Z" fill="white"/>
<path d="M419.703 194.146L409.691 209.697C409.594 209.863 409.579 209.956 409.579 209.956C409.575 209.975 409.575 210.078 409.638 210.268L409.959 211.213L425.16 206.009L424.736 204.777L416.619 207.549C416.376 207.637 416.088 207.744 415.791 207.861C415.513 207.973 415.221 208.104 414.924 208.246L410.929 210.185L421.023 194.487L421.043 193.961L420.721 193.031L405.516 198.234L405.94 199.471L414.174 196.651C414.422 196.563 414.68 196.475 414.938 196.373C415.202 196.266 415.474 196.154 415.747 196.027L419.703 194.146ZM408.4 214.379L407.28 211.071C407.114 210.599 407.056 210.141 407.095 209.707C407.139 209.279 407.294 208.845 407.572 208.377L413.214 199.613L404.391 202.638L402.35 196.685L422.271 189.864L423.416 193.192C423.493 193.435 423.542 193.616 423.576 193.757C423.635 194.103 423.644 194.317 423.625 194.517C423.601 194.78 423.532 195.028 423.425 195.272L423.235 195.632L417.462 204.626L426.285 201.61L428.326 207.559L408.4 214.379Z" fill="white"/>
<path d="M433.627 254.207L415.094 255.176L414.977 252.935C414.958 252.604 414.997 252.321 415.094 252.093C415.192 251.864 415.357 251.63 415.611 251.396L426.212 242.076C425.89 242.13 425.569 242.168 425.257 242.198C424.945 242.227 424.658 242.251 424.39 242.261L414.451 242.782L414.256 238.987L432.789 238.023L432.911 240.288C432.921 240.473 432.916 240.634 432.906 240.765C432.896 240.887 432.877 241.004 432.828 241.106C432.789 241.214 432.726 241.311 432.653 241.413C432.565 241.511 432.463 241.623 432.321 241.75L421.642 251.142C422.003 251.084 422.344 251.035 422.68 251.006C423.016 250.967 423.328 250.943 423.62 250.928L433.432 250.421L433.627 254.207Z" fill="white"/>
<path d="M430.319 240.127L416.434 252.331C416.312 252.443 416.259 252.536 416.244 252.58L416.293 253.866L432.316 253.028L432.248 251.732L423.683 252.175C423.415 252.185 423.133 252.209 422.821 252.244C422.48 252.278 422.168 252.322 421.842 252.375L417.564 253.067L431.498 240.814C431.59 240.731 431.664 240.649 431.727 240.58H431.722C431.668 240.58 431.673 240.473 431.664 240.351L431.61 239.333L415.567 240.166L415.635 241.472L424.327 241.014C424.59 241.004 424.853 240.985 425.14 240.955C425.423 240.931 425.715 240.892 426.007 240.843L430.319 240.127ZM413.915 256.487L413.73 252.999C413.701 252.482 413.774 252.01 413.945 251.605C414.12 251.201 414.393 250.821 414.763 250.48L422.582 243.606L413.267 244.093L412.946 237.808L433.968 236.712L434.158 240.22C434.168 240.468 434.163 240.683 434.148 240.858C434.134 241.053 434.099 241.34 433.953 241.642C433.909 241.784 433.783 241.979 433.666 242.139C433.466 242.373 433.335 242.514 433.154 242.68L425.291 249.593L434.611 249.111L434.937 255.386L413.915 256.487Z" fill="white"/>
<path d="M420.453 276.934L413.448 276.067L413.979 271.794L420.98 272.657L433.227 267.395L432.76 271.156C432.716 271.531 432.594 271.809 432.394 272.009C432.195 272.199 431.951 272.355 431.659 272.462L425.978 274.406C425.535 274.576 425.116 274.722 424.721 274.854C424.341 274.985 423.956 275.098 423.586 275.185C423.932 275.356 424.278 275.551 424.624 275.755C424.97 275.969 425.34 276.208 425.725 276.476L430.767 279.721C430.87 279.789 430.977 279.877 431.074 279.974C431.172 280.072 431.259 280.184 431.332 280.315C431.405 280.432 431.464 280.573 431.493 280.724C431.537 280.88 431.542 281.051 431.522 281.221L431.055 285.017L420.453 276.934Z" fill="white"/>
<path d="M414.841 274.981L420.94 275.736L430.08 282.707L430.285 281.07L430.767 279.721L430.09 280.768L425.047 277.524C424.648 277.246 424.297 277.017 423.966 276.817C423.669 276.642 423.352 276.462 423.035 276.306L419.922 274.771L423.298 273.972C423.63 273.894 423.976 273.792 424.312 273.675C424.706 273.543 425.106 273.407 425.53 273.241L431.254 271.283C431.352 271.249 431.449 271.185 431.537 271.108L431.737 269.393L421.16 273.938L415.065 273.183L414.841 274.981ZM432.029 287.326L419.966 278.133L412.054 277.153L412.892 270.406L420.799 271.375L434.733 265.393L433.997 271.312C433.924 271.955 433.68 272.486 433.276 272.891C432.92 273.227 432.531 273.47 432.087 273.631L426.553 275.526L431.444 278.674C431.624 278.795 431.8 278.937 431.956 279.092C432.141 279.278 432.297 279.482 432.423 279.711C432.545 279.906 432.662 280.194 432.716 280.486C432.779 280.686 432.799 281.017 432.76 281.363L432.029 287.326Z" fill="white"/>
<path d="M415.708 307.344C416.585 307.608 417.413 307.729 418.183 307.715C418.953 307.695 419.649 307.544 420.263 307.262C420.882 306.984 421.408 306.575 421.856 306.034C422.305 305.493 422.646 304.831 422.88 304.041C423.123 303.242 423.201 302.492 423.123 301.79C423.05 301.089 422.841 300.456 422.475 299.881C422.119 299.306 421.618 298.799 420.989 298.361C420.346 297.922 419.591 297.572 418.714 297.308C417.827 297.045 416.994 296.919 416.225 296.938C415.45 296.953 414.758 297.104 414.139 297.381C413.526 297.664 412.995 298.078 412.551 298.624C412.108 299.169 411.772 299.842 411.533 300.636C411.294 301.425 411.207 302.171 411.28 302.862C411.348 303.559 411.567 304.192 411.928 304.767C412.288 305.337 412.785 305.844 413.423 306.282C414.062 306.726 414.822 307.077 415.708 307.344ZM414.437 311.563C413.155 311.179 412.02 310.599 411.051 309.824C410.071 309.05 409.302 308.134 408.727 307.086C408.147 306.034 407.796 304.869 407.67 303.598C407.553 302.326 407.694 300.996 408.113 299.613C408.527 298.229 409.136 297.036 409.94 296.037C410.749 295.038 411.674 294.259 412.736 293.693C413.798 293.123 414.948 292.787 416.186 292.675C417.423 292.563 418.69 292.7 419.976 293.089C421.262 293.469 422.392 294.054 423.367 294.829C424.341 295.603 425.111 296.514 425.686 297.572C426.251 298.624 426.602 299.788 426.723 301.065C426.845 302.346 426.699 303.671 426.285 305.06C425.871 306.438 425.262 307.632 424.448 308.626C423.644 309.62 422.709 310.399 421.662 310.959C420.6 311.525 419.455 311.856 418.212 311.973C416.975 312.08 415.718 311.948 414.437 311.563Z" fill="white"/>
<path d="M416.069 306.151C416.814 306.375 417.545 306.506 418.159 306.467C418.753 306.453 419.284 306.341 419.742 306.126C420.19 305.927 420.565 305.639 420.897 305.24C421.233 304.83 421.501 304.309 421.686 303.686C421.876 303.052 421.944 302.463 421.886 301.927C421.827 301.401 421.676 300.953 421.423 300.548C421.155 300.119 420.77 299.73 420.278 299.384C419.752 299.023 419.099 298.726 418.354 298.502C417.589 298.278 416.868 298.176 416.254 298.185C415.65 298.195 415.124 298.307 414.651 298.521C414.217 298.721 413.842 299.014 413.521 299.408C413.185 299.817 412.921 300.353 412.727 300.996C412.537 301.63 412.464 302.214 412.522 302.731C412.571 303.237 412.722 303.686 412.985 304.105C413.253 304.528 413.638 304.918 414.13 305.254C414.656 305.62 415.309 305.922 416.069 306.151ZM418.066 308.962C417.199 308.962 416.288 308.821 415.348 308.538C414.32 308.226 413.457 307.827 412.712 307.305C411.947 306.779 411.328 306.151 410.875 305.435C410.403 304.684 410.125 303.861 410.037 302.984C409.95 302.146 410.052 301.23 410.339 300.275C410.627 299.32 411.046 298.502 411.582 297.839C412.147 297.148 412.829 296.612 413.618 296.246C414.407 295.896 415.27 295.71 416.2 295.691C417.058 295.681 418.052 295.813 419.07 296.115C420.064 296.412 420.945 296.821 421.691 297.328C422.48 297.878 423.099 298.517 423.537 299.223C423.99 299.939 424.268 300.762 424.366 301.659C424.458 302.526 424.361 303.457 424.073 304.407C423.796 305.342 423.372 306.16 422.816 306.828C422.246 307.52 421.559 308.046 420.775 308.402C420.02 308.747 419.153 308.937 418.212 308.962H418.066ZM417.019 293.883C416.775 293.883 416.536 293.898 416.298 293.918C415.226 294.015 414.227 294.307 413.326 294.794C412.41 295.282 411.621 295.944 410.909 296.821C410.213 297.683 409.672 298.745 409.307 299.968C408.941 301.181 408.81 302.36 408.912 303.486C409.019 304.577 409.326 305.591 409.818 306.482C410.32 307.393 410.992 308.187 411.825 308.845C412.663 309.517 413.662 310.029 414.797 310.37C415.908 310.701 417.009 310.818 418.105 310.73C419.192 310.628 420.166 310.341 421.077 309.858C421.978 309.376 422.787 308.699 423.479 307.841C424.18 306.984 424.721 305.927 425.091 304.699C425.462 303.462 425.588 302.307 425.481 301.181C425.379 300.09 425.077 299.072 424.585 298.161C424.093 297.25 423.44 296.48 422.592 295.803C421.74 295.126 420.741 294.614 419.62 294.288C418.743 294.02 417.871 293.883 417.019 293.883ZM417.389 313.254C416.288 313.254 415.177 313.088 414.076 312.757C412.639 312.323 411.358 311.666 410.271 310.799C409.185 309.936 408.293 308.889 407.635 307.685C406.978 306.497 406.573 305.162 406.427 303.72C406.296 302.268 406.461 300.767 406.919 299.252C407.377 297.722 408.069 296.373 408.97 295.252C409.886 294.122 410.953 293.231 412.152 292.592C413.345 291.949 414.666 291.559 416.074 291.433C417.457 291.301 418.904 291.462 420.337 291.896C421.754 292.315 423.035 292.972 424.141 293.854C425.243 294.726 426.129 295.779 426.782 296.977C427.43 298.185 427.829 299.52 427.966 300.948C428.102 302.375 427.937 303.88 427.479 305.415C427.016 306.964 426.319 308.309 425.413 309.415C424.517 310.526 423.45 311.417 422.251 312.06C421.057 312.694 419.737 313.083 418.329 313.215C418.018 313.239 417.701 313.254 417.389 313.254Z" fill="white"/>
<path d="M409.16 327.874L408.849 328.484C408.556 329.053 408.527 329.55 408.751 329.979L412.269 336.449C412.449 336.819 412.522 337.155 412.503 337.467C412.488 337.774 412.381 338.125 412.191 338.5L410.495 341.837L406.296 333.531C406.008 332.951 405.867 332.405 405.862 331.899C405.614 332.132 405.331 332.322 405.019 332.459C404.717 332.6 404.357 332.693 403.952 332.742L393.731 333.838L395.48 330.408C395.587 330.193 395.695 330.008 395.807 329.867C395.919 329.731 396.031 329.619 396.148 329.536C396.269 329.453 396.391 329.394 396.518 329.355C396.65 329.317 396.791 329.287 396.942 329.268L404.605 328.449C404.883 328.415 405.127 328.323 405.321 328.157C405.512 327.991 405.701 327.728 405.877 327.378L406.354 326.447L399.31 322.866L401.263 319.027L417.813 327.436L415.859 331.275L409.16 327.874Z" fill="white"/>
<path d="M407.08 329.039L407.109 331.889C407.114 332.21 407.216 332.576 407.411 332.975L410.5 339.08L411.08 337.935C411.236 337.628 411.255 337.453 411.255 337.409C411.265 337.292 411.226 337.155 411.148 336.995L407.655 330.573C407.353 329.999 407.134 329.092 407.738 327.914L408.615 326.199L415.313 329.599L416.137 327.982L401.809 320.703L400.985 322.321L408.035 325.901L406.987 327.948C406.744 328.43 406.461 328.82 406.14 329.097C405.755 329.429 405.292 329.623 404.756 329.687L397.073 330.51L395.806 329.867L396.786 330.642C396.756 330.676 396.698 330.763 396.596 330.963L395.889 332.352L403.821 331.499C404.079 331.47 404.318 331.411 404.493 331.329C404.693 331.241 404.858 331.129 405.009 330.993L407.08 329.039ZM410.49 344.595L405.185 334.096C405.131 333.989 405.082 333.886 405.039 333.784C404.756 333.872 404.439 333.94 404.103 333.979L391.573 335.324L394.369 329.843C394.525 329.531 394.671 329.292 394.827 329.092C395.032 328.844 395.222 328.664 395.426 328.518C395.665 328.352 395.904 328.24 396.152 328.162C396.357 328.103 396.562 328.06 396.781 328.03L404.473 327.207C404.503 327.207 404.571 327.153 404.668 326.988L397.633 323.412L400.717 317.351L419.489 326.89L416.405 332.951L410.027 329.711L413.365 335.855C413.662 336.459 413.779 337.009 413.745 337.545C413.725 338.008 413.574 338.524 413.301 339.065L410.49 344.595Z" fill="white"/>
<path d="M401.258 355.839L395.276 351.669C394.633 351.221 394.028 350.743 393.454 350.227C392.869 349.71 392.294 349.165 391.729 348.58L393.259 346.383C393.999 346.709 394.72 347.06 395.402 347.425C396.084 347.786 396.747 348.19 397.39 348.638L403.368 352.799L401.258 355.839ZM390.024 342.977C390.277 343.153 390.482 343.367 390.628 343.611C390.779 343.854 390.876 344.117 390.925 344.39C390.969 344.668 390.959 344.946 390.901 345.238C390.837 345.525 390.715 345.803 390.53 346.066C390.355 346.324 390.141 346.534 389.887 346.69C389.639 346.846 389.381 346.953 389.098 347.011C388.815 347.065 388.543 347.065 388.255 347.006C387.982 346.953 387.714 346.836 387.461 346.66C387.208 346.485 387.013 346.276 386.857 346.027C386.701 345.784 386.604 345.52 386.56 345.238C386.516 344.965 386.521 344.678 386.594 344.39C386.657 344.108 386.774 343.835 386.954 343.572C387.144 343.309 387.354 343.099 387.598 342.938C387.846 342.778 388.104 342.675 388.377 342.617C388.655 342.568 388.932 342.573 389.22 342.631C389.507 342.69 389.775 342.807 390.024 342.977Z" fill="white"/>
<path d="M388.757 343.83C388.703 343.83 388.65 343.835 388.591 343.845C388.504 343.864 388.387 343.913 388.275 343.986C388.172 344.054 388.07 344.156 387.968 344.302C387.9 344.4 387.841 344.527 387.812 344.663C387.778 344.804 387.773 344.921 387.792 345.038C387.812 345.16 387.846 345.262 387.909 345.355C387.982 345.477 388.065 345.559 388.172 345.637C388.285 345.71 388.392 345.764 388.494 345.784C388.635 345.808 388.742 345.818 388.864 345.784C388.976 345.764 389.098 345.71 389.225 345.632C389.332 345.564 389.42 345.481 389.498 345.364C389.595 345.223 389.653 345.101 389.683 344.97C389.707 344.843 389.712 344.712 389.692 344.585C389.673 344.488 389.634 344.371 389.566 344.268C389.502 344.161 389.425 344.078 389.317 344.005C389.205 343.927 389.088 343.879 388.971 343.854C388.898 343.84 388.825 343.83 388.757 343.83ZM393.351 348.434C393.658 348.731 393.965 349.014 394.277 349.291C394.823 349.783 395.388 350.227 395.987 350.646L400.946 354.1L401.633 353.111L396.679 349.661C396.075 349.243 395.456 348.863 394.818 348.526C394.452 348.331 394.072 348.137 393.687 347.952L393.351 348.434ZM401.57 357.578L394.564 352.692C393.877 352.214 393.234 351.703 392.62 351.152C392.021 350.621 391.422 350.056 390.832 349.447L390.121 348.711L391.062 347.352C390.906 347.503 390.73 347.635 390.54 347.752C390.17 347.986 389.775 348.146 389.351 348.234C388.884 348.331 388.445 348.317 388.007 348.229C387.573 348.141 387.149 347.961 386.75 347.683C386.365 347.416 386.053 347.094 385.8 346.69C385.561 346.315 385.4 345.886 385.327 345.428C385.254 344.975 385.274 344.522 385.386 344.083C385.478 343.674 385.659 343.255 385.926 342.865C386.229 342.446 386.545 342.139 386.911 341.896C387.286 341.657 387.685 341.491 388.114 341.399C388.591 341.316 389.04 341.316 389.468 341.409C389.917 341.501 390.34 341.681 390.73 341.949L390.735 341.954C391.134 342.232 391.461 342.573 391.7 342.968C391.919 343.323 392.075 343.737 392.153 344.171C392.226 344.619 392.211 345.038 392.123 345.481C392.075 345.705 392.007 345.92 391.919 346.125L392.82 344.829L393.76 345.243C394.53 345.579 395.281 345.944 395.992 346.324C396.713 346.709 397.419 347.138 398.101 347.615L405.102 352.487L401.57 357.578Z" fill="white"/>
</g>
</g>
<defs>
<clipPath id="clip0_2579_596">
<rect width="523" height="523" fill="white"/>
</clipPath>
</defs>
</svg>
