<svg width="641" height="641" viewBox="0 0 641 641" fill="none" xmlns="http://www.w3.org/2000/svg">
<path d="M418.287 347.032L386.293 345.714C388.615 289.321 363.359 274.001 302.339 236.985C288.868 228.813 273.599 219.55 257.112 208.813C159.548 145.276 192.215 53.9849 209.764 4.94063C210.367 3.25631 210.956 1.6088 211.528 -1.85209e-05L241.703 10.7148C241.123 12.3474 240.525 14.0198 239.914 15.729C222.318 64.9016 198.22 132.247 274.588 181.981C290.645 192.437 305.681 201.559 318.948 209.607C380.635 247.028 421.387 271.75 418.287 347.032Z" fill="#43B877"/>
<path d="M377.673 590.549L346.756 582.212C346.811 582.006 353.079 557.907 351.309 525.812C348.998 483.923 334.752 448.641 308.966 420.947C238.204 344.945 238.274 243.573 244.613 189.911L276.413 193.668C270.724 241.831 270.431 332.566 332.402 399.127C363.249 432.257 380.864 475.862 383.343 525.227C385.198 562.143 377.982 589.407 377.673 590.549Z" fill="#F26F23"/>
<path d="M314.465 80.8331C299.945 80.8597 288.153 92.694 288.18 107.213C288.206 121.733 300.041 133.524 314.561 133.497C329.081 133.471 340.872 121.636 340.845 107.117C340.819 92.5977 328.984 80.8065 314.465 80.8331ZM314.62 165.518C282.443 165.577 256.218 139.448 256.159 107.272C256.1 75.0954 282.23 48.8708 314.406 48.8118C346.583 48.7531 372.807 74.8821 372.866 107.058C372.925 139.235 346.796 165.46 314.62 165.518Z" fill="#EE5A9F"/>
<path d="M270.445 306.871L267.585 274.978L269.015 290.924L267.51 274.984C267.889 274.947 305.648 270.862 328.424 239.806L354.245 258.744C322.724 301.723 272.564 306.68 270.445 306.871Z" fill="#F26F23"/>
<path d="M198.408 390.408C203.152 390.393 206.446 387.782 206.544 383.959C206.645 379.997 203.149 377.048 198.361 377.057C193.592 377.066 190.09 380.055 190.211 384.012C190.327 387.797 193.693 390.424 198.408 390.408ZM206.576 364.449C206.573 362.922 206.57 361.308 206.567 359.693C206.551 350.159 206.549 340.625 206.51 331.092C206.497 327.828 207.35 324.972 210.538 323.555C213.493 322.242 216.124 323.202 218.579 325.173C223.963 329.495 229.473 333.662 234.855 337.987C238.851 341.199 239.575 344.713 237.126 347.981C234.676 351.25 230.606 351.38 226.541 348.297C224.679 346.885 222.845 345.437 220.288 343.455C220.155 345.432 219.983 346.81 219.982 348.189C219.978 359.381 219.963 370.573 220.034 381.765C220.159 401.657 201.341 406.878 188.958 401.73C180.614 398.261 175.553 389.516 176.954 381.12C178.492 371.902 186.975 364.338 196.579 363.897C199.709 363.753 202.867 364.224 206.576 364.449Z" fill="#43B877"/>
<path d="M417.025 240.108C416.929 236.344 413.193 233.499 408.475 233.599C403.961 233.694 400.423 236.567 400.372 240.178C400.319 243.892 404.125 246.979 408.741 246.967C413.369 246.955 417.121 243.849 417.025 240.108ZM417.027 220.466C417.009 210.275 417.046 199.523 416.937 188.773C416.901 185.312 417.023 181.966 420.514 180.172C424.164 178.297 427.07 180.125 429.9 182.42C435.047 186.594 440.364 190.556 445.511 194.729C449.137 197.669 449.764 201.403 447.409 204.485C444.97 207.678 441.009 207.897 437.167 204.999C435.097 203.437 433.08 201.804 430.423 199.72C430.305 201.689 430.161 202.967 430.161 204.245C430.161 216.124 430.285 228.004 430.174 239.883C430.071 250.932 422.504 258.776 411.057 260.02C400.011 261.22 390.154 254.71 387.681 244.582C384.92 233.278 393.374 221.839 405.653 220.543C409.16 220.173 412.738 220.474 417.027 220.466Z" fill="#F26F23"/>
<path d="M417.979 80.5571C426.245 77.4331 431.702 72.0124 434.849 63.6625C438.384 71.6508 443.594 77.4925 452.149 80.3973C444.051 83.8489 438.113 88.9654 435.126 97.563C431.825 89.2981 426.371 83.7062 417.979 80.5571Z" fill="#F9BD47"/>
<path d="M123.801 32.1235C132.066 28.9995 137.524 23.5788 140.671 15.2289C144.205 23.2172 149.415 29.059 157.97 31.9637C149.872 35.4153 143.935 40.5318 140.948 49.1294C137.646 40.8645 132.192 35.2726 123.801 32.1235Z" fill="#B43A91"/>
<path d="M274.588 181.981C264.148 175.181 255.643 168.046 248.685 160.679L248.619 160.679C246.973 165.639 243.723 198.311 243.638 199.155C247.851 202.431 252.279 205.664 257.112 208.814C263.039 212.673 268.743 216.281 274.33 219.779C274.613 208.836 277.47 183.851 277.47 183.851L277.48 183.837C276.507 183.208 275.569 182.619 274.588 181.981Z" fill="#305729"/>
<path d="M340.658 222.921C335.168 233.427 321.083 248.433 321.083 248.433L321.081 248.443C331.357 254.812 340.36 260.657 348.1 266.374L348.133 266.366C357.329 255.063 367.175 241.001 367.259 240.881C359.156 234.83 350.262 228.944 340.658 222.921Z" fill="#305729"/>
<path d="M355.41 641.005L328.66 623.404C353.024 586.373 383.515 464.579 383.414 409.266L412.989 410.476C413.092 466.79 385.235 595.675 355.41 641.005Z" fill="#18B3E4"/>
<path d="M304.624 409.41L304.274 415.692C305.815 417.452 307.352 419.213 308.966 420.947C334.752 448.641 348.998 483.923 351.309 525.812C353.079 557.906 346.81 582.006 346.756 582.212L377.673 590.549C377.981 589.407 385.197 562.143 383.343 525.228C380.864 475.861 363.249 432.256 332.402 399.127C325.935 392.181 320.182 384.96 315.007 377.563L304.624 409.41Z" fill="#B43A91"/>
<path d="M260.456 596.155L234.777 577.025C288.044 505.52 289.909 391.302 289.922 390.157L321.942 390.479C321.892 395.574 320.04 516.172 260.456 596.155Z" fill="#F9BD48"/>
<path d="M321.935 386.93L321.938 386.916C308.738 370.217 298.98 352.346 291.833 334.236L291.793 334.211C291.792 350.003 289.702 396.154 289.654 397.199C295.424 405.321 301.817 413.268 308.966 420.947C312.424 424.661 315.658 428.522 318.7 432.506L318.717 432.497C322.412 398.527 321.935 386.93 321.935 386.93Z" fill="#EF4926"/>
<path d="M380.454 583.561C391.257 543.422 379.279 484.689 375.533 476.686C375.546 484.003 375.533 476.673 375.533 476.673C364.892 532.957 344.543 597.829 327.86 623.186L355.41 641.005C364.147 627.726 372.707 607.253 380.454 583.561Z" fill="#204196"/>
<path d="M337.09 554.793C337.789 546.724 338.151 537.066 337.566 526.465C337.102 518.035 335.992 509.965 334.488 502.123C329.864 502.462 325.211 502.694 320.502 502.694C319.559 502.694 318.63 502.637 317.691 502.623C312.937 519.753 306.885 537.304 299.169 554.431C306.205 555.049 313.309 555.425 320.502 555.425C326.083 555.425 331.602 555.166 337.09 554.793Z" fill="#6E8BC7"/>
<path d="M313.936 93.9417H313.911C306.663 93.9545 300.773 99.8636 300.786 107.115C300.792 110.616 302.17 113.912 304.661 116.397C307.152 118.875 310.441 120.239 313.936 120.239H313.956C317.457 120.233 320.759 118.856 323.244 116.361C325.729 113.867 327.093 110.565 327.087 107.063C327.08 103.565 325.703 100.269 323.212 97.7845C320.721 95.3062 317.432 93.9417 313.936 93.9417Z" fill="#6E8BC7"/>
<path d="M234.523 86.9474C233.448 104.591 236.582 122.041 247.352 138.56C248.02 138.279 248.706 138.033 249.378 137.759C244.877 128.323 242.415 117.969 242.397 107.218C242.382 98.5716 243.987 90.3131 246.796 82.629C242.653 83.9562 238.566 85.4061 234.523 86.9474Z" fill="#6E8BC7"/>
<path d="M379.426 78.4049C383.274 87.1565 385.451 96.8034 385.469 106.96C385.488 116.234 383.714 125.233 380.369 133.602C455.559 158.722 509.925 229.746 509.925 313.274C509.925 381.549 473.607 441.489 419.284 474.827C415.967 495.515 411.47 517.854 406.077 539.759C497.485 505.106 562.655 416.677 562.655 313.274C562.655 200.071 484.563 104.792 379.426 78.4049Z" fill="#6E8BC7"/>
<path d="M259.681 492.619C184.991 467.218 131.085 396.447 131.085 313.274C131.085 255.713 156.926 204.103 197.578 169.333C186.803 152.39 180.831 134.853 178.18 117.536C117.737 161.608 78.3545 232.912 78.3545 313.274C78.3545 418.753 146.169 508.642 240.466 541.771C248.578 525.949 254.833 509.113 259.681 492.619Z" fill="#6E8BC7"/>
<path d="M355.577 169.431C363.842 166.307 369.299 160.887 372.447 152.537C375.981 160.525 381.191 166.367 389.746 169.272C381.648 172.723 375.71 177.84 372.724 186.438C369.422 178.172 363.968 172.581 355.577 169.431Z" fill="#18B3E4"/>
<path d="M408.699 375.832C416.964 372.708 422.422 367.288 425.569 358.938C429.103 366.926 434.313 372.768 442.869 375.673C434.771 379.124 428.833 384.241 425.846 392.838C422.544 384.573 417.091 378.981 408.699 375.832Z" fill="#F26F23"/>
<path d="M232.293 452.512C240.558 449.388 246.016 443.967 249.163 435.617C252.697 443.605 257.907 449.447 266.462 452.352C258.365 455.803 252.427 460.92 249.44 469.518C246.138 461.253 240.685 455.661 232.293 452.512Z" fill="#43B877"/>
<path d="M147.661 453.211C147.977 453.159 148.234 453.153 148.46 453.204C148.678 453.256 148.891 453.391 149.084 453.604C149.251 453.797 149.38 454.06 149.451 454.382C149.528 454.711 149.612 455.078 149.708 455.496C149.805 455.908 149.959 456.346 150.153 456.815C150.346 457.279 150.648 457.742 151.06 458.206C151.762 458.998 152.45 459.435 153.139 459.525C153.809 459.616 154.439 459.403 155.019 458.888C155.392 458.566 155.592 458.18 155.63 457.736C155.656 457.285 155.598 456.79 155.431 456.255C155.27 455.721 155.044 455.148 154.761 454.53C154.478 453.906 154.201 453.269 153.925 452.599C153.654 451.93 153.422 451.248 153.236 450.54C153.049 449.838 152.965 449.136 153.004 448.415C153.043 447.707 153.229 446.993 153.558 446.278C153.886 445.57 154.433 444.875 155.199 444.206C156.042 443.459 156.956 442.905 157.948 442.545C158.945 442.191 159.962 442.043 160.992 442.12C162.035 442.191 163.078 442.493 164.108 443.028C165.15 443.562 166.116 444.347 167.036 445.384C167.532 445.95 167.995 446.581 168.395 447.27C168.8 447.965 169.135 448.679 169.412 449.419C169.695 450.166 169.901 450.9 170.036 451.647C170.171 452.393 170.216 453.095 170.178 453.777L167.094 454.273C166.862 454.299 166.624 454.273 166.386 454.196C166.142 454.118 165.936 453.983 165.768 453.797C165.549 453.546 165.401 453.224 165.337 452.825C165.273 452.432 165.189 451.988 165.092 451.492C165.009 451.003 164.848 450.475 164.642 449.922C164.429 449.362 164.069 448.802 163.573 448.235C162.891 447.463 162.189 447.019 161.475 446.896C160.76 446.768 160.033 447.025 159.299 447.675C158.881 448.055 158.636 448.48 158.572 448.956C158.514 449.419 158.565 449.922 158.72 450.462C158.887 450.997 159.113 451.563 159.409 452.168C159.705 452.767 160.001 453.398 160.284 454.048C160.574 454.704 160.812 455.374 161.005 456.069C161.198 456.764 161.262 457.478 161.211 458.199C161.159 458.92 160.947 459.654 160.58 460.407C160.207 461.154 159.589 461.907 158.739 462.66C158.057 463.259 157.265 463.722 156.37 464.018C155.482 464.321 154.536 464.43 153.558 464.353C152.573 464.269 151.588 463.973 150.59 463.465C149.599 462.956 148.659 462.203 147.771 461.205C147.282 460.645 146.838 460.06 146.458 459.455C146.078 458.843 145.756 458.225 145.512 457.601C145.254 456.97 145.067 456.346 144.939 455.721C144.81 455.097 144.752 454.492 144.771 453.9L147.661 453.211Z" fill="white"/>
<path d="M146.509 455.181C146.522 455.245 146.535 455.316 146.554 455.387C146.664 455.915 146.818 456.442 147.037 456.977C147.256 457.537 147.533 458.064 147.855 458.586C148.189 459.114 148.582 459.629 149.013 460.124C149.747 460.948 150.539 461.585 151.343 461.997C152.154 462.409 152.927 462.648 153.699 462.712C154.465 462.776 155.173 462.686 155.836 462.461C156.519 462.236 157.124 461.888 157.651 461.424C158.34 460.813 158.829 460.221 159.106 459.674C159.377 459.12 159.531 458.579 159.57 458.084C159.608 457.537 159.557 457.009 159.415 456.513C159.248 455.889 159.035 455.297 158.778 454.711C158.501 454.08 158.218 453.475 157.935 452.896C157.593 452.207 157.336 451.563 157.149 450.958C156.918 450.16 156.853 449.433 156.937 448.75C157.053 447.869 157.478 447.102 158.192 446.452C159.608 445.197 160.921 445.133 161.764 445.274C162.846 445.461 163.876 446.092 164.809 447.148C165.453 447.881 165.903 448.596 166.18 449.336C166.431 450.006 166.618 450.636 166.714 451.216C166.811 451.692 166.895 452.149 166.965 452.561L168.478 452.349C168.459 452.213 168.44 452.078 168.414 451.943C168.298 451.293 168.118 450.656 167.873 450.006C167.622 449.342 167.326 448.712 166.972 448.1C166.624 447.502 166.225 446.961 165.794 446.472C165.002 445.577 164.204 444.927 163.354 444.496C162.524 444.064 161.694 443.82 160.883 443.762C160.065 443.73 159.286 443.813 158.501 444.097C157.709 444.386 156.988 444.824 156.293 445.442C155.701 445.957 155.283 446.472 155.051 446.974C154.813 447.495 154.678 448.01 154.652 448.506C154.62 449.034 154.678 449.555 154.826 450.115C154.999 450.759 155.205 451.377 155.45 451.982C155.714 452.619 155.984 453.243 156.261 453.848C156.576 454.537 156.827 455.181 157.008 455.779C157.22 456.462 157.317 457.157 157.278 457.833C157.194 458.76 156.789 459.539 156.094 460.137C155.167 460.955 154.047 461.27 152.92 461.16C151.839 461.019 150.796 460.388 149.824 459.3C149.296 458.702 148.891 458.077 148.633 457.447C148.402 456.886 148.221 456.359 148.106 455.87L147.867 454.853L146.509 455.181ZM154.163 466.027C153.918 466.027 153.673 466.014 153.429 465.995C152.232 465.892 151.028 465.538 149.843 464.932C148.672 464.334 147.559 463.446 146.541 462.3C145.981 461.663 145.486 461.006 145.061 460.33C144.623 459.622 144.256 458.914 143.979 458.2C143.69 457.498 143.471 456.777 143.323 456.056C143.169 455.297 143.104 454.556 143.124 453.848L143.169 452.587L147.398 451.583C147.945 451.505 148.408 451.499 148.827 451.595C149.38 451.731 149.889 452.04 150.301 452.497C150.68 452.928 150.931 453.449 151.06 454.029L151.234 454.769C151.388 455.457 151.517 455.805 151.678 456.191C151.794 456.475 152.006 456.79 152.289 457.112C152.875 457.768 153.229 457.878 153.352 457.891C153.455 457.916 153.622 457.929 153.925 457.659C154.002 457.369 153.957 457.067 153.86 456.751C153.712 456.262 153.513 455.76 153.262 455.219C152.972 454.569 152.689 453.919 152.399 453.23C152.103 452.484 151.845 451.737 151.639 450.958C151.408 450.064 151.311 449.207 151.356 448.326C151.408 447.418 151.646 446.497 152.058 445.59C152.489 444.663 153.178 443.781 154.118 442.964C155.102 442.088 156.203 441.425 157.387 440.994C158.623 440.556 159.866 440.363 161.114 440.479C162.376 440.563 163.638 440.93 164.867 441.567C166.077 442.185 167.191 443.079 168.266 444.29C168.839 444.94 169.366 445.661 169.817 446.446C170.274 447.218 170.647 448.017 170.956 448.84C171.272 449.677 171.503 450.508 171.658 451.351C171.812 452.226 171.87 453.05 171.825 453.868L171.748 455.194L167.358 455.902C166.83 455.966 166.341 455.915 165.878 455.767C165.363 455.599 164.912 455.309 164.539 454.897C164.095 454.389 163.824 453.784 163.708 453.089L163.477 451.808C163.4 451.37 163.264 450.945 163.097 450.495C162.962 450.147 162.704 449.748 162.331 449.323C161.925 448.853 161.526 448.577 161.198 448.519C160.876 448.487 160.567 448.744 160.394 448.911C160.175 449.394 160.213 449.684 160.303 450.012C160.439 450.43 160.632 450.92 160.889 451.441C161.192 452.059 161.501 452.715 161.797 453.391C162.112 454.112 162.376 454.859 162.595 455.625C162.833 456.487 162.923 457.395 162.852 458.315C162.788 459.236 162.524 460.182 162.061 461.128C161.591 462.075 160.844 463.001 159.833 463.896C158.965 464.656 157.973 465.222 156.885 465.583C156.029 465.879 155.109 466.027 154.163 466.027Z" fill="white"/>
<path d="M122.706 400.107C121.624 400.642 120.723 401.266 119.996 401.974C119.275 402.676 118.734 403.448 118.393 404.266C118.059 405.083 117.917 405.958 117.975 406.872C118.026 407.786 118.297 408.733 118.779 409.705C119.262 410.683 119.854 411.481 120.55 412.086C121.245 412.691 122.023 413.11 122.886 413.335C123.742 413.567 124.676 413.605 125.68 413.451C126.684 413.309 127.727 412.968 128.802 412.434C129.896 411.893 130.797 411.269 131.524 410.567C132.252 409.859 132.786 409.093 133.121 408.269C133.468 407.445 133.603 406.576 133.545 405.662C133.475 404.735 133.204 403.789 132.722 402.804C132.232 401.839 131.653 401.053 130.964 400.448C130.269 399.843 129.497 399.425 128.641 399.2C127.778 398.968 126.845 398.929 125.847 399.077C124.836 399.225 123.794 399.567 122.706 400.107ZM120.144 394.919C121.715 394.14 123.317 393.69 124.952 393.555C126.581 393.432 128.138 393.606 129.638 394.102C131.125 394.597 132.503 395.395 133.764 396.509C135.026 397.623 136.069 399.032 136.918 400.732C137.755 402.431 138.244 404.117 138.36 405.804C138.483 407.477 138.289 409.067 137.781 410.554C137.266 412.048 136.461 413.406 135.373 414.622C134.286 415.839 132.953 416.837 131.37 417.622C129.793 418.401 128.184 418.858 126.555 418.986C124.927 419.115 123.369 418.929 121.882 418.427C120.389 417.924 119.005 417.12 117.749 416C116.482 414.88 115.439 413.477 114.595 411.777C113.752 410.078 113.276 408.391 113.16 406.711C113.044 405.031 113.244 403.448 113.752 401.967C114.261 400.481 115.059 399.129 116.147 397.912C117.235 396.689 118.573 395.698 120.144 394.919Z" fill="white"/>
<path d="M126.993 400.635C126.703 400.635 126.401 400.661 126.092 400.706C125.255 400.828 124.36 401.124 123.44 401.581L123.433 401.588C122.526 402.038 121.753 402.566 121.148 403.152C120.582 403.699 120.17 404.291 119.912 404.903C119.681 405.476 119.577 406.106 119.616 406.769C119.661 407.465 119.874 408.198 120.253 408.971C120.64 409.756 121.103 410.387 121.631 410.844C122.139 411.288 122.686 411.578 123.304 411.739C123.942 411.906 124.656 411.945 125.429 411.822C126.272 411.706 127.154 411.417 128.068 410.96C128.988 410.503 129.767 409.975 130.379 409.383C130.939 408.836 131.351 408.256 131.595 407.651C131.846 407.053 131.943 406.441 131.904 405.765C131.846 405.064 131.634 404.323 131.241 403.532C130.848 402.753 130.398 402.148 129.877 401.684C129.374 401.247 128.827 400.951 128.222 400.796C127.836 400.687 127.424 400.635 126.993 400.635ZM124.515 415.189C123.8 415.189 123.111 415.105 122.455 414.925C121.367 414.642 120.356 414.101 119.468 413.329C118.612 412.582 117.878 411.61 117.299 410.432C116.72 409.267 116.391 408.095 116.327 406.963C116.256 405.817 116.436 404.69 116.868 403.641C117.299 402.605 117.962 401.652 118.844 400.796C119.7 399.959 120.749 399.238 121.972 398.633C123.208 398.015 124.431 397.623 125.609 397.449C126.825 397.262 127.997 397.314 129.065 397.61C130.153 397.893 131.157 398.434 132.046 399.206C132.895 399.953 133.597 400.886 134.189 402.058C134.768 403.235 135.103 404.401 135.187 405.534C135.264 406.737 135.077 407.864 134.64 408.913C134.228 409.917 133.565 410.882 132.676 411.745C131.808 412.582 130.758 413.309 129.529 413.914C128.299 414.526 127.083 414.918 125.911 415.079C125.435 415.157 124.972 415.189 124.515 415.189ZM125.95 395.164C125.667 395.164 125.371 395.177 125.075 395.196C123.659 395.312 122.242 395.717 120.878 396.393C119.481 397.088 118.303 397.964 117.376 399.007C116.443 400.056 115.748 401.234 115.31 402.502C114.872 403.77 114.705 405.147 114.801 406.596C114.904 408.057 115.329 409.55 116.069 411.043C116.829 412.569 117.737 413.785 118.837 414.764C119.919 415.723 121.116 416.431 122.41 416.862C123.678 417.287 125.042 417.429 126.426 417.345C127.836 417.229 129.252 416.83 130.642 416.141C132.026 415.459 133.204 414.577 134.144 413.522C135.084 412.472 135.785 411.294 136.223 410.02C136.655 408.752 136.822 407.374 136.719 405.926C136.616 404.478 136.191 402.978 135.438 401.459C134.672 399.927 133.771 398.71 132.676 397.745C131.595 396.792 130.398 396.091 129.117 395.666C128.106 395.331 127.064 395.164 125.95 395.164ZM125.577 420.673C124.122 420.673 122.706 420.441 121.354 419.991C119.642 419.411 118.059 418.484 116.655 417.229C115.246 415.987 114.055 414.397 113.121 412.511C112.188 410.631 111.647 408.713 111.519 406.827C111.383 404.935 111.615 403.12 112.195 401.433C112.774 399.747 113.688 398.189 114.917 396.812C116.121 395.46 117.64 394.321 119.41 393.445C121.155 392.583 122.97 392.068 124.817 391.913C126.677 391.778 128.48 391.984 130.153 392.538C131.859 393.104 133.443 394.024 134.852 395.273C136.255 396.509 137.44 398.099 138.392 399.998C139.332 401.91 139.873 403.821 140.002 405.688C140.143 407.58 139.918 409.396 139.339 411.089C138.753 412.788 137.832 414.346 136.603 415.723C135.38 417.088 133.867 418.22 132.104 419.096C130.34 419.971 128.518 420.486 126.684 420.628C126.31 420.66 125.944 420.673 125.577 420.673Z" fill="white"/>
<path d="M111.499 342.118C111.48 341.983 111.48 341.848 111.506 341.713C111.525 341.564 111.583 341.423 111.686 341.281L113.591 338.636C115.02 339.363 116.211 340.386 117.125 341.719C118.045 343.045 118.689 344.706 119.063 346.688C119.41 348.503 119.41 350.19 119.069 351.754C118.715 353.312 118.097 354.696 117.202 355.906C116.301 357.116 115.155 358.133 113.759 358.95C112.368 359.768 110.798 360.347 109.047 360.682C107.257 361.023 105.564 361.049 103.955 360.753C102.353 360.456 100.904 359.884 99.6169 359.034C98.3359 358.191 97.2545 357.096 96.3662 355.738C95.4909 354.386 94.8794 352.829 94.5448 351.065C94.371 350.171 94.2936 349.308 94.2936 348.478C94.3065 347.654 94.3838 346.868 94.5318 346.128C94.6798 345.388 94.8987 344.686 95.1819 344.03C95.4588 343.373 95.7934 342.781 96.1667 342.247L99.044 343.637C99.2114 343.727 99.3788 343.843 99.5397 343.985C99.7007 344.126 99.8036 344.345 99.8551 344.635C99.9002 344.834 99.8936 345.034 99.8294 345.221C99.7843 345.414 99.707 345.62 99.6233 345.838C99.5333 346.064 99.4367 346.302 99.3272 346.572C99.2308 346.83 99.147 347.139 99.0827 347.486C99.0183 347.834 98.9796 348.233 98.9732 348.684C98.9732 349.134 99.0312 349.649 99.1342 350.228C99.3144 351.142 99.6426 351.953 100.125 352.649C100.608 353.344 101.233 353.91 101.986 354.342C102.745 354.773 103.627 355.043 104.631 355.165C105.635 355.288 106.749 355.236 107.966 354.998C109.188 354.766 110.244 354.386 111.139 353.872C112.027 353.357 112.735 352.752 113.282 352.056C113.829 351.355 114.196 350.589 114.389 349.752C114.583 348.928 114.595 348.072 114.435 347.19C114.332 346.688 114.222 346.238 114.093 345.826C113.965 345.42 113.81 345.047 113.623 344.706C113.443 344.371 113.218 344.056 112.967 343.779C112.716 343.495 112.407 343.219 112.046 342.948C111.918 342.839 111.802 342.71 111.699 342.568C111.602 342.433 111.531 342.279 111.499 342.118Z" fill="white"/>
<path d="M96.8169 344.409C96.7782 344.493 96.7397 344.583 96.701 344.667C96.4564 345.24 96.2698 345.832 96.1475 346.45C96.0188 347.1 95.9544 347.782 95.9414 348.503C95.9414 349.205 96.0122 349.964 96.1603 350.75C96.4564 352.295 96.9907 353.666 97.7503 354.844C98.5098 356.009 99.4239 356.929 100.524 357.656C101.619 358.384 102.874 358.88 104.258 359.131C105.648 359.382 107.154 359.362 108.738 359.066C110.289 358.764 111.699 358.249 112.922 357.528C114.119 356.833 115.11 355.951 115.883 354.921C116.636 353.897 117.157 352.745 117.46 351.387C117.75 350.061 117.75 348.581 117.447 346.997C117.112 345.24 116.552 343.779 115.773 342.659C115.291 341.957 114.705 341.346 114.035 340.843L113.315 341.835C113.649 342.118 113.945 342.401 114.203 342.684C114.531 343.051 114.834 343.476 115.072 343.927C115.304 344.345 115.503 344.815 115.664 345.33C115.812 345.793 115.934 346.295 116.05 346.862C116.256 348.001 116.237 349.089 115.992 350.125C115.748 351.194 115.271 352.185 114.583 353.067C113.9 353.936 113.018 354.689 111.963 355.294C110.901 355.912 109.658 356.356 108.275 356.62C106.91 356.878 105.635 356.942 104.432 356.8C103.209 356.652 102.108 356.305 101.175 355.777C100.196 355.217 99.3916 354.483 98.7736 353.588C98.1623 352.713 97.7439 351.69 97.5184 350.55C97.3897 349.829 97.3255 349.218 97.3255 348.683C97.3319 348.104 97.3833 347.615 97.4606 347.184C97.5443 346.733 97.6601 346.328 97.7824 345.993L98.0914 345.227C98.1106 345.175 98.13 345.124 98.1493 345.072L96.8169 344.409ZM106.24 362.606C105.359 362.606 104.496 362.529 103.659 362.375C101.838 362.04 100.177 361.377 98.7094 360.411C97.2482 359.446 95.993 358.178 94.9889 356.639C93.991 355.101 93.2959 353.331 92.9226 351.374C92.7424 350.422 92.6458 349.443 92.6458 348.478C92.6586 347.525 92.7488 346.637 92.9162 345.806C93.0836 344.963 93.341 344.146 93.6692 343.38C93.9719 342.659 94.358 341.957 94.8151 341.3L95.6196 340.155L99.7585 342.157C100.106 342.337 100.376 342.53 100.628 342.749C101.072 343.141 101.361 343.676 101.477 344.345C101.574 344.77 101.548 345.285 101.387 345.755C101.374 345.851 101.278 346.135 101.162 346.424L100.891 347.1C100.801 347.332 100.75 347.544 100.705 347.789C100.653 348.053 100.628 348.362 100.621 348.709C100.621 349.05 100.672 349.469 100.756 349.939C100.885 350.608 101.136 351.213 101.477 351.709C101.818 352.198 102.262 352.604 102.803 352.913C103.357 353.221 104.039 353.434 104.831 353.531C105.68 353.627 106.627 353.582 107.65 353.382C108.68 353.183 109.575 352.874 110.315 352.443C111.01 352.037 111.564 351.58 111.988 351.039C112.381 350.531 112.645 349.99 112.787 349.379C112.922 348.78 112.935 348.143 112.813 347.486C112.729 347.081 112.632 346.682 112.523 346.315C112.426 346.025 112.317 345.748 112.175 345.497C112.059 345.278 111.911 345.066 111.744 344.886C111.564 344.68 111.332 344.474 111.055 344.268C110.753 344.017 110.547 343.792 110.366 343.541C110.122 343.199 109.961 342.826 109.884 342.44L109.832 342.079L109.89 341.403C109.929 341.075 110.09 340.676 110.354 340.309L113.083 336.524L114.338 337.168C116.031 338.031 117.428 339.247 118.483 340.786C119.526 342.285 120.266 344.171 120.685 346.386C121.071 348.4 121.064 350.325 120.678 352.108C120.273 353.904 119.545 355.507 118.528 356.884C117.492 358.281 116.166 359.452 114.589 360.373C113.044 361.28 111.28 361.93 109.356 362.297C108.294 362.503 107.251 362.606 106.24 362.606Z" fill="white"/>
<path d="M115.844 299.004L115.606 304.688L91.2555 303.677L91.4873 297.987L115.844 299.004Z" fill="white"/>
<path d="M92.9677 302.1L114.029 302.975L114.132 300.581L93.0642 299.699L92.9677 302.1ZM117.183 306.4L89.5432 305.254L89.9102 296.275L117.556 297.427L117.183 306.4Z" fill="white"/>
<path d="M115.303 248.783L108.261 249.131C107.811 249.17 107.283 249.202 106.678 249.228C106.067 249.253 105.416 249.266 104.721 249.266C105.333 249.614 105.893 249.955 106.395 250.303C106.903 250.637 107.335 250.946 107.695 251.229L113.462 255.208L115.303 248.783ZM126.722 242.707L125.525 246.923C125.39 247.4 125.171 247.747 124.869 247.972C124.566 248.204 124.218 248.333 123.832 248.391L119.352 248.603L116.81 257.518L120.498 260.067C120.762 260.273 120.968 260.556 121.129 260.936C121.283 261.31 121.296 261.722 121.161 262.172L119.951 266.42L99.1083 250.65L100.698 245.089L126.722 242.707Z" fill="white"/>
<path d="M109.832 250.702L112.51 252.549L113.083 250.541L109.832 250.702ZM101.001 250.019L119.024 263.653L119.578 261.722L114.898 258.201L118.091 247.014L123.755 246.743L124.425 244.574L101.973 246.627L101.69 247.619H104.721C105.391 247.619 106.022 247.606 106.607 247.58C107.187 247.554 107.689 247.528 108.12 247.49L117.524 247.026L114.415 257.866L106.762 252.588C106.35 252.266 105.951 251.983 105.487 251.68C104.992 251.333 104.47 251.024 103.904 250.702L101.239 249.183L101.001 250.019ZM120.878 269.188L97.2161 251.281L99.4238 243.55L128.963 240.847L127.109 247.374C126.877 248.204 126.452 248.848 125.854 249.292C125.364 249.672 124.759 249.916 124.077 250.019L120.614 250.193L118.721 256.836L121.438 258.709C121.998 259.147 122.378 259.662 122.648 260.293C122.95 261.033 122.983 261.838 122.738 262.649L120.878 269.188Z" fill="white"/>
<path d="M143.941 197.958L147.829 200.256L140.362 212.905L119.372 200.52L122.249 195.648L139.345 205.734L143.941 197.958Z" fill="white"/>
<path d="M121.631 199.941L139.783 210.645L145.57 200.836L144.52 200.218L139.924 207.987L122.828 197.907L121.631 199.941ZM140.941 215.164L117.112 201.1L121.67 193.388L138.766 203.481L143.362 195.699L150.088 199.677L140.941 215.164Z" fill="white"/>
<path d="M419.907 123.587L420.976 116.571C421.021 116.121 421.085 115.593 421.188 114.988C421.278 114.383 421.394 113.745 421.542 113.057C421.066 113.584 420.628 114.074 420.19 114.498C419.74 114.93 419.354 115.297 419.013 115.593L413.94 120.498L419.907 123.587ZM423.634 136.068L419.714 134.041C419.276 133.809 418.974 133.526 418.813 133.178C418.652 132.843 418.581 132.47 418.607 132.084L419.283 127.617L410.999 123.336L407.742 126.471C407.491 126.696 407.162 126.844 406.77 126.922C406.364 126.999 405.952 126.928 405.54 126.716L401.588 124.669L421.285 107.238L426.46 109.916L423.634 136.068Z" fill="white"/>
<path d="M416.734 120.086L418.626 121.071L419.128 117.775L416.734 120.086ZM410.709 121.328L421.092 126.696L420.236 132.329L422.263 133.436L424.703 110.862L423.769 110.379L423.151 113.404C423.016 114.054 422.9 114.66 422.817 115.232C422.72 115.825 422.656 116.314 422.617 116.732L421.188 126.104L411.147 120.91L417.867 114.409C418.26 114.067 418.62 113.72 419.051 113.308C419.431 112.941 419.817 112.51 420.229 112.053L422.386 109.665L421.529 109.221L404.478 124.308L406.3 125.255L410.709 121.328ZM425.012 138.637L418.955 135.502C418.176 135.09 417.629 134.543 417.32 133.873C417.043 133.301 416.921 132.638 416.966 131.975L417.481 128.537L411.288 125.345L408.888 127.656C408.373 128.119 407.78 128.402 407.085 128.537C406.326 128.672 405.515 128.563 404.787 128.183L398.698 125.029L421.04 105.255L428.217 108.969L425.012 138.637Z" fill="white"/>
<path d="M448.899 137.826C449.523 138.289 450.109 138.611 450.656 138.778C451.21 138.952 451.731 139.004 452.22 138.933C452.709 138.868 453.154 138.695 453.559 138.418C453.965 138.141 454.331 137.787 454.66 137.356C455.303 136.5 455.535 135.611 455.336 134.704C455.142 133.796 454.46 132.901 453.276 132.02L451.448 130.642L447.071 136.448L448.899 137.826ZM450.727 155.482L446.62 152.379C445.854 151.807 445.526 151.105 445.629 150.281L446.659 142.145C446.684 141.784 446.652 141.482 446.549 141.224C446.446 140.973 446.228 140.716 445.874 140.452L444.715 139.576L439.25 146.824L434.712 143.4L449.472 123.819L455.851 128.621C457.254 129.683 458.361 130.745 459.146 131.788C459.919 132.831 460.427 133.854 460.665 134.845C460.904 135.843 460.91 136.802 460.659 137.729C460.408 138.65 459.97 139.531 459.339 140.362C458.869 140.999 458.322 141.533 457.73 141.971C457.138 142.409 456.488 142.744 455.799 142.969C455.104 143.2 454.377 143.316 453.604 143.329C452.832 143.336 452.034 143.22 451.21 142.982C451.396 143.361 451.525 143.761 451.615 144.179C451.705 144.61 451.731 145.048 451.705 145.524L450.727 155.482Z" fill="white"/>
<path d="M449.89 136.506C450.366 136.86 450.785 137.092 451.139 137.201C451.461 137.31 451.77 137.33 451.982 137.304C452.233 137.272 452.433 137.195 452.632 137.059C452.89 136.879 453.128 136.647 453.347 136.358C453.81 135.746 453.784 135.321 453.726 135.057C453.617 134.555 453.109 133.95 452.291 133.339L451.77 132.946L449.381 136.126L449.89 136.506ZM451.789 140.612C451.268 140.612 450.72 140.522 450.16 140.349C449.446 140.13 448.712 139.737 447.914 139.151L447.908 139.138L444.76 136.77L451.126 128.337L454.267 130.706C455.767 131.82 456.668 133.049 456.945 134.362C457.247 135.72 456.913 137.104 455.979 138.347C455.535 138.926 455.04 139.402 454.486 139.776C453.862 140.207 453.173 140.471 452.433 140.567C452.227 140.6 452.008 140.612 451.789 140.612ZM444.393 137.265L446.865 139.138C447.45 139.576 447.85 140.052 448.075 140.6C448.274 141.102 448.345 141.636 448.3 142.26L447.264 150.487C447.251 150.615 447.225 150.776 447.605 151.059L449.375 152.392L450.064 145.363C450.077 145.086 450.057 144.796 450 144.513C449.935 144.211 449.845 143.947 449.729 143.709L448.088 140.361L451.667 141.398C452.317 141.584 452.948 141.681 453.546 141.681H453.591C454.196 141.668 454.75 141.578 455.278 141.404C455.812 141.23 456.301 140.979 456.752 140.645C457.235 140.291 457.659 139.866 458.013 139.383C458.522 138.714 458.869 138.018 459.069 137.297C459.243 136.654 459.243 135.978 459.063 135.225C458.876 134.459 458.457 133.628 457.82 132.766C457.138 131.865 456.14 130.906 454.859 129.934L449.793 126.123L437.016 143.078L438.928 144.513L444.393 137.265ZM452.079 158.571L445.629 153.692C444.399 152.778 443.82 151.491 443.994 150.075L445.024 141.938L445.011 141.926L439.572 149.135L432.408 143.722L449.15 121.514L456.842 127.301C458.374 128.46 459.59 129.638 460.459 130.796C461.373 132.026 461.978 133.255 462.268 134.459C462.571 135.74 462.564 136.989 462.249 138.16C461.94 139.293 461.406 140.368 460.652 141.359C460.118 142.086 459.455 142.743 458.709 143.297C457.981 143.837 457.17 144.256 456.314 144.532C455.471 144.816 454.589 144.957 453.63 144.977C453.54 144.983 453.45 144.977 453.36 144.977C453.366 145.183 453.36 145.395 453.353 145.614L452.079 158.571Z" fill="white"/>
<path d="M464.663 168.838L460.601 164.809L477.897 147.417L481.958 151.452L464.663 168.838Z" fill="white"/>
<path d="M462.931 164.802L464.656 166.508L479.628 151.459L477.903 149.747L462.931 164.802ZM464.669 171.168L458.271 164.815L477.89 145.086L484.289 151.446L464.669 171.168Z" fill="white"/>
<path d="M499.261 179.375C498.939 179.407 498.675 179.394 498.456 179.33C498.231 179.266 498.038 179.118 497.857 178.892C497.69 178.686 497.587 178.416 497.536 178.081C497.484 177.747 497.42 177.367 497.349 176.948C497.278 176.53 497.149 176.073 496.988 175.597C496.815 175.12 496.544 174.631 496.164 174.142C495.508 173.305 494.839 172.816 494.163 172.687C493.487 172.552 492.837 172.726 492.232 173.202C491.845 173.505 491.607 173.884 491.549 174.329C491.485 174.779 491.523 175.275 491.646 175.828C491.781 176.369 491.961 176.961 492.206 177.605C492.463 178.236 492.695 178.905 492.933 179.587C493.159 180.283 493.345 180.978 493.493 181.699C493.641 182.42 493.673 183.134 493.59 183.849C493.506 184.563 493.268 185.258 492.888 185.954C492.515 186.649 491.923 187.312 491.124 187.936C490.223 188.631 489.271 189.133 488.241 189.429C487.224 189.726 486.2 189.803 485.164 189.668C484.121 189.532 483.091 189.166 482.1 188.554C481.083 187.955 480.156 187.099 479.306 186.005C478.83 185.4 478.418 184.743 478.051 184.016C477.691 183.295 477.395 182.561 477.176 181.802C476.938 181.036 476.777 180.283 476.693 179.523C476.603 178.77 476.596 178.055 476.68 177.373L479.808 177.071C480.04 177.064 480.285 177.103 480.517 177.193C480.761 177.283 480.954 177.438 481.102 177.644C481.315 177.901 481.444 178.236 481.482 178.641C481.527 179.04 481.572 179.491 481.636 179.987C481.701 180.489 481.823 181.023 481.997 181.596C482.177 182.175 482.493 182.761 482.963 183.366C483.6 184.177 484.276 184.673 484.984 184.84C485.692 185.014 486.438 184.801 487.217 184.19C487.668 183.836 487.945 183.424 488.028 182.96C488.118 182.49 488.099 181.982 487.97 181.435C487.848 180.888 487.649 180.302 487.391 179.678C487.134 179.053 486.876 178.41 486.632 177.727C486.387 177.058 486.187 176.369 486.046 175.655C485.898 174.94 485.872 174.226 485.962 173.505C486.065 172.777 486.322 172.056 486.741 171.329C487.166 170.602 487.835 169.887 488.736 169.186C489.457 168.619 490.275 168.207 491.202 167.963C492.116 167.718 493.068 167.666 494.047 167.815C495.032 167.963 496.004 168.323 496.969 168.89C497.935 169.456 498.836 170.28 499.653 171.336C500.11 171.928 500.522 172.546 500.863 173.177C501.205 173.814 501.488 174.457 501.707 175.101C501.913 175.745 502.061 176.388 502.151 177.019C502.247 177.656 502.26 178.274 502.209 178.867L499.261 179.375Z" fill="white"/>
<path d="M478.283 178.847C478.296 179.002 478.309 179.163 478.328 179.33C478.405 180 478.54 180.65 478.746 181.313C478.952 182.008 479.21 182.652 479.525 183.282C479.841 183.9 480.188 184.467 480.6 184.988C481.34 185.934 482.119 186.655 482.937 187.132C483.741 187.627 484.552 187.93 485.376 188.033C486.181 188.136 486.979 188.084 487.777 187.846C488.601 187.614 489.361 187.215 490.12 186.629C490.725 186.153 491.176 185.664 491.433 185.175C491.729 184.641 491.897 184.145 491.955 183.656C492.019 183.115 491.993 182.581 491.878 182.027C491.742 181.371 491.575 180.733 491.363 180.096C491.124 179.414 490.912 178.802 490.68 178.229C490.397 177.476 490.198 176.826 490.049 176.228C489.869 175.41 489.831 174.728 489.921 174.097C490.03 173.247 490.481 172.481 491.214 171.902C492.199 171.136 493.326 170.846 494.484 171.072C495.547 171.271 496.551 171.966 497.458 173.125C497.941 173.737 498.295 174.38 498.533 175.03C498.739 175.635 498.887 176.176 498.971 176.672L499.145 177.721L500.548 177.483C500.541 177.412 500.535 177.335 500.522 177.264C500.445 176.71 500.316 176.157 500.136 175.603C499.956 175.069 499.711 174.509 499.409 173.955C499.112 173.408 498.752 172.861 498.347 172.34C497.658 171.451 496.911 170.769 496.132 170.312C495.353 169.849 494.568 169.559 493.802 169.443C493.055 169.34 492.328 169.366 491.627 169.553C490.925 169.739 490.313 170.042 489.753 170.48C489.013 171.059 488.479 171.625 488.164 172.16C487.855 172.694 487.668 173.215 487.591 173.737C487.526 174.258 487.546 174.786 487.661 175.32C487.79 175.964 487.964 176.569 488.176 177.161C488.421 177.83 488.666 178.448 488.917 179.047C489.213 179.768 489.438 180.444 489.58 181.074C489.753 181.828 489.779 182.574 489.644 183.269C489.496 184.106 489.007 184.879 488.234 185.484C486.754 186.642 485.441 186.636 484.591 186.443C483.529 186.192 482.544 185.497 481.669 184.383C481.07 183.617 480.665 182.87 480.426 182.085C480.221 181.403 480.079 180.785 480.002 180.199L479.815 178.667L478.283 178.847ZM486.142 191.38C485.743 191.38 485.351 191.354 484.951 191.303C483.664 191.135 482.409 190.685 481.237 189.957C480.085 189.281 478.991 188.284 478.006 187.016C477.472 186.333 476.996 185.587 476.577 184.756C476.172 183.939 475.837 183.115 475.592 182.259C475.335 181.422 475.148 180.566 475.058 179.704C474.949 178.828 474.949 177.972 475.045 177.174L475.206 175.861L479.647 175.429C480.265 175.429 480.69 175.487 481.115 175.655C481.63 175.848 482.1 176.202 482.441 176.685C482.802 177.109 483.053 177.747 483.123 178.487L483.271 179.774C483.323 180.193 483.426 180.643 483.574 181.12C483.69 181.499 483.928 181.918 484.263 182.355C484.649 182.845 485.042 183.16 485.363 183.237C485.66 183.276 485.994 183.044 486.2 182.896C486.458 182.413 486.438 182.13 486.368 181.815C486.258 181.332 486.084 180.836 485.866 180.309C485.602 179.658 485.331 178.989 485.08 178.281C484.81 177.547 484.585 176.775 484.43 175.977C484.25 175.108 484.211 174.2 484.327 173.299C484.462 172.34 484.791 171.413 485.312 170.505C485.846 169.598 486.651 168.722 487.726 167.885C488.627 167.177 489.657 166.669 490.783 166.366C491.916 166.07 493.107 165.999 494.291 166.186C495.476 166.36 496.654 166.798 497.806 167.467C498.945 168.137 500.007 169.102 500.953 170.325C501.468 170.995 501.932 171.683 502.312 172.391C502.698 173.119 503.02 173.846 503.264 174.573C503.509 175.333 503.676 176.067 503.779 176.788C503.889 177.509 503.914 178.262 503.85 179.008L503.741 180.276L499.421 181.017C498.894 181.055 498.411 181.036 497.993 180.914C497.452 180.759 496.969 180.424 496.57 179.922C496.229 179.504 496.004 178.963 495.907 178.332L495.727 177.245C495.669 176.884 495.56 176.511 495.424 176.125C495.321 175.828 495.128 175.487 494.864 175.153C494.304 174.438 493.95 174.322 493.854 174.303C493.757 174.284 493.57 174.252 493.249 174.496C493.146 174.792 493.171 175.101 493.255 175.474C493.364 175.912 493.525 176.447 493.744 177.019C493.989 177.612 494.221 178.275 494.452 178.95C494.742 179.832 494.948 180.585 495.109 181.371C495.289 182.259 495.328 183.154 495.225 184.042C495.122 184.956 494.826 185.844 494.336 186.745C493.86 187.627 493.12 188.464 492.141 189.236C491.054 190.073 489.901 190.665 488.698 191.013C487.861 191.258 487.005 191.38 486.142 191.38Z" fill="white"/>
<path d="M507.294 211.334L512.07 206.082C512.359 205.734 512.714 205.335 513.125 204.885C513.537 204.434 514.001 203.971 514.49 203.475C513.814 203.662 513.171 203.81 512.572 203.926C511.96 204.041 511.439 204.132 510.976 204.189L504.049 205.458L507.294 211.334ZM503.477 223.783L501.34 219.921C501.102 219.49 501.011 219.091 501.063 218.711C501.114 218.338 501.256 217.99 501.501 217.681L504.539 214.34L500.014 206.185L495.579 206.989C495.244 207.035 494.884 206.977 494.51 206.822C494.137 206.661 493.834 206.378 493.603 205.966L491.446 202.078L517.503 198.499L520.322 203.591L503.477 223.783Z" fill="white"/>
<path d="M506.599 206.667L507.622 208.521L509.856 206.069L506.599 206.667ZM500.883 204.35L506.554 214.572L502.717 218.788L503.792 220.835L518.333 203.404L517.811 202.458L515.662 204.633C515.063 205.238 514.683 205.625 514.342 205.998C513.949 206.423 513.615 206.803 513.338 207.137L506.966 214.147L501.501 204.247L510.679 202.567C511.207 202.503 511.69 202.413 512.263 202.303C512.817 202.2 513.422 202.059 514.052 201.885L517.039 201.061L516.608 200.282L494.053 203.385L495.044 205.168L500.883 204.35ZM503.2 226.686L499.898 220.719C499.486 219.972 499.331 219.226 499.428 218.492C499.524 217.81 499.788 217.192 500.207 216.657L502.524 214.108L499.145 208.019L495.875 208.611C495.167 208.708 494.529 208.611 493.879 208.347C493.146 208.026 492.579 207.504 492.167 206.777L488.839 200.771L518.397 196.716L522.311 203.777L503.2 226.686Z" fill="white"/>
<path d="M538.828 248.211L515.623 256.154L514.67 253.347C514.529 252.935 514.477 252.562 514.509 252.234C514.542 251.912 514.683 251.551 514.915 251.165L525.008 235.485C524.615 235.672 524.223 235.833 523.836 235.987C523.463 236.135 523.09 236.264 522.755 236.38L510.319 240.641L508.691 235.891L531.895 227.948L532.874 230.786C532.944 231.018 533.003 231.224 533.041 231.385C533.067 231.552 533.08 231.713 533.067 231.861C533.054 232.003 533.015 232.157 532.944 232.312C532.88 232.46 532.771 232.64 532.655 232.852L522.491 248.661C522.916 248.455 523.341 248.269 523.753 248.101C524.158 247.94 524.557 247.792 524.918 247.664L537.199 243.467L538.828 248.211Z" fill="white"/>
<path d="M529.527 231.513L516.299 252.06C516.17 252.279 516.151 252.401 516.151 252.401C516.144 252.427 516.144 252.562 516.228 252.813L516.653 254.062L536.736 247.187L536.176 245.559L525.452 249.221C525.13 249.337 524.751 249.479 524.358 249.633C523.991 249.781 523.605 249.955 523.212 250.142L517.934 252.703L531.271 231.964L531.297 231.269L530.872 230.039L510.782 236.914L511.343 238.549L522.221 234.822C522.549 234.706 522.89 234.59 523.231 234.455C523.579 234.313 523.939 234.165 524.3 233.998L529.527 231.513ZM514.593 258.246L513.113 253.875C512.894 253.251 512.817 252.646 512.868 252.073C512.926 251.506 513.132 250.933 513.499 250.315L520.953 238.736L509.296 242.733L506.599 234.867L532.919 225.856L534.431 230.252C534.534 230.574 534.599 230.812 534.644 230.998C534.721 231.456 534.734 231.739 534.708 232.003C534.676 232.35 534.586 232.678 534.444 233L534.193 233.477L526.566 245.359L538.223 241.375L540.92 249.234L514.593 258.246Z" fill="white"/>
<path d="M547.923 310.867L523.437 312.148L523.283 309.187C523.257 308.749 523.309 308.376 523.437 308.073C523.566 307.771 523.785 307.462 524.12 307.153L538.126 294.839C537.701 294.91 537.276 294.962 536.865 295C536.453 295.039 536.073 295.071 535.719 295.084L522.588 295.773L522.33 290.758L546.816 289.484L546.977 292.477C546.99 292.722 546.983 292.934 546.97 293.108C546.958 293.269 546.932 293.423 546.867 293.558C546.816 293.7 546.732 293.829 546.636 293.964C546.52 294.093 546.385 294.241 546.198 294.408L532.088 306.818C532.565 306.741 533.015 306.677 533.46 306.638C533.904 306.586 534.316 306.554 534.702 306.535L547.666 305.866L547.923 310.867Z" fill="white"/>
<path d="M543.552 292.265L525.207 308.389C525.047 308.537 524.976 308.659 524.956 308.717L525.021 310.416L546.192 309.309L546.101 307.597L534.785 308.183C534.431 308.196 534.058 308.228 533.646 308.273C533.196 308.318 532.784 308.376 532.352 308.447L526.701 309.361L545.11 293.172C545.232 293.063 545.329 292.953 545.413 292.863H545.406C545.335 292.863 545.342 292.722 545.329 292.561L545.258 291.215L524.062 292.316L524.152 294.041L535.635 293.436C535.983 293.423 536.33 293.397 536.71 293.359C537.083 293.327 537.47 293.275 537.856 293.211L543.552 292.265ZM521.88 313.879L521.635 309.271C521.596 308.588 521.693 307.964 521.918 307.43C522.15 306.895 522.51 306.393 523 305.943L533.331 296.86L521.023 297.504L520.599 289.201L548.374 287.752L548.625 292.387C548.638 292.715 548.631 292.998 548.612 293.23C548.592 293.488 548.547 293.867 548.354 294.266C548.296 294.453 548.129 294.711 547.975 294.923C547.711 295.232 547.537 295.419 547.299 295.638L536.91 304.771L549.223 304.134L549.655 312.425L521.88 313.879Z" fill="white"/>
<path d="M530.518 340.895L521.262 339.749L521.963 334.104L531.213 335.243L547.395 328.291L546.777 333.26C546.719 333.756 546.558 334.123 546.295 334.387C546.031 334.638 545.709 334.844 545.323 334.985L537.817 337.554C537.231 337.779 536.678 337.972 536.157 338.146C535.654 338.32 535.146 338.468 534.657 338.584C535.114 338.809 535.571 339.066 536.028 339.337C536.485 339.62 536.974 339.935 537.482 340.289L544.145 344.576C544.28 344.667 544.421 344.782 544.55 344.911C544.679 345.04 544.795 345.188 544.891 345.362C544.988 345.516 545.065 345.703 545.104 345.902C545.162 346.108 545.168 346.334 545.142 346.559L544.524 351.573L530.518 340.895Z" fill="white"/>
<path d="M523.103 338.314L531.162 339.311L543.237 348.522L543.507 346.36L544.145 344.577L543.25 345.961L536.588 341.674C536.06 341.307 535.596 341.004 535.159 340.74C534.766 340.509 534.348 340.27 533.929 340.064L529.816 338.037L534.277 336.981C534.715 336.878 535.172 336.743 535.616 336.589C536.137 336.415 536.665 336.235 537.225 336.016L544.788 333.428C544.917 333.383 545.046 333.299 545.162 333.196L545.426 330.931L531.451 336.936L523.399 335.938L523.103 338.314ZM545.812 354.625L529.874 342.478L519.421 341.184L520.528 332.269L530.975 333.55L549.384 325.646L548.412 333.467C548.316 334.316 547.994 335.018 547.459 335.552C546.99 335.996 546.475 336.318 545.889 336.531L538.577 339.035L545.039 343.193C545.277 343.354 545.509 343.54 545.715 343.746C545.96 343.991 546.166 344.261 546.333 344.564C546.494 344.821 546.649 345.201 546.719 345.587C546.803 345.851 546.829 346.289 546.777 346.746L545.812 354.625Z" fill="white"/>
<path d="M524.248 381.073C525.407 381.421 526.501 381.582 527.518 381.563C528.535 381.537 529.456 381.337 530.267 380.964C531.084 380.597 531.779 380.056 532.372 379.342C532.964 378.627 533.414 377.752 533.723 376.709C534.045 375.653 534.148 374.662 534.045 373.735C533.949 372.808 533.672 371.972 533.189 371.212C532.719 370.453 532.056 369.783 531.226 369.204C530.376 368.624 529.379 368.161 528.22 367.813C527.048 367.466 525.948 367.298 524.931 367.324C523.907 367.344 522.993 367.543 522.176 367.91C521.365 368.283 520.663 368.831 520.077 369.551C519.492 370.272 519.047 371.161 518.732 372.21C518.417 373.253 518.301 374.237 518.397 375.151C518.488 376.072 518.777 376.909 519.253 377.668C519.73 378.421 520.386 379.091 521.23 379.67C522.073 380.256 523.077 380.719 524.248 381.073ZM522.568 386.648C520.875 386.139 519.376 385.373 518.095 384.35C516.801 383.326 515.784 382.116 515.024 380.732C514.258 379.342 513.795 377.803 513.628 376.123C513.473 374.443 513.66 372.686 514.213 370.858C514.76 369.03 515.565 367.453 516.627 366.133C517.696 364.814 518.919 363.784 520.322 363.037C521.725 362.284 523.244 361.84 524.879 361.692C526.514 361.544 528.188 361.724 529.887 362.239C531.586 362.741 533.08 363.514 534.367 364.537C535.655 365.561 536.672 366.764 537.431 368.161C538.178 369.551 538.641 371.09 538.802 372.776C538.963 374.469 538.77 376.22 538.223 378.055C537.676 379.876 536.871 381.453 535.796 382.766C534.734 384.079 533.498 385.109 532.114 385.85C530.711 386.596 529.198 387.034 527.557 387.188C525.922 387.33 524.261 387.156 522.568 386.648Z" fill="white"/>
<path d="M524.725 379.497C525.71 379.793 526.675 379.966 527.486 379.915C528.271 379.896 528.973 379.748 529.578 379.464C530.17 379.2 530.666 378.821 531.104 378.293C531.548 377.752 531.902 377.063 532.146 376.24C532.397 375.403 532.488 374.624 532.41 373.916C532.333 373.221 532.133 372.629 531.799 372.094C531.445 371.528 530.936 371.013 530.286 370.556C529.591 370.079 528.728 369.687 527.744 369.391C526.733 369.095 525.78 368.959 524.969 368.972C524.171 368.985 523.476 369.133 522.852 369.416C522.279 369.68 521.783 370.067 521.358 370.588C520.914 371.129 520.566 371.837 520.309 372.686C520.058 373.523 519.961 374.296 520.039 374.978C520.103 375.647 520.303 376.24 520.65 376.793C521.004 377.353 521.513 377.868 522.163 378.312C522.858 378.795 523.721 379.194 524.725 379.497ZM527.364 383.211C526.218 383.211 525.014 383.024 523.772 382.651C522.414 382.239 521.275 381.711 520.29 381.022C519.279 380.327 518.462 379.497 517.863 378.55C517.239 377.559 516.872 376.471 516.756 375.313C516.64 374.205 516.775 372.995 517.155 371.734C517.535 370.472 518.088 369.391 518.796 368.515C519.543 367.601 520.444 366.893 521.487 366.41C522.53 365.947 523.669 365.702 524.898 365.677C526.031 365.664 527.344 365.838 528.69 366.237C530.003 366.629 531.168 367.17 532.153 367.839C533.196 368.567 534.013 369.41 534.592 370.343C535.191 371.29 535.558 372.377 535.687 373.562C535.809 374.708 535.68 375.937 535.3 377.192C534.934 378.428 534.373 379.509 533.64 380.391C532.887 381.305 531.979 382.001 530.943 382.47C529.945 382.927 528.799 383.178 527.557 383.211H527.364ZM525.98 363.289C525.658 363.289 525.343 363.308 525.027 363.334C523.611 363.462 522.292 363.849 521.101 364.492C519.891 365.136 518.848 366.011 517.908 367.17C516.988 368.309 516.273 369.712 515.79 371.328C515.308 372.931 515.134 374.489 515.269 375.976C515.411 377.417 515.816 378.756 516.466 379.934C517.129 381.138 518.018 382.187 519.118 383.056C520.225 383.944 521.545 384.62 523.045 385.071C524.512 385.509 525.967 385.663 527.415 385.547C528.851 385.412 530.138 385.032 531.342 384.395C532.533 383.758 533.601 382.863 534.515 381.73C535.442 380.597 536.157 379.2 536.646 377.578C537.135 375.943 537.302 374.418 537.161 372.931C537.026 371.489 536.626 370.144 535.976 368.94C535.326 367.736 534.464 366.719 533.344 365.825C532.217 364.93 530.898 364.254 529.417 363.823C528.258 363.469 527.106 363.289 525.98 363.289ZM526.469 388.881C525.014 388.881 523.547 388.663 522.092 388.225C520.193 387.652 518.5 386.783 517.065 385.637C515.629 384.498 514.451 383.114 513.583 381.524C512.714 379.954 512.179 378.19 511.986 376.285C511.813 374.366 512.031 372.384 512.636 370.382C513.241 368.361 514.156 366.578 515.346 365.097C516.556 363.604 517.966 362.426 519.549 361.583C521.126 360.733 522.871 360.218 524.731 360.051C526.559 359.877 528.471 360.089 530.363 360.662C532.237 361.216 533.929 362.085 535.39 363.25C536.845 364.402 538.017 365.792 538.879 367.376C539.735 368.972 540.263 370.736 540.443 372.622C540.624 374.508 540.405 376.497 539.8 378.525C539.188 380.572 538.268 382.348 537.071 383.809C535.886 385.277 534.476 386.455 532.893 387.304C531.316 388.141 529.572 388.656 527.711 388.83C527.3 388.862 526.881 388.881 526.469 388.881Z" fill="white"/>
<path d="M515.597 408.199L515.185 409.003C514.799 409.756 514.76 410.413 515.057 410.979L519.704 419.527C519.942 420.017 520.039 420.461 520.013 420.873C519.994 421.278 519.852 421.742 519.601 422.237L517.361 426.646L511.812 415.672C511.433 414.906 511.246 414.185 511.239 413.515C510.911 413.824 510.538 414.075 510.126 414.256C509.727 414.442 509.25 414.565 508.716 414.629L495.212 416.077L497.523 411.546C497.664 411.262 497.806 411.018 497.954 410.831C498.102 410.651 498.25 410.503 498.404 410.393C498.565 410.284 498.726 410.207 498.894 410.155C499.068 410.104 499.254 410.065 499.454 410.04L509.579 408.958C509.946 408.913 510.268 408.791 510.525 408.572C510.776 408.353 511.027 408.005 511.259 407.542L511.89 406.313L502.582 401.581L505.163 396.509L527.029 407.619L524.448 412.691L515.597 408.199Z" fill="white"/>
<path d="M512.849 409.737L512.887 413.502C512.894 413.927 513.029 414.41 513.287 414.938L517.367 423.003L518.133 421.491C518.339 421.085 518.365 420.853 518.365 420.795C518.378 420.641 518.326 420.461 518.224 420.248L513.608 411.764C513.209 411.005 512.92 409.808 513.718 408.25L514.876 405.984L523.727 410.477L524.815 408.34L505.884 398.723L504.796 400.86L514.11 405.591L512.726 408.295C512.405 408.932 512.031 409.447 511.607 409.814C511.098 410.252 510.486 410.509 509.778 410.593L499.628 411.681L497.954 410.831L499.248 411.855C499.209 411.9 499.132 412.015 498.997 412.279L498.063 414.114L508.542 412.987C508.884 412.949 509.199 412.872 509.431 412.762C509.695 412.646 509.914 412.498 510.113 412.318L512.849 409.737ZM517.355 430.29L510.345 416.418C510.274 416.277 510.21 416.141 510.152 416.006C509.778 416.122 509.36 416.212 508.916 416.264L492.36 418.04L496.055 410.799C496.261 410.387 496.454 410.072 496.66 409.808C496.931 409.479 497.182 409.241 497.452 409.048C497.767 408.829 498.083 408.681 498.411 408.578C498.681 408.501 498.952 408.443 499.241 408.404L509.405 407.317C509.444 407.317 509.534 407.246 509.663 407.027L500.368 402.302L504.442 394.295L529.243 406.898L525.169 414.906L516.743 410.625L521.152 418.742C521.545 419.54 521.699 420.267 521.654 420.976C521.629 421.587 521.429 422.269 521.069 422.984L517.355 430.29Z" fill="white"/>
<path d="M505.157 445.146L497.252 439.636C496.403 439.043 495.605 438.413 494.845 437.73C494.072 437.048 493.313 436.327 492.566 435.555L494.587 432.652C495.566 433.083 496.519 433.546 497.42 434.029C498.321 434.505 499.196 435.04 500.046 435.632L507.944 441.129L505.157 445.146ZM490.313 428.152C490.648 428.384 490.919 428.667 491.112 428.989C491.311 429.311 491.44 429.658 491.504 430.019C491.562 430.386 491.549 430.753 491.472 431.139C491.388 431.519 491.227 431.886 490.983 432.233C490.751 432.574 490.468 432.851 490.133 433.057C489.805 433.263 489.464 433.405 489.09 433.482C488.717 433.553 488.357 433.553 487.977 433.476C487.616 433.405 487.262 433.25 486.928 433.018C486.593 432.787 486.335 432.51 486.129 432.182C485.923 431.86 485.795 431.512 485.737 431.139C485.679 430.778 485.685 430.399 485.782 430.019C485.866 429.646 486.02 429.285 486.258 428.938C486.509 428.59 486.786 428.313 487.108 428.101C487.436 427.888 487.777 427.753 488.138 427.676C488.505 427.612 488.872 427.618 489.251 427.695C489.631 427.773 489.985 427.927 490.313 428.152Z" fill="white"/>
<path d="M488.64 429.279C488.569 429.279 488.498 429.285 488.421 429.298C488.305 429.324 488.151 429.388 488.003 429.485C487.867 429.575 487.732 429.71 487.597 429.903C487.507 430.032 487.43 430.199 487.391 430.379C487.346 430.566 487.34 430.72 487.365 430.875C487.391 431.036 487.436 431.171 487.52 431.293C487.616 431.454 487.726 431.564 487.867 431.667C488.015 431.763 488.157 431.834 488.292 431.86C488.479 431.892 488.62 431.905 488.781 431.86C488.93 431.834 489.09 431.763 489.258 431.66C489.399 431.57 489.515 431.461 489.618 431.306C489.747 431.12 489.824 430.959 489.863 430.785C489.895 430.618 489.901 430.444 489.876 430.276C489.85 430.148 489.798 429.993 489.708 429.858C489.625 429.716 489.522 429.607 489.38 429.51C489.232 429.407 489.078 429.343 488.923 429.311C488.827 429.291 488.73 429.279 488.64 429.279ZM494.71 435.362C495.115 435.754 495.521 436.128 495.933 436.494C496.654 437.145 497.4 437.73 498.192 438.284L504.745 442.848L505.652 441.541L499.106 436.984C498.308 436.43 497.49 435.928 496.647 435.484C496.164 435.226 495.662 434.969 495.154 434.724L494.71 435.362ZM505.569 447.443L496.312 440.987C495.405 440.356 494.555 439.681 493.744 438.953C492.953 438.252 492.161 437.505 491.382 436.7L490.442 435.728L491.685 433.933C491.478 434.132 491.247 434.306 490.996 434.46C490.507 434.769 489.985 434.982 489.425 435.098C488.807 435.226 488.228 435.207 487.649 435.091C487.076 434.975 486.516 434.737 485.988 434.37C485.479 434.016 485.067 433.591 484.733 433.057C484.417 432.561 484.205 431.995 484.108 431.39C484.012 430.791 484.037 430.193 484.186 429.613C484.308 429.073 484.546 428.519 484.9 428.004C485.299 427.451 485.717 427.045 486.2 426.723C486.696 426.408 487.224 426.189 487.79 426.067C488.421 425.957 489.013 425.957 489.58 426.08C490.172 426.202 490.732 426.44 491.247 426.794L491.253 426.8C491.781 427.167 492.212 427.618 492.528 428.139C492.817 428.609 493.023 429.156 493.126 429.729C493.223 430.321 493.204 430.875 493.088 431.461C493.023 431.757 492.933 432.04 492.817 432.31L494.008 430.598L495.25 431.145C496.267 431.59 497.259 432.072 498.199 432.574C499.151 433.083 500.084 433.649 500.986 434.28L510.235 440.717L505.569 447.443Z" fill="white"/>
</svg>
